<?xml version="1.0" standalone="no"?>
<!DOCTYPE svg PUBLIC "-//W3C//DTD SVG 1.1//EN" "http://www.w3.org/Graphics/SVG/1.1/DTD/svg11.dtd" >
<svg xmlns="http://www.w3.org/2000/svg">
<metadata>
This is a custom SVG webfont generated by Font Squirrel.
</metadata>
<defs>
<font id="SSF4ABUKETRegular" horiz-adv-x="519" >
<font-face units-per-em="750" ascent="600" descent="-150" />
<missing-glyph horiz-adv-x="250" />
<glyph unicode="&#xd;" horiz-adv-x="750" />
<glyph unicode=" "  horiz-adv-x="250" />
<glyph unicode="&#x09;" horiz-adv-x="250" />
<glyph unicode="&#xa0;" horiz-adv-x="250" />
<glyph unicode="$" horiz-adv-x="454" d="M227 722l7 -9q6 -10 38 -14l16 -15q16 -15 25 -30q-2 -3 -41 13t-69 40l25 -22q26 -22 40 -37l-15 13q-14 12 -35 2q-24 -13 -47 -18.5t-43 5.5l-30 -13q-31 -12 -46 -27l-2 17q-3 17 6 23l-24 -15q-25 -15 -18 -27l-1 19q-1 19 8 23l-9 2q-9 3 -12 -8l-2 42q-3 41 65 95 l-3 -2q-2 -2 -5 -17q65 51 118.5 26t53.5 -66zM99 63q-57 76 -78.5 159.5t-10.5 161.5t54 143t116 105q-4 -61 9.5 -144t44.5 -163t80.5 -145t117.5 -90q1 -57 -52 -86t-117 -41.5t-117 -13.5l-54 -1q25 6 31 34l6 27q-15 -12 -55 -17l-40 -5q38 3 52 40z" />
<glyph unicode="%" horiz-adv-x="504" d="M429 53q17 -38 -23 -81.5t-120 -22.5q9 -13 12 -14l4 -1q-85 22 -99 60l-14 39q7 -9 14 -3l8 7q-10 0 -17 18l-6 18q-1 -15 27 -19l28 -3q-11 0 -15 17l-4 18q19 -8 52 -7l33 1q15 17 38 20.5t50 2.5q23 -2 31 16l9 18q-7 -21 -22 -51l-15 -29q19 34 48.5 63.5t31.5 28.5 q-2 -18 -10 -37l-9 -20q-27 -18 -29 -28zM50 607l-26 29q-27 28 -63 16l38 12q38 11 58 4l-17 24q-16 23 -41 19l49 20q49 20 113 34t124 8t82 -59q-53 -50 -72.5 -129.5t-16 -165t24 -167t47.5 -135.5q-83 7 -148.5 49.5t-106.5 109.5t-54 152.5t9 178.5z" />
<glyph unicode="(" horiz-adv-x="378" d="M279 -163q-129 -144 -257.5 -140.5t-186.5 95.5t-10.5 242t271.5 300q13 12 15.5 41t0 59t-6.5 53l-4 23q19 6 45 -13l26 -18q23 -40 12 -96l-10 -56q-34 -17 -73 -52.5t-72.5 -70.5t-56.5 -62l-22 -26q-39 -60 -41.5 -93.5t10.5 -50t30 -20.5l17 -4q34 -9 75 20.5 t76.5 68t59.5 72.5l24 34q33 36 65 31l32 -6q52 -25 57 -89.5t-10.5 -131.5t-36.5 -119l-22 -53q18 28 6 45zM223 688l-10 -34l23 34q13 -29 7.5 -55.5t-17 -46t-23.5 -31.5l-12 -11q-57 -17 -85.5 5t-39 53.5t-8.5 58t7 20.5l18 -31q3 -6 0 6l-7 29q-4 16 -6.5 29t2.5 9 l22 -22l10 59l8 -21q6 -17 13.5 -12.5t15 15.5t13 21.5t7.5 7.5l13 -29l31 15l-9 13q-8 13 4 -5t18 -48z" />
<glyph unicode=")" horiz-adv-x="535" d="M-32 789q139 144 278 140t201.5 -96t11 -242.5t-293.5 -299.5q-15 -12 -18 -41t-0.5 -59t7.5 -53l5 -23q-21 -7 -49 12l-27 18q-26 39 -15 96l12 57q36 16 78.5 51t79.5 70t62 62l24 27q42 60 44.5 94t-11.5 50.5t-32 20.5l-19 4q-38 9 -82.5 -20.5t-83 -68.5t-63.5 -73 l-26 -34q-35 -36 -69 -31l-34 6q-57 24 -62 89t12 132.5t40 120.5l23 52q-20 -28 -7 -44zM28 -63l10 34l-24 -34q-14 29 -8.5 54.5t18 45t25.5 31.5l13 12q61 16 91.5 -6t42 -52.5t9.5 -57t-6 -20.5l-20 31q-4 6 -1 -6.5t7.5 -28.5t7 -28.5t-1.5 -8.5l-24 21l-11 -59l-9 22 q-7 17 -15.5 12.5t-16 -15.5t-13.5 -21.5t-7 -7.5l-15 28l-32 -15l8 -12q8 -13 -4 4q-13 18 -19 48z" />
<glyph unicode="," horiz-adv-x="366" d="M49 320h38q37 0 86.5 -12.5t98.5 -44.5t71 -97l3 -32q3 -33 -4.5 -79t-31 -96.5t-77.5 -87.5l-25 -9q-25 -9 -58 -27t-65.5 -44t-47.5 -60q-1 -7 15.5 5.5t45.5 77.5q34 32 -12 8t-114.5 -72t-132.5 -105t-67 -91l21 46q20 45 54.5 109.5t79.5 133.5t95 117l21 31 q21 31 -12 48l-22 9q-22 10 -39 27.5t-15.5 42.5t47.5 57l23 13q23 12 26 27q10 23 16.5 7.5t-9.5 -12.5q9 -3 8 -2.5t4 0.5q32 3 36 23.5t-5.5 42t-26 37t-25.5 9.5z" />
<glyph unicode="-" horiz-adv-x="512" d="M9 431l23 -8q23 -8 55 -16.5t65 -14t54 -0.5l32 28q32 28 62 19l25 -13q26 -13 55 -33.5t51 -46t16 -49.5l20 -28q21 -29 -15 -41l-57 11q-57 11 -88 1l-35 -24q-35 -24 -81 -20l-21 2q-20 2 -49 13.5t-60.5 36t-52.5 69.5q21 -21 57 -27.5t34 -5.5q-13 4 -48 26.5 t-34 40.5l23 -19q22 -19 41 -19l-37 30q-38 29 -44 50l-24 41q-23 40 -11 51l17 -26q16 -27 27 -28z" />
<glyph unicode="." horiz-adv-x="332" d="M148 9l-35 -49q6 17 9 23t-10 22q-7 13 -24 3l-17 -10q-44 16 -59 39t-16 44t5 36l6 16q19 24 13 33l-6 10q-51 30 -84 70.5t-52.5 76.5t-27.5 61l-8 25q13 -29 53.5 -51.5t76.5 -36t51 -15.5t-23 12q-26 19 -34.5 49.5t-6.5 24.5q21 -27 52 -42.5t60.5 -23t51.5 -9.5 l21 -1q51 -20 83.5 -60.5t52 -82t27.5 -72.5l7 -30q3 -66 -24 -108.5t-60 -68t-61 -35.5l-28 -10q21 10 25 36.5t0 54t-11 48.5z" />
<glyph unicode="0" horiz-adv-x="510" d="M119 618l17 17q16 17 41.5 37.5t56 38t58.5 19.5l-4 20l10 1q9 1 -7 32l14 -11q14 -10 17 5l20 -13l1 12q0 13 -8 16l51 -22l11 -15q11 -15 23.5 -34.5t22.5 -40t7 -30.5l-15 -30q-16 -30 -13 -39l28 -47v23q-1 23 -10 38l9 -11q9 -11 9 -15l1 14l7 -21q7 -21 7 -25l3 1 q2 2 5 13q1 10 0 4l-1 -6v-18q0 -18 3 -19l3 14v-225l-4 -23q-5 -22 -13 -52t-21 -61.5t-31 -50.5l-12 -17q-12 -16 -31.5 -36t-44 -38.5t-48.5 -22.5l-21 -4q-21 -3 -52 3.5t-66.5 31.5t-65.5 82l-13 35q-13 35 -23 91.5t-8 126.5t32 139l1 -11q1 -12 9 3l19 51 q19 51 32 59v5q0 6 -19 -12zM412 551q-6 -2 -4 -11q3 -9 9 -9q6 2 3 12q-2 10 -8 8zM172 174q7 -27 31 -44l24 -17q-30 12 -44 34l-14 22q-2 -12 7 -24l9 -12q38 -32 69.5 -30.5t53.5 15.5t35 31l12 18q39 79 50 145t9 113.5t-10 74.5l-9 27l-58 2l-16 16q-86 -6 -121.5 -66 t-43.5 -129t1 -124.5t15 -51.5z" />
<glyph unicode="1" horiz-adv-x="304" d="M36 127l14 74l117 547l-117 -547l117 547l-3 33l14 -11l5 -11h10l-4 17l12 -3l-5 8l10 -16l7 4l15 -16l-4 24q41 -24 54 -67l12 -43q-7 -6 -33 -107l-55 -221l-52 -217l-22 -99l-39 -23q15 26 2 16l-13 -11q0 27 -8 15l-8 -12q0 24 -8 16l-7 -9q14 68 1 90z" />
<glyph unicode="2" horiz-adv-x="446" d="M23 766l11 -12q11 -11 15 20l8 -2l-1 29l25 -35l-1 18l14 -12v12l31 -30l21 1q21 1 48.5 2.5t55 2t40.5 -1.5l22 -3q21 -2 46.5 -16.5t46 -45t18.5 -87.5l-4 -31q-4 -31 -49 -74l-28 -28q-28 -27 -62.5 -72t-65 -104t-34.5 -123l13 -1l-3 -12l15 -1l31 22q31 22 40 37 l-2 37l9 -6l-9 23l55 -25q54 -25 77 -121l-15 30q-15 31 -21 31l38 -81l-1 -84l-17 -31l-5 11l-1 -8q-2 -7 -6 -7q-5 0 -6 5l-1 6l-3 -8l-17 20l-1 -9q-2 -9 4 -13l-7 8q-7 9 -5 18l-3 -15l-18 22q-19 23 -20 31l-205 -59l-14 -4q-15 -3 -33 14l-10 37q-11 38 -20 39l4 20 q3 21 8.5 47.5t12.5 51.5t14 34l-13 -17q-14 -17 -13 -35q12 61 54.5 114t90 102.5t87 97t45.5 96.5l-19 20q-20 21 -82 -9l-41 -32l13 19l-26 -27l40 19l-81 -60l-26 -1q-26 -2 -40.5 27.5t-23 68t-11 77t-3.5 55.5q15 2 14 18z" />
<glyph unicode="3" horiz-adv-x="418" d="M8 696l9 -8q9 -7 3 47l11 -8q11 -8 3 29l11 -12q10 -12 7 10l26 -12l50 21q50 22 92 14l49 -18q48 -18 86 -87l17 -68q18 -67 -30 -144l-24 -31q-24 -31 -63 -57l-7 -11l18 -2q19 -2 43.5 -9t47.5 -21t32 -38l5 -17q5 -16 2 -47t-21 -74t-64 -97l-22 -21q-21 -21 -35 -25 l23 20q24 21 30 35l-7 -1l-46 -31q-46 -30 -75 -31l37 14q37 15 70 43v5q-26 -22 -54 -35.5t-61 -25.5l-5 -4v11l-15 1q-15 1 -22 -2l-4 -1q-3 0 -3 6l-2 20l-11 10q-10 10 -18 9l34 -1q35 -1 78 35l30 26q31 27 43 70l9 27q9 28 -16 41l-40 34q-40 34 -103 10l-42 72l61 15 q61 15 136 111l14 27q15 27 9 48l-4 -12q-3 -13 -8 -17l4 39q5 40 -28 55l-28 7q-27 7 -75 -20l-21 -12q-20 -13 -34 -28l-28 -19q-28 -19 -39 21z" />
<glyph unicode="4" horiz-adv-x="528" d="M23 279l18 1q18 0 48 63l20 35l44 77q23 42 41.5 80t14.5 45l-1 2q0 2 -8 2l10 22q9 23 6 33l7 -14l14 33q13 32 -8 14l1 40l11 10q10 10 -23 38l7 -3q6 -3 9 0l1 8q0 8 -7 14l26 -3q27 -4 42 -14l29 -2l13 13l10 -17l20 -2l24 -16q24 -16 42 -80l-25 -328l9 -11 q8 -11 29 -8l28 -25q28 -24 27 -119l-36 -20l-75 5l-6 -56l-3 15q-2 14 -5 11l-17 -115l-6 -8l-2 11l-6 -2q-6 -3 -6 -9l-19 8v12q0 12 -11 18l-2 108l-7 7l-69 -7q-68 -7 -143 -61l-63 61l5 29q5 29 3 37l-2 11q-3 12 -11 11zM176 273q30 -4 61.5 -3.5t65.5 3.5l-7 181z " />
<glyph unicode="5" horiz-adv-x="473" d="M137 570l-27 13l-40 105v29l5 -3q5 -4 6 20l13 -29q13 -29 15 12l14 12l14 -12q13 -13 31 -7l204 67l17 -17l-4 -20l16 -4l-23 -15l12 -6l-13 -17l18 -2l-122 -64l19 -8l-70 -40l-25 -112l8 51q8 50 8 55l-7 1q-7 1 -9 -23l-7 -42q-8 -43 3 -45l-12 -48q-12 -49 -9 -50 l9 -2l53 33q52 33 98 24q66 -10 92.5 -62t25 -115t-26 -121t-58.5 -79l3 6q3 5 0 11l-5 1l-14 -23q-15 -24 -62 -41l2 3q2 2 1 5l-7 1q-7 0 -10 -6t-10 -6t-9 4h5q5 0 8 5l19 17l-1 9l-4 1l-13 -11q-14 -11 -22 -11l19 12q18 12 26 25v6l-10 -6q-1 0 -36.5 -16.5 t-29.5 -22.5l-9 -7l1 1l-7 -3l-4 -4l-4 3l-4 -3l-10 -2l5 6l-14 -3l7 6l-19 -3l16 6l-37 2l34 4l32 19q32 18 44 29l26 22q27 21 32 33l15 17q15 17 10 31l-3 -6q-2 -7 -13 -14l11 17q12 16 10 42v30q-1 30 -23 41l9 -4q8 -5 13 -17l-13 31q-13 30 -88 18l-12 -3 q-12 -4 -11 -11l1 -8l-36 -22q-36 -22 -54 -54l-3 -8h-27l-17 24q-17 23 -20 23l-1 28q0 27 -22 41l16 28q17 27 37 67t36.5 84t17.5 77z" />
<glyph unicode="6" horiz-adv-x="489" d="M427 700l15 27l-1 -17q-2 -18 16 0l3 -26q3 -26 4.5 -64.5t-1.5 -83t-16 -81.5l-5 4q-5 4 -11 -18l-12 2q-13 1 -13 -12q-5 -3 -12.5 9t-10.5 20q6 -3 -0.5 24t-16.5 36l6 -7q5 -7 11 -4l-4 21q-5 20 -16 44t-31 44t-51 19l-20 -6q-20 -6 -45 -25t-48.5 -55.5 t-31.5 -96.5v-39l9 13l-5 -11q-6 -12 -1 -13l8 -3l19 15q20 15 34 20l7 9l-1 -2q0 -3 9 1l12 8l33 2q32 2 80 -14l35 -20q35 -19 53 -82l6 -46q7 -47 2 -65l-6 -53q-7 -52 -48 -92l-30 -36q-31 -35 -111 -46h-20q-21 0 -49 9t-58.5 34.5t-51.5 76.5l-20 68q-21 67 -9 135 l3 29q2 29 6.5 66.5t11 73t14.5 49.5l16 41q16 41 25 53l12 1l-4 7l31 35q31 36 40 38l3 7h-9l-10 -11q-11 -11 -15 -14l23 28q22 28 45 33l-7 -8q-8 -8 5 -2l19 13q20 14 64 12h-4q-3 1 -27 4l49 -3q49 -3 103 -75zM127 375q0 -23 1 -61.5t10.5 -75t30 -61.5t58.5 -20 q42 -4 68 38l26 41q24 36 16 77l-8 41q-6 24 -31 36l-25 11q6 9 29 -3l23 -13l-21 17l-19 13q-29 12 -67 -2l-38 -15q-2 4 13 13l14 9l14 8q-21 0 -57 -26z" />
<glyph unicode="7" horiz-adv-x="483" d="M37 715l5 -10q6 -10 7 42l7 -20q7 -20 4 32l4 -1q4 -2 -2 24l55 -55v14l30 -25l67 -1q68 -1 151 37l40 -25q40 -25 55 -52l-5 -105l-44 -34q-44 -35 -75 -145l-12 -33q-12 -33 -24 -79.5t-19 -96.5t3 -84v-42l-23 -14q-23 -14 -22 -29l-11 7q-10 6 -22 -19l-53 5l8 45 q8 44 25 113t43.5 152.5t63.5 160.5l17 45q18 45 23 52l-12 16q-12 15 -95 -22l-4 -6q-5 -6 10 -6l-38 -24q-37 -24 -63 -66l-36 -12l-31 74q-32 75 -25 170v7q0 7 -2 10z" />
<glyph unicode="8" horiz-adv-x="583" d="M431 757l25 19v-11q0 -12 19 9l3 -11q3 -11 29 27l-3 -19q-4 -19 13 -10l1 -12q2 -12 21 -6q11 3 14 -31t-6 -76.5t-32 -80t-62 -40.5l-70 44l-2 15l-17 -2l-21 15l16 -1l-17 20q-17 19 -81 16l-18 -4q-18 -4 -39.5 -15t-40 -31.5t-20.5 -53.5l2 -44q1 -45 64 -63l17 30 v-9l151 132l-6 -15l12 4l-3 -7l-23 -27q-24 -27 -19 -30l11 7q11 6 17 12l-13 -16q-13 -16 -28 -28v-7l6 3q6 2 10 8l-3 -8q-3 -9 -9 -13l-14 -19q-15 -19 -18 -21l-3 -6q-4 -6 29 -8l-7 -2q-7 -3 9 -6l54 -11q54 -12 98 -69l2 -1q2 -2 6 4l9 -21q9 -21 15 -51.5t3.5 -65 t-24.5 -61.5l-41 -44q-41 -45 -140 -61h-25q-25 -1 -61 3.5t-76 16.5t-70 37l-2 25q-2 24 -28 47l-16 94q1 6 21 27l41 43q21 22 36 39.5t9 19.5l-44 29q-45 29 -52 122q-3 125 83.5 197.5t307.5 52.5zM206 208l-1 -11q-6 6 -3 3l3 -3q34 -50 76 -35l43 14q31 6 36 29l6 23 l10 -3q15 14 -11 42l-26 28q0 21 -36 33l-35 11l4 -6l-22 2q-30 -50 -41 -76.5t-11.5 -37.5t4.5 -12z" />
<glyph unicode="9" horiz-adv-x="526" d="M448 555q-3 -45 25 -68l28 -23l-3 -18q-39 -30 -64 -86l-25 -56q-13 -31 -26.5 -79.5t-25 -94.5t-18.5 -79l-7 -33l-49 -20l-19 9h-38l-32 -7l1 28l10 8l142 307q7 8 2 8l-5 1q21 16 16 17l-4 1q-20 -12 -37 -18l-16 -5q58 23 64 40l6 18q-9 -7 -45 -32l-35 -24 q-8 -3 0 -6l8 -2q-10 0 -19 -6l-9 -6q-10 -6 -1 -8l9 -2q-51 -16 -92.5 -7.5t-71.5 25t-46 32.5l-16 17q-23 31 -27.5 68t-0.5 68.5t11 52.5l7 22q1 27 19.5 53t41 46.5t40.5 33.5l19 13q48 32 109 30l61 -2l3 7q7 -24 14 -14l8 11l24 -23l5 15q6 -33 31 -39l25 -6l41 -84 q0 -17 -12 -44l-11 -27zM365 571l1 23q0 24 -43 34l-53 -1q-53 0 -90 -58l-11 -20q-11 -20 -18 -49t-4 -62t32 -60l-10 7q-9 8 -12 3l12 -20q12 -19 43 -11l-1 2q0 2 -6 4l61 8q61 8 115 95l16 85l-30 12z" />
<glyph unicode=":" horiz-adv-x="229" d="M92 96l-26 -38q4 12 6.5 17t-8.5 18q-5 10 -18 2l-12 -8q-66 24 -57 63l9 40q14 18 10 25l-4 7q-78 46 -105 111l-26 65q10 -22 41 -39t58 -27t38 -11.5t-17 8.5q-20 15 -26.5 37.5t-5.5 19.5q28 -36 74.5 -46.5t61.5 -11.5q24 19 11 68l-12 50l-27 -38l7 16q2 5 -8 19 q-6 9 -18 1l-12 -7q-66 24 -57 63l9 39q15 18 10 25l-4 8q-78 46 -105 111l-26 65q10 -22 41 -39t58 -27t38 -11.5t-17 8.5q-20 15 -26.5 37.5t-5.5 18.5q32 -41 86 -50l54 -8q38 -15 62.5 -45.5t39 -61.5t20.5 -54l6 -23q3 -84 -46.5 -120.5t-73.5 -44.5q38 -15 62.5 -46 t39 -62t20.5 -54l6 -23q2 -51 -18 -83t-45 -50.5t-46 -26.5l-21 -7q16 8 18.5 27t-0.5 39.5t-8 37.5z" />
<glyph unicode="&#x3c;" horiz-adv-x="508" d="M66 27l2 -3q1 -2 11 1v31q-1 32 -16 81q-9 7 -9 -16t-2 -18q-3 6 -8.5 42.5t-2.5 45.5v1q-1 1 -1 3l-36 90q-18 45 -54 114q-3 7 -17 24.5t-26 12.5l9 41l-15 18l-3 21l24 -4l-31 39l66 -30l50 -2l36 -13q36 -14 55 -80l31 32q30 32 63 26l22 1q22 1 49 -23l20 -16 q20 -16 47.5 -41.5t55 -57t41.5 -63.5l1 -35q2 -36 5 -79.5t7.5 -81t10.5 -42.5q7 -38 33 -35l-28 -21v-28l-45 -2l-3 -7q-3 -7 -21 -1l-13 12l-28 27l-28 28q-14 14 -15 20l-1 16q-1 16 -4 27l14 -10l-5 125l28 -68l-1 47q0 46 -29 91l-39 48q-39 47 -71 59l-39 3l-14 -26 q-14 -27 -6 -126l15 32v-21q0 -21 3 -47t10.5 -50t22.5 -31q-4 -12 31.5 -41t33.5 -44l-12 -27q-12 -27 -37 -42q-25 -14 -21 -7l3 6l-30 29v-19l-8 23q-9 23 -22 26l-11 2q-10 2 -14 -7q-15 7 -34.5 4.5t-34.5 -6.5zM320 602q22 -11 39 -23t21 -41q2 -13 -3.5 -5.5 t-8.5 9.5q-21 4 -5.5 -7.5t12.5 -52.5q0 -5 -13.5 13.5t-28.5 28.5q-6 3 -15 11t-15 -1q-8 -14 12.5 -25.5t11.5 -9.5q-15 1 -29.5 14t-39.5 13q-42 -2 -72 -5.5t-72 1.5q-32 3 -55.5 28.5t-43.5 44.5q-15 15 -55 13t-58 -16q-6 -5 1 0.5t17 14.5t17 17t2 8q-3 -1 43 20 t97 -9q23 -15 42 -38t49 -26q9 -1 26 11l17 12l52 8q7 0 25.5 -6t15.5 -3l-21 17l18 -2q18 -2 17 -14z" />
<glyph unicode="=" horiz-adv-x="597" d="M-112 671l-4 10q-4 11 -32 56q-14 22 -6 14l26 -27q18 -18 41 -36.5t38 -16.5l-11 8q-11 9 1 22l43 -28q42 -27 89 -6l12 -29q12 -29 31 -25l-12 -37l26 27l-12 -74l278 -336l-68 299l-47 85l38 -42l-32 136l2 41q2 42 10 66l2 -29q2 -28 20 -31l5 13q6 14 -14 42l25 -30 q26 -29 63 -59t77 -46t70 12l-1 -8q-2 -8 1 -17q0 -2 7 0l8 2q-13 -4 -13 -9q0 -9 20 -21q-50 -3 -68 -48t-20 -97.5t5 -97t7 -45.5l6 -4q-3 -12 -5 -27l-4 -31q-6 -41 -6.5 -85.5t14.5 -73.5l-3 19q-3 19 -4 43.5t1 48.5t11 34q-1 1 -2.5 -18.5t-0.5 -46.5t7 -54.5 t22 -43.5l5 -7q4 -6 -8 -17l-14 -17q-14 -16 -44 -11l-34 -2q-33 -1 -33 25l-7 22q-7 22 -20 31l-28 28l-60 66l-61 70q-27 34 -27 44l12 -41q12 -41 32 -92t45.5 -98t52.5 -59l2 -28q2 -28 -22 -49l-20 4q-20 4 -45.5 13t-49.5 24t-33 36l-24 38q-23 38 -56 49l16 3 q17 3 38 -3q-8 -5 -32 47l-54 122l-61 137q-31 68 -54 95l-24 -7l10 47l-26 35q-26 36 -48 36l13 10q14 10 -4 24l4 8q4 9 -10 28l-8 15zM317 861q22 -1 40.5 -4.5t30.5 -22.5q4 -9 -2.5 -5t-9.5 4q-19 -3 -2.5 -6.5t25.5 -33.5q0 -3 -16.5 5.5t-32.5 11.5q-6 0 -16 3.5 t-12 -5.5q-3 -12 18 -13.5t12 -3.5q-13 -3 -29.5 1.5t-37.5 -2.5q-36 -13 -61.5 -24.5t-62.5 -20.5q-29 -7 -56 3l-50 19q-18 6 -51.5 -7t-45.5 -28q-7 -11 11 15.5t9 22.5q-3 -2 31 26.5t87 22.5q24 -3 47.5 -13.5t50.5 -4.5q8 2 19 15t12 14l42 20q6 3 23.5 4t14.5 2 l-22 6q-1 0 15 4t19 -5z" />
<glyph unicode="&#x3e;" horiz-adv-x="597" d="M-112 671l-4 10q-4 11 -32 56q-14 22 -6 14l26 -27q18 -18 41 -36.5t38 -16.5l-11 8q-11 9 1 22l43 -28q42 -27 89 -6l12 -29q12 -29 31 -25l-12 -37l26 27l-12 -74l278 -336l-68 299l-47 85l38 -42l-32 136l2 41q2 42 10 66l2 -29q2 -28 20 -31l5 13q6 14 -14 42l25 -30 q26 -29 63 -59t77 -46t70 12l-1 -8q-2 -8 1 -17q0 -2 7 0l8 2q-13 -4 -13 -9q0 -9 20 -21q-50 -3 -68 -48t-20 -97.5t5 -97t7 -45.5l6 -4q-3 -12 -5 -27l-4 -31q-6 -41 -6.5 -85.5t14.5 -73.5l-3 19q-3 19 -4 43.5t1 48.5t11 34q-1 1 -2.5 -18.5t-0.5 -46.5t7 -54.5 t22 -43.5l5 -7q4 -6 -8 -17l-14 -17q-14 -16 -44 -11l-34 -2q-33 -1 -33 25l-7 22q-7 22 -20 31l-28 28l-60 66l-61 70q-27 34 -27 44l12 -41q12 -41 32 -92t45.5 -98t52.5 -59l2 -28q2 -28 -22 -49l-20 4q-20 4 -45.5 13t-49.5 24t-33 36l-24 38q-23 38 -56 49l16 3 q17 3 38 -3q-8 -5 -32 47l-54 122l-61 137q-31 68 -54 95l-24 -7l10 47l-26 35q-26 36 -48 36l13 10q14 10 -4 24l4 8q4 9 -10 28l-8 15zM317 861q22 -1 40.5 -4.5t30.5 -22.5q4 -9 -2.5 -5t-9.5 4q-19 -3 -2.5 -6.5t25.5 -33.5q0 -3 -16.5 5.5t-32.5 11.5q-6 0 -16 3.5 t-12 -5.5q-3 -12 18 -13.5t12 -3.5q-13 -3 -29.5 1.5t-37.5 -2.5q-36 -13 -61.5 -24.5t-62.5 -20.5q-29 -7 -56 3l-50 19q-18 6 -51.5 -7t-45.5 -28q-7 -11 11 15.5t9 22.5q-3 -2 31 26.5t87 22.5q24 -3 47.5 -13.5t50.5 -4.5q8 2 19 15t12 14l42 20q6 3 23.5 4t14.5 2 l-22 6q-1 0 15 4t19 -5z" />
<glyph unicode="A" horiz-adv-x="668" d="M103 -37q-1 -12 -13 -16l-11 -4q19 7 13 16l-5 8q-15 12 -50 11l-35 -1q-39 10 -48 47l-10 37q-13 -3 -27 16l-14 18q5 -9 17 -5l13 4q-12 0 -17 17l-5 16q4 -13 21 -11l18 2q3 9 -6 19l-9 9q15 -8 25 -3l9 5q26 41 12 83l-14 41q15 64 19 147t3 157t-4 125l-3 51 q-39 44 -30 53l8 9q0 -9 4 -13l5 -5q14 3 24 -9l10 -12q0 15 -13 36l-12 21l49 -48q-7 19 7 28l13 9q8 -40 43 -52l35 -12q21 25 31 23l10 -3q-21 4 -28 -15l-6 -19l21 4q7 -34 39 -33h33q-15 -6 -9 -18l5 -13q13 6 22 -4l9 -10q-14 12 -19 5t-5.5 -20.5t1.5 -26.5l2 -13 q2 12 12 12l9 -1q-17 -2 -12 -16t12 -2q4 -30 50.5 -96t101.5 -133l100 -118l45 -51l29 -4q-12 -39 -5 -54l7 -16q-6 3 -1 30l5 26q0 -31 27 -68l26 -37l-4 -37q-13 0 -7 -30l7 -30l-57 -8q-72 23 -108 80l-36 56q9 -9 18 -4l9 5q-35 124 -85 159l-51 35q27 -11 51 -45 l25 -34q-63 32 -136.5 51.5t-85.5 5.5q-22 -12 -26.5 7t0.5 28q-61 -70 -64 -147l-3 -77q-8 47 16 105l25 57q-15 -33 -9.5 -75.5t12.5 -75.5q2 -12 -2 -33t-1 -29q3 -10 10 2l7 11l-10 -57q-17 -3 -23 -23zM135 418l-1 -11l16 5l6 -7q22 0 52 -10.5t57 -23.5t46 -23l19 -10 q-10 22 -34 54t-49 62l-44 51l-19 21q6 -36 -21 -72z" />
<glyph unicode="B" horiz-adv-x="568" d="M15 516l-1 -14q-1 -15 -16 -17l-19 5q-19 4 -43 20.5t-47 48.5t-31 88l-11 31q-11 30 -28 39l19 -11q18 -11 20 -20q7 -11 6 -3.5t-6.5 20t-13.5 23.5t-16 8l22 -8q21 -9 34 -38l12 28l11 -33l20 16l48.5 35t62 38.5t61.5 24.5q1 4 83 4.5t153 -35.5l50 -34 q49 -33 67 -122l2 -20q1 -20 -3 -49t-18.5 -62t-47.5 -60l39 -8q38 -8 78 -35l-24 10q-24 9 -34 6l25 -8q25 -9 40 -33q32 -66 -5.5 -154.5t-130.5 -122.5l17 11q17 11 17 29l-14 -15q-14 -16 -37 -25l11 21l-12 -10q-12 -10 -24 -8l11 7q10 7 6 14l-25 -12l8 18l-37 -23 l10 28l15 14q15 13 34 32.5t36.5 40t23.5 34.5q25 42 13.5 76t-40.5 49t-66 6.5t-62 -51.5l-14 3l-20 21q-20 21 -20 38l5 -9q5 -9 13 -8l-4 21q-4 20 -23 53q16 -15 41.5 -9t49.5 22t42.5 38.5t22.5 41.5l4 22q4 22 -1.5 47.5t-27.5 45t-75 15.5l-48 -10q-48 -10 -66 -46 l83 -339l6 24l58 -252l9 25l2 -104l-46 49l-18 87l5 -76l-112 336l35 -155l-137 323z" />
<glyph unicode="C" horiz-adv-x="622" d="M-32 712l20 25q20 25 61 43.5t103 15.5t146 -58l29 -17l-7 25l25 -14l-9 35q-9 35 -18 41l14 -15l31 -36q18 -20 32.5 -43t15.5 -39l5 16q4 16 -7 34q-6 8 6 -17l29 -60q16 -35 30.5 -70t14.5 -46l3 14q2 14 -5 38l20 -55q19 -55 -2 -95l-3 19q-4 19 -16 16l7 -20 q6 -20 -14 -28l5 16q4 16 -9 16l-7 -26l-21 24l7 -33q-19 29 -59 39l23 1q2 0 -13.5 20t-42 48.5t-60.5 58.5t-68 49l18 -17q18 -17 26 -29l-17 9q-16 9 -38.5 13t-46 -6t-37.5 -48q-18 -64 1 -149.5t64.5 -158.5t112.5 -117.5t147 -25.5l30 22l-11 -14q-11 -13 -20 -20 l17 7q18 7 26 22l8 -13l19 20q20 21 15 60l8 -29q9 -29 -4 -43l10 3q11 4 13 25v-17q0 -18 -5 -24l9 -1q9 -1 14 11l-23 -46q-23 -47 -122 -68q-87 -8 -177.5 49t-164.5 142t-121.5 178.5t-50.5 158.5l13 -33q14 -33 23 -39l-20 53q-20 54 -25 88l38 -69l1 92l-4 -24 q-5 -24 -6 -32q0 -9 -8.5 29t22.5 119z" />
<glyph unicode="D" horiz-adv-x="546" d="M-122 750l24 -22q24 -22 88 8l34 14q34 13 86.5 20t114 -3.5t115.5 -58.5l53 -62q53 -63 90 -161t24 -219t-146 -238l20 26q20 26 23 43l-14 -12q-14 -12 -28.5 -29.5t-23 -38.5t2.5 -41l9 -16l-33 40l-6 -14l-13 26l-16 -15l-1 16l-11 -9q-12 -8 -8 -20l-7 11 q-8 11 1 15l-47 -9l28 22l-26 -2l9 20l-41 -25l12 17l-15 8l25 9q25 10 25 28l-208 379l-10 -12q-10 -12 -6 -24l-9 11q-10 10 -7 17l-12 -8q-12 -8 -9 -20l1 39l-37 -11l17 25l-20 2q-21 3 -33 -16l3 10q2 11 26 18h-44l23 14l-49 -21l29 43l-40 10l23 19l-20 24 q-20 24 -35 19q-15 -6 -6 -3l9 3l14 1q13 1 21 -5l-19 37q-19 37 -32 40l-4 17q-4 18 -1 26l21 -30q21 -30 28 -46l-8 42q-8 42 -29 53l26 -13q26 -13 32 -24l27 -4l-19 26l19 -7l-8 17q-7 18 -2 24zM186 394l35 -69q30 -43 45.5 -80t32.5 -82q81 44 95.5 126.5t-17.5 156 t-99.5 115.5t-148.5 5q-4 -2 -5 -3l-2 -1l59 -132q29 -66 59 -127z" />
<glyph unicode="E" horiz-adv-x="512" d="M186 460l19 -24l85 16l-85 -16l85 16q-4 5 -12.5 7.5t-12.5 3.5q20 0 66 -2l45 -2l-4 18q48 -18 46 -54l-2 -37q-11 3 -37.5 -10t-54.5 -29t-49 -30l-22 -14q-21 -2 -26 3l-6 5q-7 -3 7 -44l13 -41l-32 48l47 -102q105 54 165 58l60 3q-18 7 -19 -2l-1 -9q16 0 20 -22 l3 -22q-16 6 -25 -4l-9 -10q9 5 21 1l12 -5q-15 2 -23 -5l-8 -7l36 -6l-36 -14q-23 -8 -54 -20l-58 -24q-27 -12 -41.5 -19t-1.5 -2q24 8 59 12l34 4q-83 -26 -122.5 -47t-54 -35.5t-12.5 -22.5l2 -9l-13 32q-18 15 -31 7l-13 -8q6 14 -6.5 30t-30.5 29.5t-33 23.5l-16 9 q13 2 11 21l-3 18q-16 2 -28 21l-11 18l-7 8q-6 7 1 -3q7 -11 26 -11h18q-15 6 -19 26l-5 21q6 -19 27 -31l20 -13l13 -2l1 18l17 5l-110 385q-6 4 -13 -5l-7 -10q-4 6 3 14l6 8q-18 -6 -22 -28l-3 -22l-19 -2l-17 8q7 21 -12 22h-19l6 15q-12 10 -22 6l-11 -5l10 24 q-9 3 -24 -5l-15 -9q17 3 12 19l-4 15q-21 -9 -30 -1l-10 8q9 -8 20 0l12 7l1 23l-17 7l17 14q-47 -3 -57 12l-10 15q42 -24 58 -16l15 8l-9 25l42 -9q-24 10 -26 23l-3 13q9 -28 37 -31l27 -3q-25 14 -26 28l-1 14q17 -36 34 -35l18 1q1 21 1 27l1 5l13 -22q5 -7 33 -8 t59.5 1t57.5 5l26 3q99 3 124 44l26 42q79 -37 91 -81l11 -43l-8 -49q-14 -8 -31 -11l-18 -2l9 26q-44 16 -80 -2l-36 -19q3 10 34 24l31 14q-45 -14 -86 -35l-41 -20l21 -130l-33 96z" />
<glyph unicode="F" horiz-adv-x="458" d="M-49 700l20 -5q20 -6 61.5 0t106.5 32t157 89l-1 27l12 -10q12 -10 27 -8l22 -36q23 -36 51 -39l2 -53l11 19l4 -90l-50 -5l-7 17q-7 17 -37 20l10 -8q11 -7 11 -13q-1 -6 -55.5 -1t-147.5 -55l3 -105l1 32q1 32 7 37v-18q0 -18 1.5 -39.5t4 -39t6.5 -16.5l42 -9 q42 -8 149 56l17 25l-6 -9q-6 -8 1 -13l31 -11q31 -11 32 -63l-3 -10q-4 -10 -23 -18l-1 9q-1 10 -30 3l15 -2q14 -1 7 -7l-17 -8q-17 -8 -41 -38l6 13q5 14 34 32l-21 -10q-21 -9 -48 -24.5t-53.5 -36t-36.5 -41.5l1 -31q0 -30 2 -69t5.5 -75t10.5 -46l-1 20q-1 20 6 38 v-36q0 -36 11 -35l-1 -30q-1 -30 -25 -46q-3 -3 -17 16.5t-31 51.5t-33 73.5t-23 81.5l5 -35q5 -36 15 -63q-6 0 -29 66l-53 147q-30 81 -60.5 152t-53.5 82l-24 -9q-23 -9 -29 -45l-15 -7l-6 25l-7 -22l-3 19q-3 20 -18 10l-40 -4l29 16l-45 -3l4 24l-19 -2q-18 -2 -21 -30 h-10l8 21q9 22 27 22l-15 14q-14 15 -47 -9l8 16q8 17 31 23l-2 13l-8 9q-8 9 -31 0l15 9q16 10 24 4l-33 9l22 3l-19 10q-18 11 -22 27l13 -11q13 -10 21 -7l-10 19q-9 19 -2 46l12 18l1 -25q1 -24 18 -24l15 41v-16q0 -15 7 -20l23 32l18 -42l9 64l5 -20q5 -19 20 -16 q16 1 12 -5l-3 -6l-2 -11l34 -7q34 -7 52 15z" />
<glyph unicode="G" horiz-adv-x="719" d="M253 356l17 -11q17 -12 53 -15t90 12t128 68l21 4q22 3 29 1l-9 -4q-10 -5 -7 -17l10 3q10 3 28 -7l36 -36q36 -37 35 -79v-28q-1 -28 -16 -32l-22 -1q-23 -2 -46 34l-7 3q-7 3 -13 -8l1 -25q1 -26 3.5 -57t5 -58.5t5.5 -31.5l1 10q0 10 5 23l9 -52q8 -53 24 -60l16 -97 l-46 75l10 -49l-30 20q-31 20 -44 74l-11 63l-13 -1q-13 -2 -17 -11l6 -4q5 -5 14 3l-10 -23q-10 -23 -109 -39q-85 -7 -157.5 26.5t-129.5 92.5t-95.5 136t-55.5 156.5t-10 153t42 126t101 76t167 2.5l44 -23q43 -23 64 -32l4 20q3 19 -5 30l14 -15q13 -16 11 -37l15 41 l1 -70l29 45l4 -34l39 54l-14 -84l25 16l-9 -62l20 9q20 9 22 24l-1 -26q-2 -27 -16 -33l8 -10q8 -10 25 3l6 -30q5 -30 -10 -43l22 -14l-24 -5l-10 -27q-9 -27 -33 -30l-15 -1q-16 -1 -35 6t-37 24.5t-24 54.5l-12 19q-12 18 -55 24l15 3q15 3 32 -4l-18 13q-19 12 -48 23 t-66.5 12t-75.5 -22l-17 -20q-18 -21 -21 -46l10 17q9 16 23 18l-7 -27q-8 -27 -13 -66t-2.5 -83t23.5 -79l-6 25q-6 25 3 36l5 -26q4 -27 21 -64t49.5 -78t88.5 -71l57 -20q56 -20 119 5l-4 21q-5 20 -12 44t-17 42.5t-21 14.5l-26 -14q-26 -15 -23 -28l-32 3q-32 3 -54 38 l8 -6q8 -7 31 -4l-34 15q-33 14 -41 47l10 -14q9 -14 23 -8l-27 40l11 12l-24 12l11 5l-17 13q-17 12 -13 32z" />
<glyph unicode="H" horiz-adv-x="551" d="M34 387l-126 275l-12 17q-12 16 -37 9l9 59l-15 22q-15 21 3 36l16 -23q16 -24 36 -18l-5 23q-6 22 -15 22l29 -7q29 -8 67.5 -24t78 -41.5t61.5 -60.5l-20 -19q-20 -19 -7 -46l-9 14q-9 13 -6 24q-2 0 2 -30.5t13 -69t23.5 -72.5t33.5 -39l38 -7q38 -7 80 8l-44 -4 q-44 -5 -53 4l53 7q53 6 77 25v26q0 25 -1.5 58t-6 64t-13.5 42l3 -40q3 -41 -2 -47l-4 24q-5 23 -12 52t-14 53.5t-13 26.5l-4 16q-4 16 5 37l8 -25q7 -26 31 -23l-3 17q-4 17 6 28q7 -31 29.5 -48t47.5 -28l46 -22q22 -10 30 -26l3 -6l14 -15l12 -100l-22 70l-2 -40 q2 -17 -0.5 -80t-3 -137.5t4 -142.5t19.5 -95l-3 39q-4 38 6 62l2 -22q1 -22 6 -47.5t13 -47t22 -19.5l8 -12q8 -12 -5 -21l-25 -26q-25 -26 -46 -21l-15 5q-16 4 -33.5 22t-29.5 53.5t-5 97.5l1 20v43t-1 46t-5 27l1 -34q0 -34 -3 -42l-1 18q-2 18 -5 41.5t-7 45t-8 29.5 l-48 -16q-49 -16 -58 -29l26 10q25 10 52 10l-42 -21q-43 -21 -39 -39l9 -33q9 -33 22 -73t26.5 -75.5t22.5 -41.5l3 31l11 -48q11 -48 14 -49l-25 -21l-34 14q-35 14 -63 83l-17 28l-37 65q-21 37 -38.5 72t-18.5 50l-22 25q-22 25 -49 25l29 12l-54 3l38 12l-35 16z" />
<glyph unicode="I" horiz-adv-x="476" d="M-211 753q13 -8 74 -4.5t132 11.5t135 16.5t84 10.5q122 -3 154 -27t13 -54t-70 -57.5t-95 -37.5q20 -13 24 -97t1 -180t-8 -173l-6 -78q68 21 135 19l67 -2q25 -26 24 -40t-11.5 -20t-21.5 -7t-4 0q-72 0 -137.5 -17t-116 -38.5t-79.5 -39.5l-30 -18q-66 11 -92.5 44.5 t-32 69t0.5 63.5l6 28q-3 -18 28.5 -29t70 -18t71.5 -9l33 -3q27 -4 9 64t-50 150.5t-63 152.5l-32 70q-47 -40 -87 -46t-69.5 3t-45.5 23l-17 14q-40 69 -44 118t7 79.5t27 44.5z" />
<glyph unicode="J" horiz-adv-x="406" d="M-25 693q66 6 123 38t114 79q103 -46 130 -68l26 -21q17 -24 18 -61l1 -37q-15 11 -58 9l-43 -1l8 -10q-21 7 -29 -7l-8 -14q-12 -15 12 -38l23 -23q-12 -4 -11 -27l1 -23l14 8q-6 -6 -4 -28l1 -22q6 11 11 17l4 6l-4 -39q-5 -50 18 -84l22 -34q6 6 3 20l-4 15 q15 -23 26 -71l11 -47l4 22q2 -8 2 -32.5t-1.5 -50.5t-2.5 -46l-1 -20q-5 -32 -36 -51l-31 -18q-84 -51 -138 -37l-54 14l10 11q-9 3 -18 -2l-10 -4l10 18q-57 3 -62 18l-5 16l-8 -14l-14 15q-39 21 -64 66l-26 45q-5 1 -12 8l-8 6l9 -2q-24 33 -19 90l4 57q-3 -42 12 -76 l15 -34l11 -8l-2 13q-23 70 -13 119l9 49q-9 -41 -2 -72l6 -32l5 9q18 -52 32 -59l13 -7l1 34l19 -41q39 -81 77 -96l37 -14q13 -12 45 -3l32 9l19 12l-14 2l26 17q9 14 3 53l-7 38l2 -12q1 -12 0 4q-1 7 -21 55l-46 101l-45 97l-20 43l-17 7q-18 1 -40 -11.5t-41.5 -28.5 t-33.5 -29l-14 -13q-57 -3 -100 24.5t-71.5 62.5t-43.5 64l-15 30q5 -10 13 -5l9 5q-33 36 -33 55v20q8 -20 25 -26l17 -6q-6 4 -9 17l-2 13q6 -12 21 -17l15 -5q13 -3 39.5 -3t53.5 0.5t47 1.5l20 1l47 19z" />
<glyph unicode="K" horiz-adv-x="593" d="M8 344l-5 59q-5 58 -35 103l-19 36q-19 35 -30 103l-18 19l2 23l20 7l-17 21l16 6l-19 13l-8 11q-7 10 0 17l11 -8q11 -8 20 1l4 14q5 14 15 17l37 3q38 2 85 -44l3 -4q4 -5 10 -11l13 4q13 3 14 3q0 -1 -13 -5l-12 -4q9 -11 18.5 -24.5t9.5 -21.5l4 -8q5 -8 17 17l11 5 q12 5 12 -13l10 -6q11 -6 -27 -30l-6 -16v-35v-86l-17 49l-5 -30q-5 -30 -8 -67.5t-1 -70.5t16 -39l8 -3q9 -3 20 12q12 35 51 60q16 10 54 68t41 85l3 21l8 48q5 26 8 50.5t2 32.5l1 26q2 26 36 -2l30 -3l7 -19q8 -19 27 -27h33l19 -31q19 -32 38 -35q1 -1 6 -19t6 -18 l-13 33l-9 -12l1 -43l13 -10q14 -10 -16 -18l-2 -27l-49 -11q-49 -12 -72 -34l13 15q13 16 24 22l-50 -19q-51 -18 -81 -93l28 4l-19 -17q-20 -17 -14 -29q2 -6 24 -30l49 -50q27 -26 51 -47t31 -21l19 -8q18 -8 39 -6l13 -14l29 -31q16 -18 29 -35.5t12 -25.5l-6 -35 q-7 -35 -22 -39l-15 -2q-15 -2 -36 5t-44 28t-39 67l-12 23q-12 24 -34 57l-38 35q-38 36 -80 55l-41 -1l-19 -29q-20 -30 -20 -38l5 -37q5 -37 83 -62l24 -11l-2 -21l40 -5l-1 -15q-2 -15 -32 -30l-5 -32h-26l-24 -28l-31 4q-31 3 -64 54l-43 94q-43 93 -74 216z" />
<glyph unicode="L" horiz-adv-x="620" d="M62 33l8 38q7 38 -33 62l26 -4q25 -5 32 -14v39l-6 42q-6 41 -17.5 96.5t-29.5 110t-42 80.5l10 -24l19.5 -56.5t18.5 -61t5 -39.5l-26 52l-61 114l-67.5 116.5t-44.5 56.5l-12 119l-22 32l24 -10q23 -10 28 -22l-10 18q-10 18 -4 31l17 23l2 -36q2 -36 42 -50l-15 16 q-15 15 -2 25l19 -22q19 -22 43 -12l20 -6q20 -6 45 -16t46.5 -23t24.5 -26l6 -59q6 -59 15 -131.5t20 -137t21 -75.5l-6 45q-7 45 -19 149l4 -18q3 -19 9 -41t13 -41t13 -21l10 -33q9 -33 23 -72t28.5 -71t24.5 -29l19 -3q18 -3 45 0t58.5 16.5t57.5 46.5l22 -7 q21 -6 45.5 -20t42 -37.5t9.5 -56.5l10 6q9 5 9 23l5 -13q5 -14 5.5 -31.5t-7.5 -35t-35 -25.5l-29 -1l-23 17q-22 16 -75 7l-26 -5q-26 -4 -57.5 -14t-58 -25t-26.5 -38l-90 9q-9 1 -14.5 22.5t-59.5 37.5h-9q-8 0 -8 -6q0 -7 -7.5 3t-2.5 16z" />
<glyph unicode="M" horiz-adv-x="626" d="M-134 726l-3 11q-4 11 -31 61q-13 24 -5 16l25 -29q17 -21 38.5 -41t35.5 -18l-10 9q-11 9 1 24l41 -30q41 -31 83 -8l11 -32q12 -33 30 -28l-11 -41l24 30l-11 -82l230 -338l-69 496l1 46q2 45 10 72l2 -31q2 -32 19 -35l4 15q5 15 -14 46l21 -25q22 -25 52.5 -52 t63 -46t53.5 -8l34 -43q34 -43 55 -47l-13 -19q-12 -18 -23 -44t-15.5 -54t10.5 -47l66 -315l-12 121l6 -30l14 -68q8 -38 13 -72.5t3 -43.5l-3 -75l-17 21l-2 -27q-2 -26 15 -32l-45 40q-45 41 -45 107q-3 -1 -15 42l-27 97l-28 103q-13 49 -18 61l-5 -31q-5 -31 -8.5 -74 t-2 -89t14.5 -76l-3 21q-2 21 -3 48.5t0.5 54t10.5 37.5q-1 1 -2.5 -20.5t-0.5 -51.5t6.5 -61t20.5 -48l5 -7q5 -7 -7 -19l-15 -29q-15 -29 -43 -24l-39 13q-39 14 -39 42l2 20q2 21 -10 31l-21 26l-45.5 61t-45 66t-20.5 43l12 -45q11 -45 29.5 -102t42.5 -108.5t50 -64.5 l2 -32q2 -32 -20 -55l-19 5q-19 4 -43.5 14.5t-47.5 26.5t-31 40l-22 42q-22 42 -54 54l16 3q15 3 35 -3q-8 -6 -30 52l-50 135l-58 153q-30 75 -52 104l-23 -7l10 52l-25 40q-24 39 -45 39l12 11q13 11 -4 26l4 10q4 9 -10 31l-7 16z" />
<glyph unicode="N" horiz-adv-x="553" d="M-147 674l-4 10q-4 10 -32 57q-13 22 -6 14l26 -27q18 -19 41 -37.5t38 -16.5l-11 8q-11 9 1 22l42 -28q43 -28 88 -7l12 -30q12 -30 31 -26l-12 -38l25 28l-11 -76l275 -346l-67 307l-47 88l37 -44l-31 142l2 42q2 43 10 67l2 -29q2 -29 20 -32l5 13q5 14 -15 43l25 -31 q26 -30 62.5 -61t76.5 -47.5t69 12.5l-2 -8q-1 -8 2 -18q0 -1 7 0l8 2q-13 -4 -13 -9q0 -9 20 -21q-50 -4 -68 -50t-19.5 -100t5 -99.5t7.5 -47.5l5 -4l-5 -28q-2 -15 -4 -32q-5 -42 -5.5 -87.5t13.5 -75.5l-3 19q-2 19 -3.5 44.5t0.5 50t11 35.5q-1 1 -2.5 -19t-0.5 -48 t7 -56.5t22 -44.5l4 -7q5 -7 -7 -18l-14 -16q-13 -16 -43 -13h-34q-33 -1 -33 24l-7 23q-6 23 -19 32l-28 30l-60 67q-32 37 -59 72t-27 45l12 -42q12 -42 31.5 -95t44.5 -101t52 -60l2 -30q3 -30 -21 -51l-20 5q-20 4 -45 13.5t-49 25t-33 37.5l-23 39q-23 38 -56 50l16 2 q16 3 37 -3q-8 -5 -32 49l-52 126q-29 72 -60.5 141.5t-54.5 96.5l-23 -7l10 49l-26 36q-26 37 -47 37l13 10q13 10 -5 25l4 8q4 9 -10 30l-7 15z" />
<glyph unicode="O" horiz-adv-x="586" d="M149 699l9 37q8 37 -21 58l31 -24q30 -23 35 -41l10 26q10 26 -7 44l45 -27q44 -27 90 -69t73 -92.5t-9 -98.5l-5 -23q-5 -22 39 -49q59 -47 89.5 -138.5t6.5 -172.5t-115 -124.5t-272 3.5q-152 54 -216.5 149.5t-57 198.5t79.5 197t195 146zM363 461q-146 -63 -204 -117 t-58 -95t43.5 -68t101.5 -35t116 4.5t87 50t15 101.5t-101 159z" />
<glyph unicode="P" horiz-adv-x="460" d="M-270 644q41 -15 85 -2.5t85.5 35.5t79 50.5t66.5 43.5l34 7q34 6 82 7.5t99 -8t85 -40.5l23 -26q22 -27 41.5 -70.5t24 -99.5t-32.5 -116l-11 -22q-12 -22 -41.5 -50t-79.5 -53t-127 -31l58 -247l5 -82l-12 12l-5 -20l-19 16q-19 15 -43 38l-9 32q-10 33 -25 51 l-140 366q-3 8 -24 -1t-39 12l-10 3q-10 3 -26 -3l-2 10q-2 11 10 13l-24 2q-25 3 -50 31h6q6 -1 1 10l-33 29q-32 29 -32 80l6 -5q5 -4 8 -1l-7 11q-7 12 -7 18zM79 582l45 -235l32 19q32 19 67 53.5t58.5 81.5t6.5 103l-22 20q-23 19 -65 8q-1 1 -18 -6l-38 -16l-40 -17 q-20 -9 -26 -11z" />
<glyph unicode="Q" horiz-adv-x="801" d="M150 702l4 38q5 37 -19 58l25 -24q26 -23 31 -41l6 26q7 26 -7 44l36 -27q37 -28 75.5 -70t62 -93t-2.5 -99l-3 -22q-2 -23 34 -51q51 -49 79 -145.5t9 -178.5q85 -57 165 -105.5t98 -51.5l-8 -3q-7 -3 -13 0l11 -5q12 -4 20 -2l-5 -10l15 -10l-35 3q-35 3 -49 -7l-32 -6 q-32 -6 -55 7l-35 30q-35 30 -43 45q-8 16 11.5 -6t36.5 -24l-31 26l-73 62q-31 -50 -97 -69.5t-178 16.5q-123 54 -178.5 150t-55 200t53 198.5t147.5 146.5zM347 152l-58 42q-24 17 -29 15l-26 26l10 3l-16 26l22 -13q22 -12 28 1l32 -22l81 -54q37 33 31.5 102.5 t-92.5 183.5q-140 -79 -175 -143.5t-10 -107.5t86.5 -60t115.5 1z" />
<glyph unicode="R" horiz-adv-x="752" d="M-215 737l10 14q9 15 -6 42l21 -12q20 -12 17 -24l21 42v-18q0 -18 19 -22l40 14q40 15 102 28.5t137.5 17.5t146.5 -17l23 -10q22 -10 52.5 -31t61.5 -53t48 -76l19 -74q18 -73 -29 -167l9 33q8 32 6 50l-5 -25q-6 -25 -18 -56.5t-31.5 -60t-47.5 -35.5l13 10 q13 10 19 29l-21 -25q-22 -26 -48 -26l19 10q19 9 10 22q-6 -3 -33 -17.5t-30 -24.5l41 -68l92 -150l101 -153q49 -72 65 -80l11 -35l15 42l4 -43l11 45l-1 -15q-2 -15 9 -30q21 -30 30.5 -74.5t7.5 -59.5q11 8 16 -10t-32 -24q22 -5 13 -9.5t-35 2t-61 29t-63 70.5l8 -10 q8 -9 16 -10l-12 16q-12 17 -6 35l-25 39l-50 78l-66 98l-73 102q-36 49 -69.5 89.5t-58.5 60t-38 13t-7 -49.5l5 -68l3 26q3 26 12 32l-3 -41q-4 -40 1 -50l9 -12q8 -12 5 -23l-3 -25q-4 -24 -14 -28l-1 17q-1 17 -10 15l-5 -37q-5 -37 2 -49l-18 28q-18 27 -26 75l-3 12 q-3 12 -12 27l-14 6q-14 6 -17 3l6 71q5 70 -12 129l-5 -41q-5 -41 -11 -65l2 18q2 18 2.5 39t-1.5 37.5t-11 14.5l-8 38q-8 37 -15.5 88t-12 102.5t1.5 79.5l-18 -2q-18 -2 -27 -21l-12 -27q-12 -28 -4 -38l-30 13l-9 -23q-9 -22 -2 -37l-10 11q-10 12 -4 33l-16 11 q-16 10 -29 -11l-4 -9q-4 -9 -2 -18l-7 20q-6 21 4 36l-25 -6l12 27l-13 7q-14 7 -34 -20l-4 -10q-4 -11 -5 -17v26q0 26 23 41l-20 1q-21 1 -32 34l-12 45l12 -28q13 -28 38 -16l13 24l-11 17q-11 17 -32 14l13 11q13 12 25 5l-39 66l38 -33l-5 36zM139 647l-13 -53 q-13 -54 -13 -87l11 23q12 23 19 23l-2 -25q-2 -25 -2.5 -56t2 -59t10.5 -34q138 -15 187.5 42t35.5 122.5t-79 107t-156 -3.5z" />
<glyph unicode="S" horiz-adv-x="616" d="M-225 642q15 133 91.5 174.5t162.5 40.5t155 -19t68 -3l-4 43l24 -43l15 41l12 -41q21 3 9 38l-12 35q26 -21 30 -51l3 -31l22 17l4 -31l12 38l9 -56l11 12l5 -31l13 7l-1 -21q9 -7 26 5l16 12q-3 -14 -17 -23l-15 -9l9 -17l15 -10l-9 -8q-9 -8 3 -13q11 -6 20 4l8 9 l-23 -40l36 17q0 -16 -7 -22l-8 -7q15 3 26 -8l10 -12q-8 11 -27 6l-19 -6l21 -8l-17 -9q25 -6 36 -26l11 -21l-13 13q-25 22 -25 8v-15q-5 -45 -65.5 -64t-96.5 47q-14 18 -41 29t-54 18t-47 10l-20 2q10 4 49 2l38 -3q-24 14 -70 18l-46 4q-44 3 -70 -12.5t-39.5 -35.5 t-18.5 -37l-5 -17q-8 -53 1.5 -83t23.5 -44.5t28 -17.5l13 -3q67 -2 162 4.5t181 -13t144.5 -81t52.5 -197.5q-27 -72 -83 -87l-56 -16q-23 -1 -69.5 -1t-92.5 0.5t-80 1.5h-35q8 -10 -5 -33l-14 -24q4 5 -1 30l-6 24q3 -21 -22 -46l-26 -26l-8 46q-22 3 -38 21.5t-26 40.5 t-15 40l-4 17l19 -29q-16 50 -9 85t22 56.5t30 31.5l15 9l1 -18q9 24 48 28l38 3q-15 0 -18 -26l-3 -26l25 11l-2 -52l20 3q-6 -13 19 -25l25 -11q95 -15 128 8l34 23q20 47 13.5 74.5t-22 42t-31.5 18.5l-17 4q-12 3 -68.5 3.5t-120 -1t-114.5 -3.5l-50 -1q-89 7 -132.5 61 t-60 115.5t-15.5 112.5z" />
<glyph unicode="T" horiz-adv-x="426" d="M-434 870l56 -38l-54 87l28 -4l-18 23q-17 22 -13 29l17 -15q17 -16 40.5 -35t49 -35.5t42.5 -18.5l81 -19l180 -40q99 -21 185.5 -37.5t98.5 -12.5l37 -24l21 9l82 -54l2 -6q2 -6 -10 -9l15 -32h-17l13 -23l-5 -11q-5 -12 -21 -12l-26 3l-59 7q-32 3 -62.5 4t-39.5 -3 l27 -50l50 -469l-4 -110l-12 32l-7 -58l-51 112l6 -35l-12 19q-12 20 -26 46l-27 52q-13 26 -14 38l-110 433l-25 -2q-25 -2 -57 -6t-61 -10.5t-37 -16.5l-61 26q-61 25 -88 49l-16 29l-35 66l-39 72q-18 36 -24 50z" />
<glyph unicode="U" horiz-adv-x="573" d="M-117 671l-14 26q-14 26 -25.5 58.5t-11 61t29.5 33.5q21 -2 61 -11t83.5 -36t84 -77t62.5 -133l-23 -17q-23 -16 -40 -52.5t-14 -96.5t54 -147q87 -139 155 -145t96.5 67t7 197t-112.5 247l45 -13l-30 83l80 -70l12 47l39 -99l-1 57q-1 13 11 -6.5t28.5 -62t35 -101 t31 -123t16 -128t-9.5 -115.5t-46 -86.5t-92 -40.5q-149 -3 -232.5 76.5t-132 191.5t-78 228.5t-69.5 186.5z" />
<glyph unicode="V" horiz-adv-x="575" d="M-148 660l-24 37q-25 37 -32 77l-9 16q-9 17 -22 17l17 5q16 5 26 -10l-28 49l49 -29l-31 61l34 -37q33 -36 57 -37l70 -5q70 -6 135 -71l-5 -35l52 6l-30 -22l15 -26q15 -25 -6 -52l-11 -23q-11 -23 15 -74l23 -55q22 -54 54 -120.5t65.5 -125t54.5 -66.5q-4 1 -10 96 t-7.5 209.5t4 211t25.5 100.5l38 3q37 4 70 -4l47 -31q47 -30 60 -106l-3 -39l-23 -17q-23 -17 -50.5 -45.5t-51 -65t-24.5 -76.5l-2 -29q-3 -29 -3 -66.5t4.5 -73.5t19.5 -49l10 -19q9 -19 20 -45t21 -53t10 -43l-6 -25q-6 -24 -42 -39l-19 14q-20 14 -47 30t-56.5 26.5 t-49.5 4.5l7 33l-48 52q-48 53 -113 137.5t-130.5 190.5t-102.5 212l-53 31z" />
<glyph unicode="W" horiz-adv-x="690" d="M218 531q-8 25 -9 39l-6 13q-5 13 -12 15l9 2q10 1 16 -11l-16 41l27 -26q1 1 1 2l-17 45l6 -10q6 -10 15 -22q3 10 9 10l31 -3q32 -4 59 -16l38 -36q39 -37 50 -112l-4 -37l-3 -1q-2 -2 -6 -5q-1 -4 -5 -12l-3 11q-2 10 -3 18.5t0.5 9t9.5 -19.5l13 -44q13 -43 31.5 -96 t38 -100.5t32.5 -55.5q-2 1 -5 73t-3.5 158t3.5 157.5t16 71.5l22 -2q23 -2 43 -11l27 -28q28 -28 35 -86l-2 -28l-44 -39q-44 -38 -46 -98l-2 -22q-2 -21 -2 -48.5t2.5 -54.5t11.5 -39l17 -52q18 -52 18 -76l-4 -16q-3 -17 -24 -25l-39 39q-39 40 -63 36l4 24l-63 101 q-62 101 -116 233q-13 -32 -13 -55l-3 -27q-2 -28 -2.5 -64t3.5 -71.5t16 -50.5l7 -20l17 -47q10 -27 17.5 -54t7.5 -43l-6 -22q-5 -23 -34 -32l-17 17q-16 17 -38.5 36t-47 34t-40.5 12l6 31l-40 58q-39 58 -92 150t-107 204.5t-84 220.5l-44 38l30 -11l-20 40 q-20 39 -26 79l-7 17q-7 17 -19 20l14 2q14 2 23 -14l-23 52l40 -36l-25 64l28 -41q28 -40 47 -44l59 -17q59 -17 111 -89l-5 -33l44 -2l-25 -17l12 -27q12 -26 -5 -49l-10 -21q-9 -21 12 -74l18 -56q19 -56 45 -125.5t53 -131t45 -72.5q-3 1 -6.5 40.5t-5.5 99.5 t-2.5 130.5t4.5 133.5z" />
<glyph unicode="X" horiz-adv-x="861" d="M-302 646l41 -17q41 -18 66 -16l44 -8q45 -9 63 -30l20 -38q21 -39 18 -55q-2 -17 -9.5 9.5t-26.5 35.5q-4 -4 6.5 -29t31.5 -59.5t49.5 -71.5t60.5 -64q11 8 15 12l13 13q9 8 12.5 13.5t8.5 14.5q0 -5 -1 -7v-2q17 6 40 52t44 99t36 97l15 43q16 41 5 60l-11 18 q-21 21 -10 42l11 20l-28 17l46 -4l-8 28q48 51 108 56l61 4q20 0 45 29l26 29l-22 -48l39 23l-19 -39q7 12 22 8l15 -4q-12 0 -18 -13l-6 -13q-3 -33 -20 -62l-17 -29l29 4l-42 -24q-21 -81 -64.5 -161t-89.5 -146t-84 -110l-44 -52l61 -37q-30 -11 16.5 -58t114 -99.5 t128.5 -94.5l62 -42q46 -37 78 -34l33 3q42 12 63 -9l22 -21l41 21l-33 -47l43 -5q21 -38 21 -75.5t-8.5 -67.5t-19.5 -48l-10 -19q-11 -21 14 -62l25 -42l-54 46l9 -53l-43 40q12 -14 -2 -28l-14 -14q6 12 -8 26l-15 13q-43 18 -73 51l-30 32l-12 -33l-9 57 q-86 52 -161.5 124.5t-136.5 145t-105 137t-65 99.5l7 -31l-20 23q-20 22 -36 15l-3 3q-35 -57 -89 -122.5t-127 -107.5l-1 -38l-11 23l-17 -20q-17 -21 -44 -30l-8 -8q-9 -8 -3 -17l-10 10q-11 10 -5 19l-25 -25l1 35l-32 -28l13 27q12 26 3 41l-27 46q-27 45 -6 95l28 1 l-26 33l29 -16l12 13q12 12 42 3l22 -4q22 -5 49 19l56 39q56 38 97 74l18 21l-77 101l-86 108l-76 89t-49 46l11 -1q11 -1 17 -6l-10 9q-11 8 -23 10l15 6z" />
<glyph unicode="Y" horiz-adv-x="522" d="M-279 576l-35 151l43 -21l-5 24l34 -24l-1 41l27 -12q27 -13 63.5 -34.5t75 -51t61.5 -63.5l18 -79l159 -167l23 64q24 64 48 148t37.5 164t-6.5 112l31 -19l-18 35l37 -25q37 -25 79.5 -62t74 -80.5t20.5 -80.5l-41 -70l-20 -52l-46 -116q-26 -63 -50.5 -116.5 t-33.5 -56.5l5 -27q5 -28 12.5 -61t17 -62.5t17.5 -33.5l9 -19q9 -18 15 -41t4 -43.5t-24 -24.5l-27 -2q-26 -2 -59 6t-62 32t-34 77l-6 30l-12 64l-12 65l-6 30l-46 43l-101 98l-106 110q-50 54 -60 77l-35 35q-35 34 -65 38z" />
<glyph unicode="Z" horiz-adv-x="612" d="M-122 478l-29 18q-29 17 -64.5 49t-65 78.5t-29.5 103.5l28 -52l6 36q6 36 -33 85l16 -9q16 -9 38.5 -19t46.5 -15.5t39 0.5l42 -3q42 -3 101 2t124 23t112 60l55 -24q54 -24 130 -124l11 -32q10 -32 -5 -44l-20 -13q-20 -14 -43.5 -37.5t-44 -56t-21.5 -70.5l4 47 q4 47 13 56l-21 -54q-22 -54 -9 -123l88 -70l-10 -3l4 -13l-19 5l13 -20l-89 9l-5 -40q-5 -40 7 -57l22 -22l51 4q51 4 71 64l18 -3q17 -3 44.5 -18t59.5 -46.5t61 -89.5l4 -37q4 -37 -12 -44h-29q-30 -1 -48 29l-61 14q-62 14 -128 -15l-16 -8q-17 -9 -37 -21t-37.5 -25 t-18.5 -21q-3 -16 -25 -21.5t-49.5 -2.5t-54 12.5t-37.5 22.5l4 17q4 16 3 38t-13 47t-44 42l15 14l-24 26l38 -12l-9 18l39 -11l28 9l14 23l29.5 52.5t29.5 62.5t12 51l-30 4q-31 4 -55 26l24 -4l-44 30q-44 29 -48 44l45 -1l-28 32l49 -4l51 -15l30 -17l9 -4q8 -5 21 -3 l10 29l20 67t19 74t4 49l-29 -5q-29 -6 -68 -17.5t-78.5 -30t-60.5 -45.5l-14 -7q-14 -8 3 -31l-30 11q-30 10 -24 21l-2 -37q-1 -36 17 -34z" />
<glyph unicode="`" horiz-adv-x="527" d="M454 552q12 10 18 46l7 35q8 -1 9 -17.5t-0.5 -36.5t-4.5 -36l-2 -17q0 -24 -26 -77l-26 -54q19 14 35 48l16 33q7 -15 -20 -61t-38 -59q-3 -3 32 29.5t48 67.5q-5 -56 -27 -101t-47 -76.5t-45 -48.5l-20 -17q-48 -38 -94 -42l-45 -5q-19 -8 -44 -27t-47.5 -39.5 t-38.5 -36.5l-15 -15q-22 -9 -28.5 0.5t-5.5 23.5t5 27l5 14q-17 16 -4.5 54.5t34.5 78t43 69.5l22 31q27 31 71 30l45 -1q22 10 54.5 39.5t62 60.5t50.5 56z" />
<glyph unicode="a" d="M124 477q9 12 4 30l-4 18q-22 9 -21 38l1 28q9 -14 35 -33l54 -39q28 -19 49 -32l22 -13l11 -53l-21 -14q-5 -105 18.5 -161.5t53 -81.5t55.5 -28l26 -4q22 5 39 25.5t27.5 43t15.5 41.5l6 18q-2 -57 -27 -115l-25 -58l45 49l-12 -86q-18 -30 -46.5 -34.5t-55.5 3 t-47 18.5l-19 11q-52 -58 -107 -46l-54 11q-63 25 -100.5 75.5t-57 101.5t-26.5 90l-6 38q-12 92 12.5 128.5t58.5 43t65 -3.5zM43 293q6 -8 15 -35l10 -28q13 -27 36.5 -36t47 -9.5t40.5 3.5l18 4q-12 2 -23.5 26t-17 52.5t-3 51.5t18.5 25q-19 -7 -33 14l-13 21l-82 -2 q-27 -10 -21 -48z" />
<glyph unicode="b" d="M-244 870l52 -21l-26 66l41 -36q41 -36 65 -36l23 -1q22 -1 50 -8t54 -23t35 -45l-5 -28q-5 -28 -3.5 -75t14 -109t47.5 -129l15 15q15 16 41 33.5t61.5 30.5t77.5 8l30 -3q29 -2 65.5 -19.5t67.5 -56.5t34 -112l-1 -53q-2 -53 -30.5 -117t-97 -117t-203.5 -55l35 28 l-14 -3q-15 -2 -35 3.5t-41 23t-34 57.5l-37 116q-37 115 -87.5 254.5t-102.5 255.5t-81 116l7 13zM237 382q-32 -9 -46 -35.5t-16.5 -58t5 -61.5t19.5 -45q46 -32 89 -15.5t67 54.5t22 85t-45 79q-41 24 -70 21.5t-47.5 -15.5t-27.5 -28l-9 -15q19 26 39 30z" />
<glyph unicode="c" horiz-adv-x="499" d="M347 336q-150 71 -196.5 40t-33 -97t64.5 -134t98 -70q30 -10 63 -2q17 3 34 12l16 8q51 36 64 27l12 -9q7 -21 -8 -40.5t-37 -34t-41 -22.5l-19 -9q-128 -9 -226.5 89t-127 213.5t30 202t244.5 53.5q64 -15 95.5 -47.5t43.5 -65.5t12 -58v-24q-19 -36 -54 -34z" />
<glyph unicode="d" horiz-adv-x="607" d="M200 474q1 18 -9 30l-10 11q8 6 0 45.5t-20.5 84t-24.5 81.5l-11 36q-2 -22 6 -60l8 -38q-10 16 -22.5 54t-23.5 76l-19 68l-7 29q7 -13 55.5 -63.5t126.5 -47.5q59 1 83 -38.5t9 -96.5q-14 0 -9 -43l5 -42q-11 8 -13 23l-2 15q-5 -25 4.5 -84.5t22.5 -121t25 -108.5 l11 -46q-4 -18 23 -46l27 -27l10 4q9 5 6 -11q-3 -17 38 -25l41 -7l-44 -8q14 -20 38 -22l23 -1q-19 -21 -25 -16l-7 5q18 -27 41 -21l23 6q-2 -24 -27 -38l-25 -14q-30 -8 -53.5 2.5t-39.5 26.5t-24 31l-8 15q-67 -77 -130 -95.5t-117 1t-96 69t-66 110t-27.5 123t19 109 t75 67.5t140.5 -2zM99 247q0 6 7 18l7 12q-12 -29 -2 -58l11 -30q-4 17 2 26l6 9q-5 -43 11 -64t37 -29t39 -7h19q16 3 23.5 22.5t9.5 41.5t1 40l-1 18q-6 -4 -13 -12l-7 -9l14 29q-24 96 -64 122l-39 26q13 -9 16 -21l3 -12q-21 26 -41 26h-20q-22 -2 -28 -25.5t-4 -51 t7 -49.5z" />
<glyph unicode="e" horiz-adv-x="467" d="M1 434q7 54 35 81t58 38t54 10.5t24 -1.5l-14 -99q-49 1 -55 -32l-6 -32q47 -21 93 -21h47q-21 54 -50 69l-29 16l14 99q82 -30 114 -75l32 -44q72 -114 62 -161l-9 -47q-17 -25 -27 -21l-9 4q-88 72 -155 70l-66 -1q11 -73 51 -103l40 -30l-8 8q-7 8 2 -3q8 -12 44 -8 l36 4q15 -3 29 11l14 15l-4 -26l27 2l1 -30l40 -2l-6 -20l19 -10l-36 -20h-42l1 -23l22 -12q28 21 58 21h30l13 -13q-22 7 -56 -6l-33 -12l-2 -13h-22l2 -9q-48 -14 -78 -8l-29 7l-2 24l-25 -11q-71 12 -95 56l-23 45l4 21l-20 9q-14 5 -26.5 34.5t-22 62.5t-14.5 60l-5 26 q-2 18 -17 23l-15 5l-5 31q-30 3 -32 28l-2 25q16 4 24 -2l8 -7q11 -13 27 -8z" />
<glyph unicode="f" horiz-adv-x="659" d="M-156 334l56 -10q56 -10 136 24q-12 20 10.5 117.5t71.5 185t121 121t159 -72.5q0 1 8 -24.5t23.5 -56.5t39.5 -55t58 -18l-61 -38h-20q-21 0 -44 3.5t-41.5 10.5t-15.5 21l-11 -21q-12 -21 -22 -47t-13.5 -49.5t12.5 -29.5h62q62 0 92 15l-27 -27q-28 -27 -48 -34l58 -2 q58 -2 180 76l-21 -13l-48 -27l-51.5 -27.5t-31.5 -12.5l3 -6q2 -5 17 -4l-26 -19q-26 -19 -41 -19l-33 -7q-33 -6 -68 -33q-29 -62 -36 -136.5t-11 -147.5t-14 -139t-45 -112l18 14q18 15 27 36l-9 -39q-9 -38 -28 -87.5t-49.5 -94.5t-72.5 -57l-57 -23l35 4q34 4 41 7 l-25 -18q-24 -17 -62.5 -40t-85.5 -45.5t-94 -32.5l-33 -5l-76 -11q-43 -6 -82 -10.5t-50 -3.5l41 8q40 8 80 32l-39 -6q-40 -6 -98 -12t-123 -7.5t-115 7.5l66 21l-174 11l150 30l-37 38l113 14l-28 18l57 15l-72 35l105 19l-36 29l23 -3q22 -2 74 13q26 8 29.5 13.5 t-3 8.5t-16.5 4l-10 1q95 -30 180 -0.5t165 145.5l3 -28q3 -27 -9 -41l28 56q27 57 57 135.5t52 163t11 142.5l-44 -33q-45 -33 -49 -69h-29q-29 0 -78 48l17 -5q17 -5 40 -4l-44 21q-44 21 -47 55l10 -11q10 -11 37 -4l-35 36q-35 36 -33 63l18 -14q17 -14 34 -13z" />
<glyph unicode="g" horiz-adv-x="705" d="M242 613l-8 47q-8 48 -57 75l-18 49q-17 48 15 70l36 -28q36 -29 86.5 -63.5t104.5 -64t89 -31.5l13 -41q14 -41 -26 -70q0 -93 36.5 -234.5t100.5 -266.5q37 -73 47.5 -146t1.5 -135t-32 -108t-53 -65q-2 2 -30 -5.5t-72 -6.5t-99.5 17.5t-111.5 64.5l-28 23 q-28 23 -62.5 59t-66.5 81t-41 89l29 -33q29 -34 45 -31l-26 46q-25 46 -65 106q19 -15 78.5 -58t128.5 -79.5t133 -49.5t93 31q16 73 -11 174.5t-54 173.5q-17 -48 -79.5 -69t-133.5 -16.5t-131.5 34.5t-73.5 86l-20 35q-20 35 -10 62l-20 -33q-19 -32 -4 -78 q-29 57 -39.5 142t17 155t102 103.5t216.5 -11.5zM45 381q0 6 12 15l12 9q-21 -23 -7 -47l15 -23q-6 14 4 21l10 7q-11 -34 13 -50.5t56 -23t61 -5.5h29q54 6 58 51l5 45q-9 -3 -21 -10l-12 -6l24 23q-29 76 -89 97l-59 21q19 -8 24 -17l6 -8q-30 21 -64 20l-33 -1 q-35 -2 -46 -20.5t-11 -40.5t6 -40z" />
<glyph unicode="h" horiz-adv-x="619" d="M-42 818q16 -20 44 -38t56 -31.5t49 -21.5l21 -7l2 -40q-4 9 14 22l18 14q-13 -9 -4 -21l9 -12q56 21 81 7l24 -13l-48 6q-46 -1 -48 -28l-1 -26q1 9 19 14l19 5q-22 -3 -17 -17l5 -13l27 -2q-22 -9 -25 -44.5t2 -73.5t13 -69l8 -30l17 -11q73 92 125 61.5t86.5 -104 t52.5 -150t24 -75.5l44 9q-20 -2 -23 -39l-4 -37q3 30 18 42l14 13q-8 -7 -4.5 -23.5t8 -33t5.5 -28t-11 -7.5q-53 13 -107 -14l-73 91q12 28 4.5 68t-21.5 76.5t-27 61.5l-14 26q-18 4 -26 -26l-8 -29q-18 6 -12 16l6 11q-34 -22 -30 -63t25 -80.5t48 -67.5t39 -25 q-3 -54 -32 -70l-28 -15q1 8 -21 16.5t-49 16t-50 12.5l-22 5q-3 -6 -17.5 22.5t-34.5 79.5l-44 120q-25 69 -48.5 142t-43 145t-32 131.5t-14 100t11.5 51.5z" />
<glyph unicode="i" horiz-adv-x="496" d="M-22 756l-6 9q-6 8 -40 23l-15 16q-16 16 -23 31q2 1 42 -23.5t70 -52.5l-24 25q-25 25 -38 41l15 -14q14 -15 38 -13q27 0 53 -2.5t48 -17.5h35q35 -1 54 6v-14q0 -15 -10 -16l29 4q28 3 23 15l-2 -15q-2 -15 -12 -15l10 -5q9 -6 15 2l-3 -32q-4 -33 -88 -51h3q3 0 9 12 q-79 -18 -134 18.5t-49 68.5zM45 464l2 31q2 31 -43 48l-12 47q-13 47 -7 71l30 -28q29 -28 74 -20l25 -5q25 -5 56.5 -16.5t60.5 -31t37 -47.5v-27q0 -26 2.5 -57.5t7.5 -59t16 -30.5l-15 1q-15 1 -30 21l-13 -49q-13 -48 -3 -104t61 -100t179 -35q-17 7 -67 -2.5t-100 -30 t-82.5 -46t-14.5 -51.5q-18 41 -35.5 98t-30 117t-19.5 115.5t-3 92.5l-12 -29q-13 -30 -4 -59l-23 53q-24 53 -15 76l2 28q2 28 -24 29z" />
<glyph unicode="j" horiz-adv-x="413" d="M154 691q16 -29 -22.5 -62t-116.5 -17q9 -10 12 -11h3q-82 16 -96 45l-14 30q8 -6 15 -2l7 5q-9 0 -16 13l-7 14q0 -11 27 -14l27 -3q-9 1 -14 14l-5 13q20 -6 52 -6l31 1q14 13 36 16t49 2q23 -2 32 11l8 14q-6 -15 -21 -38l-15 -22q18 25 47 47.5t32 21.5 q-3 -14 -11 -29l-8 -14q-27 -13 -30 -21zM-8 548l78 25l50 -18q11 9 -12 18l-23 10q19 3 47 -12l28 -15l-1 17l33 -16l24 38l178 -629l-16 -71l-36 50l-17 -65q-33 -18 -78.5 -24t-87.5 -6t-71 2l-29 3q-14 9 -34 -1l-20 -9q-2 17 20 23l22 6l-69 4l6 20l22 4l-55 37l26 27 q-13 14 -45 7l-33 -7q8 16 45 19l36 3l-75 14l70 11q131 -49 166 1.5t16.5 145.5t-70.5 206t-95 182z" />
<glyph unicode="k" horiz-adv-x="596" d="M-66 741q25 -20 62.5 -37.5t71.5 -31.5l58 -24q23 -10 18 -13q51 -41 35 -88l-16 -48q8 3 0 20l-7 17q-21 -17 -21.5 -49t7.5 -64t18 -55l10 -24q28 12 53.5 55t44.5 90t30 84l12 37q51 -26 75 -59.5t32.5 -63.5t7.5 -50l-1 -21q-17 -15 -53 -30l-36 -16q18 5 26 33l8 27 q-15 2 -31.5 -15t-29.5 -38.5t-22 -39.5l-8 -18q6 -21 43.5 -52t80.5 -60.5t78 -50.5l35 -21q53 -31 48 -77l-4 -46q-8 6 -31.5 11t-49 8.5t-45.5 5.5l-20 2q10 3 8 26l-2 23q-8 5 -35 34l-56 60l-52 57l-23 26q-27 0 -37 -29l-10 -29q-8 -21 6 -40t33.5 -33.5t37.5 -22.5 l18 -8q-24 -16 -6 -19l18 -2l-7 -73q-17 -33 -42 -34.5t-47.5 9.5t-38.5 26l-16 14l-6 30q-37 27 -75.5 136.5t-70 231t-53 219t-23.5 100.5z" />
<glyph unicode="l" horiz-adv-x="352" d="M-43 930l15 -13q16 -14 38 -30t47.5 -30.5t46.5 -15.5l19 -7q19 -7 44 -20t48.5 -31t32.5 -39l3 -23q3 -23 5.5 -53.5t2 -60.5t-6.5 -44q-7 -15 -8 -6.5t-1.5 27t-4 39.5t-15.5 31l11 -97q10 -98 26.5 -215.5t36.5 -217.5t38 -105l1 -60l-22 8l-16 -52l-16 41 q-17 41 -47 31l-10 35l-27 94l-39 134l-47 155l-50 159l-48 142q-23 64 -42 108t-32 56l18 -4q17 -5 23 -17l-11 19q-12 19 -30 25l27 7z" />
<glyph unicode="m" horiz-adv-x="510" d="M-23 404l-9 30q-8 30 -47 50l9 3q9 2 19 4q12 2 12.5 2t-5.5 13q-2 4 -19.5 4.5t-12.5 2.5q8 3 14.5 11.5t-17.5 29.5l60 -17q60 -17 94 -95l25 22q26 21 46 15l24 -1q25 -2 42 -42l12 16q13 15 31 33.5t38 32.5t35 10h16q16 0 37.5 -15t42.5 -52t32 -111l7 -49 q8 -48 14.5 -112.5t7.5 -129.5t-12 -100q-3 -6 -26 -15t-49 -2t-46 39t-17 109l25 80q25 81 -20 223l-28 1q-28 1 -46 -62q9 26 32 35q3 0 -12.5 -74t-9.5 -161q0 10 1 39.5t15 47.5l-5 -37q-5 -38 9 -46l4 -26q5 -27 -30 -55q1 8 -9.5 12t-24.5 19t-26.5 49.5t-14.5 103.5 l-3 50q-3 50 -28 73l-22 -9q-22 -8 -37 -58l5 15q5 15 23 15l-7 -25q-7 -24 -6 -60.5t15.5 -79t58.5 -79.5q1 -68 -26 -73.5t-62 30.5t-67 102.5t-39 143.5l11 29q11 29 -1 56v-17q1 -16 -11 -27l-2 37q-2 37 -20 42z" />
<glyph unicode="n" horiz-adv-x="484" d="M48 26l1 -2q1 -2 11 1l1 31q2 31 -9 79q-8 7 -10 -16t-3 -18q-3 6 -5.5 42.5t0.5 45.5q1 1 -1 3l-30 90q-14 44 -44 112q-3 7 -15.5 24.5t-24.5 12.5l12 40l-14 18l-2 21l24 -4l-28 38l63 -29l50 -2l34 -13q35 -14 50 -79l32 32q32 31 65 25l22 1q22 1 47 -23l19 -15 q19 -16 44.5 -41t50 -56.5t36.5 -62.5l-1 -35q-1 -35 -1 -78t2 -80.5t7 -42.5q4 -37 30 -35l-30 -20l-2 -28l-44 -2l-4 -7q-3 -7 -21 -1l-38 38q-37 37 -38 48v16q1 16 -2 27l13 -10l3 124l24 -67l2 46q3 45 -22 89l-36 48q-35 47 -65 59l-40 3l-16 -26q-15 -27 -14 -125 l17 32l-2 -20q-1 -21 0.5 -47t7 -49.5t20.5 -30.5q-6 -12 27.5 -41t30.5 -44l-14 -26q-14 -27 -40 -42q-26 -14 -22 -7l4 6l-28 29l-1 -19l-7 23q-6 22 -20 25l-10 2q-9 2 -14 -7q-15 8 -34.5 5.5t-34.5 -6.5z" />
<glyph unicode="o" horiz-adv-x="494" d="M-16 300l-10 -14q-10 -15 -7 -25l-5 27q-4 27 -0.5 66t21 81.5t63.5 72.5l14 37q14 37 -13 66l32 -10q32 -11 71 -26.5t72.5 -34.5t36.5 -37l-28 -15q-28 -15 -26 -38l29 -8q28 -9 67 -30.5t79.5 -58.5t65.5 -94l11 -28q11 -28 12.5 -66.5t-16.5 -79t-76 -65.5 q-87 -28 -162.5 -8t-129.5 66.5t-81.5 107.5t-19.5 114zM114 230q0 6 10 17l11 11q-18 -27 -9 -54l10 -27q-4 15 5 24l9 8q-11 -39 6.5 -58.5t43 -27t48.5 -6.5h24q22 3 33.5 21t17 38t6.5 37l1 16q-7 -3 -17 -11l-11 -8l21 27q-18 89 -64 113l-47 24q15 -9 19 -19l4 -10 q-24 24 -51 23l-27 -1q-29 -2 -39 -23.5t-11 -47t3 -45.5z" />
<glyph unicode="p" horiz-adv-x="544" d="M-147 591l84 -43l-5 14q-5 15 -9 33t-3.5 33.5t12.5 18.5l18 -46q19 -46 46 -70q152 79 281 35t185.5 -138.5t17 -203.5t-224.5 -160l-13 -11q-14 -12 -15.5 -40t22 -76.5t97.5 -124.5l9 -75l-161 90l-59 90q-82 122 -93 259.5t-27 263.5l-49 -88q18 69 0 134.5 t-113 104.5zM318 283q-21 90 -62 113l-41 23q13 -9 16 -20l3 -11q-21 24 -44 23l-22 -1q-24 -3 -31.5 -25t-7 -47.5t4.5 -46.5l5 -21q0 6 8 18l8 11q-14 -28 -4 -55l10 -28q-4 16 3 25l7 9q-8 -41 7 -57t35.5 -19t38.5 1l19 4q36 8 44 53l9 44q-6 -4 -15 -12l-8 -9z" />
<glyph unicode="q" horiz-adv-x="957" d="M699 -490l-61 41l16 -86l-13 17q-12 18 -29.5 39t-37.5 40t-35 23l-29 8q-28 9 -62 27t-63.5 45.5t-31.5 64.5l10 26q11 26 23 72q-39 3 -72 2l-32 -1q-23 9 -24 19t6.5 19t17.5 15l11 6q-9 25 28.5 44.5t79.5 31.5q1 88 -24 185l-24 -14q-23 -14 -61.5 -26t-87 -15.5 t-98.5 16.5l-38 12q-37 12 -78.5 44.5t-70.5 89t-13 144.5l16 62q16 62 69 128t155 107t274 -1l-52 -22l18 -2q19 -2 42.5 -15t45.5 -40.5t30 -78.5l5 -55q6 -55 16.5 -141.5t25 -193t32.5 -209.5q6 -4 9 -7l3 -4q24 -7 65.5 -7.5t81 1t68.5 4.5l30 2q15 0 37 19l22 19 q13 -10 -18 -40l-31 -31q-11 -16 -59 -35l-47 -20q24 -2 53 10l29 12q-1 -15 -46 -28t-60 -15q-3 0 41.5 -0.5t72.5 13.5q-48 -55 -117 -65t-99 -9q18 -83 38 -137t41 -60l-12 -13zM217 243q42 0 67.5 26.5t36.5 62.5t9.5 74t-11.5 61q-51 51 -109.5 46t-99.5 -42t-51 -93.5 t38 -106.5q43 -43 80.5 -49.5t65 2.5t42.5 24l16 15q-32 -25 -58 -23z" />
<glyph unicode="r" horiz-adv-x="499" d="M-46 451l-1 20q-1 20 -37 48l5 20l28 -18q28 -18 34 -35l-5 20q-5 20 -27 35l-7 21l52 -34q52 -35 91 -27l45 -11q45 -11 53 -44l5 -25q5 -25 -21 -74l17 -75l39 39q39 38 85 37l18 5l40 10l43 11q20 5 26 5l-40 -16q-40 -16 -52 -36l24 17q24 16 61 15l40 -20 q6 -4 -44.5 -8.5t-64.5 -18.5l41 10q41 9 59 -3l-29 -13q-30 -14 -64 -36t-59 -48.5t-17 -53.5l-1 -70l13 -8q12 -9 18 -36h35l10 -43l-29 -17q-30 -17 -23 -36l-54 24q-54 24 -87 26l1 22l7 -2q8 -3 14 10l-17 23q-17 23 -9 42l-8 -9q-9 -10 -6 -26l-20 38q-19 37 -16 90 l-6 -5q-5 -6 -4 -23l-16 59q-15 59 -34 79l-6 -16q-5 -15 7 -20l-5 -8q-5 -9 1 -12l-27 37q-28 37 -25 108l-8 20l-11 -13q-8 -10 -9.5 19t-22.5 30z" />
<glyph unicode="s" horiz-adv-x="561" d="M187 534l54 -37q-8 9 -1 31l8 22q9 -38 36 -37h27q11 -16 20 -38l9 -22q8 4 4 24l-5 20q20 -29 28 -59l8 -31q11 5 5 24l-5 19q23 -30 33 -73l10 -44l-32 -7l-118 26q-56 81 -102 92.5t-63 -10.5t4 -59t101 -52q50 -6 111 -29t111 -58.5t77.5 -80.5t10.5 -93 q-2 -27 -25 -41t-49.5 -19.5t-48.5 -5.5l-21 -1q-56 0 -104.5 19.5t-84.5 43t-57 43.5l-20 20l-22 22l12 3l-27 25l34 -9q-30 15 -43 47l-13 31q3 -18 33 -35l30 -17q-7 12 -10 30l-3 18q45 -49 82.5 -67t65.5 -20t43 5l16 6q30 33 7 54.5t-67 36t-93 25t-70 21.5 q-67 31 -94 65.5t-33 63.5t0 49l5 19q36 39 75 50.5t72.5 9t55.5 -11.5z" />
<glyph unicode="t" horiz-adv-x="383" d="M-165 654l43 -29q43 -30 136 -22l-12 31q-13 31 -27 69.5t-23 73t-3 40.5l28 -16q27 -16 63.5 -34t71.5 -31t50 -8l19 -19q19 -20 -8 -52l-2 -20q-2 -21 10 -27q18 7 49 7t60.5 -8.5t50.5 -26t21 -45.5q3 -30 -19 -26.5t-50 12.5t-53 9t-28 -36v-48q-1 -48 1 -116t8 -142 t19 -126l-17 -32q-17 -32 -44 -50l-19 77l-42 170q-22 93 -39 174.5t-12 92.5l-31 2q-31 2 -55 -23q-81 3 -119 68t-27 111z" />
<glyph unicode="u" horiz-adv-x="528" d="M-103 542q-1 2 17 -5t51 -8l38 -20q38 -20 52 -41l26 -6q26 -7 50 -22q8 -6 -1.5 -11t-6.5 -12l5 -35q5 -35 -13 -39l2 -119l14 -46q15 -46 59 -76l21 -16l2 18l5 -5q5 -5 18 -2l18 9q18 8 24 35l-13 122l8 34l-15 -40l-1 23q-1 22 -3 49t-5 50t-6 25l4 -23q4 -24 -2 -30 l-11 40q-10 40 -43 73l-2 8q-2 7 0 15q1 6 1 1l-1 -6l7 -10q8 -10 23 -11l47 -2q47 -3 65 1l19 -14q19 -15 16 -52l-2 -32q-2 -31 -3 -69.5t0 -72t7 -37.5v11q1 11 6 24l3 -17q4 -17 10.5 -38t15 -38.5t20.5 -17.5l22 -7q23 -6 38 12l-7 -12q-6 -11 -15 -14l6 -5q7 -5 13 4 l6 13l12 7l-9 -18q-9 -18 -4 -27h5q5 0 9 5t-1 -11.5t-23 -6.5l2 -22q2 -22 -16 -22l-50 7l-11 6q-11 5 -32 32l-27 -46q-27 -45 -62 -44l-61 9l-55 27q-54 26 -82 71l32 -7l-40 21q-40 21 -56 109l-6 32q-6 31 -1 49l-10 -37l-2 20q-2 19 -3.5 44.5t-2 50t3.5 33.5l-8 -12 q-8 -12 -5 -16l-5 44q-5 44 -34 61l-7 68l13 -62l-17 60l-39 17z" />
<glyph unicode="v" horiz-adv-x="493" d="M-27 427l-18 24q-19 24 -25 51l-7 11q-7 10 -17 10l12 4q12 3 19 -6l-21 32l36 -18l-25 40l26 -23q25 -23 41 -23l51 -1q50 -2 98 -43l-3 -24l37 6l-20 -16l12 -16q11 -17 -3 -35l-7 -16q-7 -17 13 -50l18 -36q18 -36 42.5 -79.5t50.5 -81.5t42 -42q-3 0 -10.5 64 t-13 140.5t-4.5 141.5t15 68l27 4q26 3 50 -1l35 -18q34 -19 46 -70l-1 -26l-16 -12q-16 -13 -34.5 -32.5t-34 -45t-14.5 -52.5l-1 -20q-1 -19 0.5 -44t6.5 -49t16 -32l24 -43q23 -42 25 -63l-4 -16q-4 -16 -28 -28l-48 27q-49 26 -77 17l3 23l-36 34q-37 33 -86 87.5 t-99.5 123t-78.5 138.5l-39 19z" />
<glyph unicode="w" horiz-adv-x="517" d="M231 354l60 -92l55 -90l39 -68q15 -27 14 -27q9 6 4 46t-14.5 85t-18.5 82l-9 37q-8 34 -24 50l-16 15q-25 17 -27 34l-1 17l-27 14l34 -2l-18 23q10 45 50 50l41 6q13 1 18 26l5 26l7 -41l17 21l4 -34q0 10 12 8l12 -3q-9 -1 -7 -12l2 -11q13 -27 14 -52l1 -26l19 5 l-18 -23q23 -72 28.5 -144t2.5 -130t-9 -94l-6 -36l18 -21q-30 7 -51 -24l-20 -31q-28 9 -42 25l-14 16q-14 21 -23 65l-9 43q3 9 -9.5 33t-28.5 48l-30 44l-13 20q-13 20 -35 39q13 -85 8 -149l-5 -64l14 -17q-22 5 -36 -18l-13 -23q-21 6 -32 18l-10 12q-11 17 -19 51 l-8 34q1 7 -8.5 25t-21.5 37.5t-23 34.5l-10 15q-28 41 -79 71l-51 31l-15 20q-19 39 -9 56l10 17q12 4 28 3h17q10 -2 44 -52l71 -108l66 -109q29 -49 28 -49q6 4 0.5 35t-13.5 66t-16 64l-8 28q-6 27 3 6l9 -20q-4 3 -10 9q-5 2 -7 3l-3 2l-18 25q-25 51 -10 73l15 21 q16 6 40 5l25 -1q2 0 11 -7l2 14l1 6l6 -30h1v-1l11 15l4 -26q-1 8 8 6l9 -2q-6 0 -4 -9l1 -9q6 -11 10 -26z" />
<glyph unicode="x" horiz-adv-x="577" d="M-109 386l22 -10q22 -9 34 -8l23 -5q22 -4 32 -16l14 -21q13 -21 14 -30q0 -9 -6.5 5.5t-15.5 19.5q-5 -4 26 -49t69 -74l6 6l5 7q4 7 7 16q0 -3 1 -4v-1q7 3 14 28.5t12.5 54.5t8.5 53l3 24q3 22 -4 32l-7 11q-12 12 -8 22l3 11l-15 10l22 -2l-6 15q18 28 48 30l29 3 q9 0 19 16l10 16l-6 -26l17 12l-6 -21q3 6 11 4l7 -2q-6 0 -7 -7l-2 -7q2 -18 -4 -34l-6 -16l15 2l-19 -14q-4 -88 -45.5 -168t-47.5 -89l34 -20q-14 -6 13.5 -32t65.5 -55t73 -52l34 -22q26 -21 42 -19l16 2q19 6 32 -6l12 -11l18 12l-11 -26l21 -3q28 -42 20 -79l-8 -36 q-3 -12 14 -35l16 -22l-32 25l10 -29l-25 22q7 -7 2 -15l-6 -8q2 7 -6 14l-8 7q-24 10 -42 28l-18 18l-2 -19l-10 32q-94 57 -172.5 147.5t-106.5 129.5l6 -17l-12 12q-12 13 -19 9l-1 2q-12 -31 -33 -67.5t-52 -59.5l4 -20l-8 13l-6 -11q-7 -11 -18 -17l-3 -4q-3 -4 0 -9 l-6 5q-7 6 -4 10l-10 -13l-3 19l-13 -15l4 14q3 15 -3 22l-17 25q-18 26 -13 53l14 1l-17 18l17 -9l5 7q5 7 20 1l11 -2q11 -2 22 11l23 21q23 21 40 41l7 12l-101 114q-58 66 -73 74l6 -1q6 0 9 -2l-6 5q-7 4 -13 5l7 3z" />
<glyph unicode="y" horiz-adv-x="446" d="M-166 380q-21 1 -33 23.5t-15.5 50t1.5 51.5t18 28l154 -32l213 -291l13 -32l22 -8l6 30l12 69q7 39 12 77.5t4 56.5l-15 21q-14 21 -26.5 48.5t-14.5 53.5t23 36l33 -32l72 -73q39 -41 73.5 -81t38.5 -56l-27 -54q-28 -54 -56 -124t-42.5 -136t11.5 -91l20 -40 q20 -40 37 -88t18.5 -87t-35.5 -36l-47 20q-47 21 -96.5 54t-81 75.5t-0.5 87.5l25 9q25 8 47 8l8 96q-5 -6 -54 38t-110 106l-122 125q-59 64 -86 97z" />
<glyph unicode="z" horiz-adv-x="386" d="M-90 319l-19 11q-18 11 -41.5 31t-43 49.5t-21.5 65.5l19 -32l3 22q3 23 -23 54l35 -18q36 -17 55 -9l26 -2q27 -2 64.5 1t78 14.5t69.5 38.5l35 -16q35 -15 86 -78l7 -21q8 -20 -1 -27l-39 -32q-39 -32 -39 -81l1 30q1 30 7 36l-7 -18q-8 -17 -10 -44l-3 -24 q-3 -24 -5.5 -53.5t-2 -55.5t6.5 -30q1 -3 3 -7l15 -14l32 2q32 2 44 41l40 -13q40 -13 79 -87l3 -24q4 -24 -5 -28h-19q-19 0 -31 20l-40 8q-39 9 -80 -9l-33 -19q-33 -18 -35 -29q-3 -20 -46.5 -14.5t-58.5 22.5l4 34q3 35 -39 57l10 8l-17 17l26 -8l-7 12l24 -7l9 3l24 2 q30 31 47.5 119.5t24.5 146.5q8 36 5 49l-61 -15q-61 -14 -87 -47l-8 -5q-9 -5 2 -19l-19 6q-19 7 -16 14v-23q0 -23 11 -22z" />
<glyph unicode="&#xa1;" horiz-adv-x="668" d="M376 1061q7 4 10 24l2 21q9 -3 7 -34l-2 -31q1 -15 -12 -44l-13 -28q11 6 19 24l8 18q5 -11 -9.5 -34.5t-20.5 -29.5q-1 -2 18.5 12.5t26.5 33.5q0 -67 -37 -97l-37 -29q-27 -16 -55 -11l-28 4q-22 -3 -53 -26l-30 -23q-26 -4 -22 19l5 24q-12 12 -6 33.5t17.5 42 t23.5 36.5l12 15q15 15 42 7l28 -7q26 6 66 43zM103 -37q-1 -12 -12 -16l-12 -4q19 7 14 16l-6 8q-15 12 -50 11l-35 -1q-39 10 -48 47l-10 37q-13 -3 -27 16l-14 18q5 -9 17 -5l13 4q-12 0 -17 17l-5 16q4 -13 22 -11l17 2q3 9 -6 19l-9 9q15 -8 25 -3l9 5q26 41 12 83 l-14 41q15 64 19 147t3 157t-4 125l-3 51q-39 44 -30 53l8 9q0 -9 5 -14l4 -4q14 3 24 -9l10 -12q0 15 -12 36l-13 21l49 -48q-7 19 7 28l13 9q8 -40 43 -52l35 -12q21 25 31 23l10 -3q-21 4 -28 -15l-6 -19l21 4q7 -34 40 -34l32 1q-15 -6 -9 -19l5 -12q13 6 22 -4l9 -10 q-14 12 -19 5t-5.5 -20.5t1.5 -26.5l2 -13q2 12 12 11h9q-17 -2 -12 -16t12 -2q4 -30 50.5 -96t101.5 -133l100 -118l45 -51l29 -4q-12 -39 -5 -55l7 -15q-6 3 -1 29l5 27q0 -31 27 -68l26 -37l-4 -37q-13 0 -6 -30l6 -30l-57 -8q-72 23 -108 79l-36 57q9 -9 18 -4l9 5 q-35 124 -85 159l-51 35q27 -11 52 -45l24 -34q-63 32 -136.5 51.5t-85.5 5.5q-22 -12 -26.5 7t0.5 28q-61 -70 -64 -147l-3 -77q-8 47 17 104l24 58q-15 -33 -9.5 -75.5t12.5 -75.5q2 -12 -2 -33t-1 -29q3 -10 10 1l7 12l-10 -57q-17 -3 -23 -23zM135 418l-1 -11l16 5l6 -7 q22 0 52 -10.5t57 -23.5t46 -23l19 -10q-10 22 -34 54t-49 62l-44 50l-19 22q6 -36 -21 -72z" />
<glyph unicode="&#xa5;" horiz-adv-x="750" d="M103 -37q-1 -12 -13 -16l-11 -4q19 7 13 16l-5 8q-15 12 -50 11l-35 -1q-39 10 -48 47l-10 37q-13 -3 -27 16l-14 18q5 -9 17 -5l13 4q-12 0 -17 17l-5 16q4 -13 21 -11l18 2q3 9 -6 19l-9 9q15 -8 25 -3l9 5q26 41 12 83l-14 41q15 64 19 147t3 157t-4 125l-3 51 q-39 44 -30 53l8 9q0 -9 4 -13l5 -5q14 3 24 -9l10 -12q0 15 -13 36l-12 21l49 -48q-7 19 7 28l13 9q8 -40 43 -52l35 -12q21 25 31 23l10 -3q-21 4 -28 -15l-6 -19l21 4q7 -34 39 -33h33q-15 -6 -9 -18l5 -13q13 6 22 -4l9 -10q-14 12 -19 5t-5.5 -20.5t1.5 -26.5l2 -13 q2 12 12 12l9 -1q-17 -2 -12 -16t12 -2q4 -30 50.5 -96t101.5 -133l100 -118l45 -51l29 -4q-12 -39 -5 -54l7 -16q-6 3 -1 30l5 26q0 -31 27 -68l26 -37l-4 -37q-13 0 -7 -30l7 -30l-57 -8q-72 23 -108 80l-36 56q9 -9 18 -4l9 5q-35 124 -85 159l-51 35q27 -11 51 -45 l25 -34q-63 32 -136.5 51.5t-85.5 5.5q-22 -12 -26.5 7t0.5 28q-61 -70 -64 -147l-3 -77q-8 47 16 105l25 57q-15 -33 -9.5 -75.5t12.5 -75.5q2 -12 -2 -33t-1 -29q3 -10 10 2l7 11l-10 -57q-17 -3 -23 -23zM135 418l-1 -11l16 5l6 -7q22 0 52 -10.5t57 -23.5t46 -23l19 -10 q-10 22 -34 54t-49 62l-44 51l-19 21q6 -36 -21 -72z" />
<glyph unicode="&#xe01e;" horiz-adv-x="750" d="M103 -37q-1 -12 -13 -16l-11 -4q19 7 13 16l-5 8q-15 12 -50 11l-35 -1q-39 10 -48 47l-10 37q-13 -3 -27 16l-14 18q5 -9 17 -5l13 4q-12 0 -17 17l-5 16q4 -13 21 -11l18 2q3 9 -6 19l-9 9q15 -8 25 -3l9 5q26 41 12 83l-14 41q15 64 19 147t3 157t-4 125l-3 51 q-39 44 -30 53l8 9q0 -9 4 -13l5 -5q14 3 24 -9l10 -12q0 15 -13 36l-12 21l49 -48q-7 19 7 28l13 9q8 -40 43 -52l35 -12q21 25 31 23l10 -3q-21 4 -28 -15l-6 -19l21 4q7 -34 39 -33h33q-15 -6 -9 -18l5 -13q13 6 22 -4l9 -10q-14 12 -19 5t-5.5 -20.5t1.5 -26.5l2 -13 q2 12 12 12l9 -1q-17 -2 -12 -16t12 -2q4 -30 50.5 -96t101.5 -133l100 -118l45 -51l29 -4q-12 -39 -5 -54l7 -16q-6 3 -1 30l5 26q0 -31 27 -68l26 -37l-4 -37q-13 0 -7 -30l7 -30l-57 -8q-72 23 -108 80l-36 56q9 -9 18 -4l9 5q-35 124 -85 159l-51 35q27 -11 51 -45 l25 -34q-63 32 -136.5 51.5t-85.5 5.5q-22 -12 -26.5 7t0.5 28q-61 -70 -64 -147l-3 -77q-8 47 16 105l25 57q-15 -33 -9.5 -75.5t12.5 -75.5q2 -12 -2 -33t-1 -29q3 -10 10 2l7 11l-10 -57q-17 -3 -23 -23zM135 418l-1 -11l16 5l6 -7q22 0 52 -10.5t57 -23.5t46 -23l19 -10 q-10 22 -34 54t-49 62l-44 51l-19 21q6 -36 -21 -72z" />
<glyph unicode="&#x25ca;" horiz-adv-x="750" d="M103 -37q-1 -12 -13 -16l-11 -4q19 7 13 16l-5 8q-15 12 -50 11l-35 -1q-39 10 -48 47l-10 37q-13 -3 -27 16l-14 18q5 -9 17 -5l13 4q-12 0 -17 17l-5 16q4 -13 21 -11l18 2q3 9 -6 19l-9 9q15 -8 25 -3l9 5q26 41 12 83l-14 41q15 64 19 147t3 157t-4 125l-3 51 q-39 44 -30 53l8 9q0 -9 4 -13l5 -5q14 3 24 -9l10 -12q0 15 -13 36l-12 21l49 -48q-7 19 7 28l13 9q8 -40 43 -52l35 -12q21 25 31 23l10 -3q-21 4 -28 -15l-6 -19l21 4q7 -34 39 -33h33q-15 -6 -9 -18l5 -13q13 6 22 -4l9 -10q-14 12 -19 5t-5.5 -20.5t1.5 -26.5l2 -13 q2 12 12 12l9 -1q-17 -2 -12 -16t12 -2q4 -30 50.5 -96t101.5 -133l100 -118l45 -51l29 -4q-12 -39 -5 -54l7 -16q-6 3 -1 30l5 26q0 -31 27 -68l26 -37l-4 -37q-13 0 -7 -30l7 -30l-57 -8q-72 23 -108 80l-36 56q9 -9 18 -4l9 5q-35 124 -85 159l-51 35q27 -11 51 -45 l25 -34q-63 32 -136.5 51.5t-85.5 5.5q-22 -12 -26.5 7t0.5 28q-61 -70 -64 -147l-3 -77q-8 47 16 105l25 57q-15 -33 -9.5 -75.5t12.5 -75.5q2 -12 -2 -33t-1 -29q3 -10 10 2l7 11l-10 -57q-17 -3 -23 -23zM135 418l-1 -11l16 5l6 -7q22 0 52 -10.5t57 -23.5t46 -23l19 -10 q-10 22 -34 54t-49 62l-44 51l-19 21q6 -36 -21 -72z" />
<glyph unicode="&#x2260;" horiz-adv-x="750" d="M103 -37q-1 -12 -13 -16l-11 -4q19 7 13 16l-5 8q-15 12 -50 11l-35 -1q-39 10 -48 47l-10 37q-13 -3 -27 16l-14 18q5 -9 17 -5l13 4q-12 0 -17 17l-5 16q4 -13 21 -11l18 2q3 9 -6 19l-9 9q15 -8 25 -3l9 5q26 41 12 83l-14 41q15 64 19 147t3 157t-4 125l-3 51 q-39 44 -30 53l8 9q0 -9 4 -13l5 -5q14 3 24 -9l10 -12q0 15 -13 36l-12 21l49 -48q-7 19 7 28l13 9q8 -40 43 -52l35 -12q21 25 31 23l10 -3q-21 4 -28 -15l-6 -19l21 4q7 -34 39 -33h33q-15 -6 -9 -18l5 -13q13 6 22 -4l9 -10q-14 12 -19 5t-5.5 -20.5t1.5 -26.5l2 -13 q2 12 12 12l9 -1q-17 -2 -12 -16t12 -2q4 -30 50.5 -96t101.5 -133l100 -118l45 -51l29 -4q-12 -39 -5 -54l7 -16q-6 3 -1 30l5 26q0 -31 27 -68l26 -37l-4 -37q-13 0 -7 -30l7 -30l-57 -8q-72 23 -108 80l-36 56q9 -9 18 -4l9 5q-35 124 -85 159l-51 35q27 -11 51 -45 l25 -34q-63 32 -136.5 51.5t-85.5 5.5q-22 -12 -26.5 7t0.5 28q-61 -70 -64 -147l-3 -77q-8 47 16 105l25 57q-15 -33 -9.5 -75.5t12.5 -75.5q2 -12 -2 -33t-1 -29q3 -10 10 2l7 11l-10 -57q-17 -3 -23 -23zM135 418l-1 -11l16 5l6 -7q22 0 52 -10.5t57 -23.5t46 -23l19 -10 q-10 22 -34 54t-49 62l-44 51l-19 21q6 -36 -21 -72z" />
<glyph unicode="&#x2248;" horiz-adv-x="750" d="M103 -37q-1 -12 -13 -16l-11 -4q19 7 13 16l-5 8q-15 12 -50 11l-35 -1q-39 10 -48 47l-10 37q-13 -3 -27 16l-14 18q5 -9 17 -5l13 4q-12 0 -17 17l-5 16q4 -13 21 -11l18 2q3 9 -6 19l-9 9q15 -8 25 -3l9 5q26 41 12 83l-14 41q15 64 19 147t3 157t-4 125l-3 51 q-39 44 -30 53l8 9q0 -9 4 -13l5 -5q14 3 24 -9l10 -12q0 15 -13 36l-12 21l49 -48q-7 19 7 28l13 9q8 -40 43 -52l35 -12q21 25 31 23l10 -3q-21 4 -28 -15l-6 -19l21 4q7 -34 39 -33h33q-15 -6 -9 -18l5 -13q13 6 22 -4l9 -10q-14 12 -19 5t-5.5 -20.5t1.5 -26.5l2 -13 q2 12 12 12l9 -1q-17 -2 -12 -16t12 -2q4 -30 50.5 -96t101.5 -133l100 -118l45 -51l29 -4q-12 -39 -5 -54l7 -16q-6 3 -1 30l5 26q0 -31 27 -68l26 -37l-4 -37q-13 0 -7 -30l7 -30l-57 -8q-72 23 -108 80l-36 56q9 -9 18 -4l9 5q-35 124 -85 159l-51 35q27 -11 51 -45 l25 -34q-63 32 -136.5 51.5t-85.5 5.5q-22 -12 -26.5 7t0.5 28q-61 -70 -64 -147l-3 -77q-8 47 16 105l25 57q-15 -33 -9.5 -75.5t12.5 -75.5q2 -12 -2 -33t-1 -29q3 -10 10 2l7 11l-10 -57q-17 -3 -23 -23zM135 418l-1 -11l16 5l6 -7q22 0 52 -10.5t57 -23.5t46 -23l19 -10 q-10 22 -34 54t-49 62l-44 51l-19 21q6 -36 -21 -72z" />
<glyph unicode="&#x222b;" horiz-adv-x="750" d="M103 -37q-1 -12 -13 -16l-11 -4q19 7 13 16l-5 8q-15 12 -50 11l-35 -1q-39 10 -48 47l-10 37q-13 -3 -27 16l-14 18q5 -9 17 -5l13 4q-12 0 -17 17l-5 16q4 -13 21 -11l18 2q3 9 -6 19l-9 9q15 -8 25 -3l9 5q26 41 12 83l-14 41q15 64 19 147t3 157t-4 125l-3 51 q-39 44 -30 53l8 9q0 -9 4 -13l5 -5q14 3 24 -9l10 -12q0 15 -13 36l-12 21l49 -48q-7 19 7 28l13 9q8 -40 43 -52l35 -12q21 25 31 23l10 -3q-21 4 -28 -15l-6 -19l21 4q7 -34 39 -33h33q-15 -6 -9 -18l5 -13q13 6 22 -4l9 -10q-14 12 -19 5t-5.5 -20.5t1.5 -26.5l2 -13 q2 12 12 12l9 -1q-17 -2 -12 -16t12 -2q4 -30 50.5 -96t101.5 -133l100 -118l45 -51l29 -4q-12 -39 -5 -54l7 -16q-6 3 -1 30l5 26q0 -31 27 -68l26 -37l-4 -37q-13 0 -7 -30l7 -30l-57 -8q-72 23 -108 80l-36 56q9 -9 18 -4l9 5q-35 124 -85 159l-51 35q27 -11 51 -45 l25 -34q-63 32 -136.5 51.5t-85.5 5.5q-22 -12 -26.5 7t0.5 28q-61 -70 -64 -147l-3 -77q-8 47 16 105l25 57q-15 -33 -9.5 -75.5t12.5 -75.5q2 -12 -2 -33t-1 -29q3 -10 10 2l7 11l-10 -57q-17 -3 -23 -23zM135 418l-1 -11l16 5l6 -7q22 0 52 -10.5t57 -23.5t46 -23l19 -10 q-10 22 -34 54t-49 62l-44 51l-19 21q6 -36 -21 -72z" />
<glyph unicode="&#x221e;" horiz-adv-x="750" d="M103 -37q-1 -12 -13 -16l-11 -4q19 7 13 16l-5 8q-15 12 -50 11l-35 -1q-39 10 -48 47l-10 37q-13 -3 -27 16l-14 18q5 -9 17 -5l13 4q-12 0 -17 17l-5 16q4 -13 21 -11l18 2q3 9 -6 19l-9 9q15 -8 25 -3l9 5q26 41 12 83l-14 41q15 64 19 147t3 157t-4 125l-3 51 q-39 44 -30 53l8 9q0 -9 4 -13l5 -5q14 3 24 -9l10 -12q0 15 -13 36l-12 21l49 -48q-7 19 7 28l13 9q8 -40 43 -52l35 -12q21 25 31 23l10 -3q-21 4 -28 -15l-6 -19l21 4q7 -34 39 -33h33q-15 -6 -9 -18l5 -13q13 6 22 -4l9 -10q-14 12 -19 5t-5.5 -20.5t1.5 -26.5l2 -13 q2 12 12 12l9 -1q-17 -2 -12 -16t12 -2q4 -30 50.5 -96t101.5 -133l100 -118l45 -51l29 -4q-12 -39 -5 -54l7 -16q-6 3 -1 30l5 26q0 -31 27 -68l26 -37l-4 -37q-13 0 -7 -30l7 -30l-57 -8q-72 23 -108 80l-36 56q9 -9 18 -4l9 5q-35 124 -85 159l-51 35q27 -11 51 -45 l25 -34q-63 32 -136.5 51.5t-85.5 5.5q-22 -12 -26.5 7t0.5 28q-61 -70 -64 -147l-3 -77q-8 47 16 105l25 57q-15 -33 -9.5 -75.5t12.5 -75.5q2 -12 -2 -33t-1 -29q3 -10 10 2l7 11l-10 -57q-17 -3 -23 -23zM135 418l-1 -11l16 5l6 -7q22 0 52 -10.5t57 -23.5t46 -23l19 -10 q-10 22 -34 54t-49 62l-44 51l-19 21q6 -36 -21 -72z" />
<glyph unicode="&#x221a;" horiz-adv-x="750" d="M103 -37q-1 -12 -13 -16l-11 -4q19 7 13 16l-5 8q-15 12 -50 11l-35 -1q-39 10 -48 47l-10 37q-13 -3 -27 16l-14 18q5 -9 17 -5l13 4q-12 0 -17 17l-5 16q4 -13 21 -11l18 2q3 9 -6 19l-9 9q15 -8 25 -3l9 5q26 41 12 83l-14 41q15 64 19 147t3 157t-4 125l-3 51 q-39 44 -30 53l8 9q0 -9 4 -13l5 -5q14 3 24 -9l10 -12q0 15 -13 36l-12 21l49 -48q-7 19 7 28l13 9q8 -40 43 -52l35 -12q21 25 31 23l10 -3q-21 4 -28 -15l-6 -19l21 4q7 -34 39 -33h33q-15 -6 -9 -18l5 -13q13 6 22 -4l9 -10q-14 12 -19 5t-5.5 -20.5t1.5 -26.5l2 -13 q2 12 12 12l9 -1q-17 -2 -12 -16t12 -2q4 -30 50.5 -96t101.5 -133l100 -118l45 -51l29 -4q-12 -39 -5 -54l7 -16q-6 3 -1 30l5 26q0 -31 27 -68l26 -37l-4 -37q-13 0 -7 -30l7 -30l-57 -8q-72 23 -108 80l-36 56q9 -9 18 -4l9 5q-35 124 -85 159l-51 35q27 -11 51 -45 l25 -34q-63 32 -136.5 51.5t-85.5 5.5q-22 -12 -26.5 7t0.5 28q-61 -70 -64 -147l-3 -77q-8 47 16 105l25 57q-15 -33 -9.5 -75.5t12.5 -75.5q2 -12 -2 -33t-1 -29q3 -10 10 2l7 11l-10 -57q-17 -3 -23 -23zM135 418l-1 -11l16 5l6 -7q22 0 52 -10.5t57 -23.5t46 -23l19 -10 q-10 22 -34 54t-49 62l-44 51l-19 21q6 -36 -21 -72z" />
<glyph unicode="&#x2211;" horiz-adv-x="750" d="M103 -37q-1 -12 -13 -16l-11 -4q19 7 13 16l-5 8q-15 12 -50 11l-35 -1q-39 10 -48 47l-10 37q-13 -3 -27 16l-14 18q5 -9 17 -5l13 4q-12 0 -17 17l-5 16q4 -13 21 -11l18 2q3 9 -6 19l-9 9q15 -8 25 -3l9 5q26 41 12 83l-14 41q15 64 19 147t3 157t-4 125l-3 51 q-39 44 -30 53l8 9q0 -9 4 -13l5 -5q14 3 24 -9l10 -12q0 15 -13 36l-12 21l49 -48q-7 19 7 28l13 9q8 -40 43 -52l35 -12q21 25 31 23l10 -3q-21 4 -28 -15l-6 -19l21 4q7 -34 39 -33h33q-15 -6 -9 -18l5 -13q13 6 22 -4l9 -10q-14 12 -19 5t-5.5 -20.5t1.5 -26.5l2 -13 q2 12 12 12l9 -1q-17 -2 -12 -16t12 -2q4 -30 50.5 -96t101.5 -133l100 -118l45 -51l29 -4q-12 -39 -5 -54l7 -16q-6 3 -1 30l5 26q0 -31 27 -68l26 -37l-4 -37q-13 0 -7 -30l7 -30l-57 -8q-72 23 -108 80l-36 56q9 -9 18 -4l9 5q-35 124 -85 159l-51 35q27 -11 51 -45 l25 -34q-63 32 -136.5 51.5t-85.5 5.5q-22 -12 -26.5 7t0.5 28q-61 -70 -64 -147l-3 -77q-8 47 16 105l25 57q-15 -33 -9.5 -75.5t12.5 -75.5q2 -12 -2 -33t-1 -29q3 -10 10 2l7 11l-10 -57q-17 -3 -23 -23zM135 418l-1 -11l16 5l6 -7q22 0 52 -10.5t57 -23.5t46 -23l19 -10 q-10 22 -34 54t-49 62l-44 51l-19 21q6 -36 -21 -72z" />
<glyph unicode="&#x220f;" horiz-adv-x="750" d="M103 -37q-1 -12 -13 -16l-11 -4q19 7 13 16l-5 8q-15 12 -50 11l-35 -1q-39 10 -48 47l-10 37q-13 -3 -27 16l-14 18q5 -9 17 -5l13 4q-12 0 -17 17l-5 16q4 -13 21 -11l18 2q3 9 -6 19l-9 9q15 -8 25 -3l9 5q26 41 12 83l-14 41q15 64 19 147t3 157t-4 125l-3 51 q-39 44 -30 53l8 9q0 -9 4 -13l5 -5q14 3 24 -9l10 -12q0 15 -13 36l-12 21l49 -48q-7 19 7 28l13 9q8 -40 43 -52l35 -12q21 25 31 23l10 -3q-21 4 -28 -15l-6 -19l21 4q7 -34 39 -33h33q-15 -6 -9 -18l5 -13q13 6 22 -4l9 -10q-14 12 -19 5t-5.5 -20.5t1.5 -26.5l2 -13 q2 12 12 12l9 -1q-17 -2 -12 -16t12 -2q4 -30 50.5 -96t101.5 -133l100 -118l45 -51l29 -4q-12 -39 -5 -54l7 -16q-6 3 -1 30l5 26q0 -31 27 -68l26 -37l-4 -37q-13 0 -7 -30l7 -30l-57 -8q-72 23 -108 80l-36 56q9 -9 18 -4l9 5q-35 124 -85 159l-51 35q27 -11 51 -45 l25 -34q-63 32 -136.5 51.5t-85.5 5.5q-22 -12 -26.5 7t0.5 28q-61 -70 -64 -147l-3 -77q-8 47 16 105l25 57q-15 -33 -9.5 -75.5t12.5 -75.5q2 -12 -2 -33t-1 -29q3 -10 10 2l7 11l-10 -57q-17 -3 -23 -23zM135 418l-1 -11l16 5l6 -7q22 0 52 -10.5t57 -23.5t46 -23l19 -10 q-10 22 -34 54t-49 62l-44 51l-19 21q6 -36 -21 -72z" />
<glyph unicode="&#x2202;" horiz-adv-x="750" d="M103 -37q-1 -12 -13 -16l-11 -4q19 7 13 16l-5 8q-15 12 -50 11l-35 -1q-39 10 -48 47l-10 37q-13 -3 -27 16l-14 18q5 -9 17 -5l13 4q-12 0 -17 17l-5 16q4 -13 21 -11l18 2q3 9 -6 19l-9 9q15 -8 25 -3l9 5q26 41 12 83l-14 41q15 64 19 147t3 157t-4 125l-3 51 q-39 44 -30 53l8 9q0 -9 4 -13l5 -5q14 3 24 -9l10 -12q0 15 -13 36l-12 21l49 -48q-7 19 7 28l13 9q8 -40 43 -52l35 -12q21 25 31 23l10 -3q-21 4 -28 -15l-6 -19l21 4q7 -34 39 -33h33q-15 -6 -9 -18l5 -13q13 6 22 -4l9 -10q-14 12 -19 5t-5.5 -20.5t1.5 -26.5l2 -13 q2 12 12 12l9 -1q-17 -2 -12 -16t12 -2q4 -30 50.5 -96t101.5 -133l100 -118l45 -51l29 -4q-12 -39 -5 -54l7 -16q-6 3 -1 30l5 26q0 -31 27 -68l26 -37l-4 -37q-13 0 -7 -30l7 -30l-57 -8q-72 23 -108 80l-36 56q9 -9 18 -4l9 5q-35 124 -85 159l-51 35q27 -11 51 -45 l25 -34q-63 32 -136.5 51.5t-85.5 5.5q-22 -12 -26.5 7t0.5 28q-61 -70 -64 -147l-3 -77q-8 47 16 105l25 57q-15 -33 -9.5 -75.5t12.5 -75.5q2 -12 -2 -33t-1 -29q3 -10 10 2l7 11l-10 -57q-17 -3 -23 -23zM135 418l-1 -11l16 5l6 -7q22 0 52 -10.5t57 -23.5t46 -23l19 -10 q-10 22 -34 54t-49 62l-44 51l-19 21q6 -36 -21 -72z" />
<glyph unicode="&#x2122;" horiz-adv-x="750" d="M103 -37q-1 -12 -13 -16l-11 -4q19 7 13 16l-5 8q-15 12 -50 11l-35 -1q-39 10 -48 47l-10 37q-13 -3 -27 16l-14 18q5 -9 17 -5l13 4q-12 0 -17 17l-5 16q4 -13 21 -11l18 2q3 9 -6 19l-9 9q15 -8 25 -3l9 5q26 41 12 83l-14 41q15 64 19 147t3 157t-4 125l-3 51 q-39 44 -30 53l8 9q0 -9 4 -13l5 -5q14 3 24 -9l10 -12q0 15 -13 36l-12 21l49 -48q-7 19 7 28l13 9q8 -40 43 -52l35 -12q21 25 31 23l10 -3q-21 4 -28 -15l-6 -19l21 4q7 -34 39 -33h33q-15 -6 -9 -18l5 -13q13 6 22 -4l9 -10q-14 12 -19 5t-5.5 -20.5t1.5 -26.5l2 -13 q2 12 12 12l9 -1q-17 -2 -12 -16t12 -2q4 -30 50.5 -96t101.5 -133l100 -118l45 -51l29 -4q-12 -39 -5 -54l7 -16q-6 3 -1 30l5 26q0 -31 27 -68l26 -37l-4 -37q-13 0 -7 -30l7 -30l-57 -8q-72 23 -108 80l-36 56q9 -9 18 -4l9 5q-35 124 -85 159l-51 35q27 -11 51 -45 l25 -34q-63 32 -136.5 51.5t-85.5 5.5q-22 -12 -26.5 7t0.5 28q-61 -70 -64 -147l-3 -77q-8 47 16 105l25 57q-15 -33 -9.5 -75.5t12.5 -75.5q2 -12 -2 -33t-1 -29q3 -10 10 2l7 11l-10 -57q-17 -3 -23 -23zM135 418l-1 -11l16 5l6 -7q22 0 52 -10.5t57 -23.5t46 -23l19 -10 q-10 22 -34 54t-49 62l-44 51l-19 21q6 -36 -21 -72z" />
<glyph unicode="&#x20ac;" horiz-adv-x="750" d="M103 -37q-1 -12 -13 -16l-11 -4q19 7 13 16l-5 8q-15 12 -50 11l-35 -1q-39 10 -48 47l-10 37q-13 -3 -27 16l-14 18q5 -9 17 -5l13 4q-12 0 -17 17l-5 16q4 -13 21 -11l18 2q3 9 -6 19l-9 9q15 -8 25 -3l9 5q26 41 12 83l-14 41q15 64 19 147t3 157t-4 125l-3 51 q-39 44 -30 53l8 9q0 -9 4 -13l5 -5q14 3 24 -9l10 -12q0 15 -13 36l-12 21l49 -48q-7 19 7 28l13 9q8 -40 43 -52l35 -12q21 25 31 23l10 -3q-21 4 -28 -15l-6 -19l21 4q7 -34 39 -33h33q-15 -6 -9 -18l5 -13q13 6 22 -4l9 -10q-14 12 -19 5t-5.5 -20.5t1.5 -26.5l2 -13 q2 12 12 12l9 -1q-17 -2 -12 -16t12 -2q4 -30 50.5 -96t101.5 -133l100 -118l45 -51l29 -4q-12 -39 -5 -54l7 -16q-6 3 -1 30l5 26q0 -31 27 -68l26 -37l-4 -37q-13 0 -7 -30l7 -30l-57 -8q-72 23 -108 80l-36 56q9 -9 18 -4l9 5q-35 124 -85 159l-51 35q27 -11 51 -45 l25 -34q-63 32 -136.5 51.5t-85.5 5.5q-22 -12 -26.5 7t0.5 28q-61 -70 -64 -147l-3 -77q-8 47 16 105l25 57q-15 -33 -9.5 -75.5t12.5 -75.5q2 -12 -2 -33t-1 -29q3 -10 10 2l7 11l-10 -57q-17 -3 -23 -23zM135 418l-1 -11l16 5l6 -7q22 0 52 -10.5t57 -23.5t46 -23l19 -10 q-10 22 -34 54t-49 62l-44 51l-19 21q6 -36 -21 -72z" />
<glyph unicode="&#x2030;" horiz-adv-x="750" d="M103 -37q-1 -12 -13 -16l-11 -4q19 7 13 16l-5 8q-15 12 -50 11l-35 -1q-39 10 -48 47l-10 37q-13 -3 -27 16l-14 18q5 -9 17 -5l13 4q-12 0 -17 17l-5 16q4 -13 21 -11l18 2q3 9 -6 19l-9 9q15 -8 25 -3l9 5q26 41 12 83l-14 41q15 64 19 147t3 157t-4 125l-3 51 q-39 44 -30 53l8 9q0 -9 4 -13l5 -5q14 3 24 -9l10 -12q0 15 -13 36l-12 21l49 -48q-7 19 7 28l13 9q8 -40 43 -52l35 -12q21 25 31 23l10 -3q-21 4 -28 -15l-6 -19l21 4q7 -34 39 -33h33q-15 -6 -9 -18l5 -13q13 6 22 -4l9 -10q-14 12 -19 5t-5.5 -20.5t1.5 -26.5l2 -13 q2 12 12 12l9 -1q-17 -2 -12 -16t12 -2q4 -30 50.5 -96t101.5 -133l100 -118l45 -51l29 -4q-12 -39 -5 -54l7 -16q-6 3 -1 30l5 26q0 -31 27 -68l26 -37l-4 -37q-13 0 -7 -30l7 -30l-57 -8q-72 23 -108 80l-36 56q9 -9 18 -4l9 5q-35 124 -85 159l-51 35q27 -11 51 -45 l25 -34q-63 32 -136.5 51.5t-85.5 5.5q-22 -12 -26.5 7t0.5 28q-61 -70 -64 -147l-3 -77q-8 47 16 105l25 57q-15 -33 -9.5 -75.5t12.5 -75.5q2 -12 -2 -33t-1 -29q3 -10 10 2l7 11l-10 -57q-17 -3 -23 -23zM135 418l-1 -11l16 5l6 -7q22 0 52 -10.5t57 -23.5t46 -23l19 -10 q-10 22 -34 54t-49 62l-44 51l-19 21q6 -36 -21 -72z" />
<glyph unicode="&#x3c0;" horiz-adv-x="750" d="M103 -37q-1 -12 -13 -16l-11 -4q19 7 13 16l-5 8q-15 12 -50 11l-35 -1q-39 10 -48 47l-10 37q-13 -3 -27 16l-14 18q5 -9 17 -5l13 4q-12 0 -17 17l-5 16q4 -13 21 -11l18 2q3 9 -6 19l-9 9q15 -8 25 -3l9 5q26 41 12 83l-14 41q15 64 19 147t3 157t-4 125l-3 51 q-39 44 -30 53l8 9q0 -9 4 -13l5 -5q14 3 24 -9l10 -12q0 15 -13 36l-12 21l49 -48q-7 19 7 28l13 9q8 -40 43 -52l35 -12q21 25 31 23l10 -3q-21 4 -28 -15l-6 -19l21 4q7 -34 39 -33h33q-15 -6 -9 -18l5 -13q13 6 22 -4l9 -10q-14 12 -19 5t-5.5 -20.5t1.5 -26.5l2 -13 q2 12 12 12l9 -1q-17 -2 -12 -16t12 -2q4 -30 50.5 -96t101.5 -133l100 -118l45 -51l29 -4q-12 -39 -5 -54l7 -16q-6 3 -1 30l5 26q0 -31 27 -68l26 -37l-4 -37q-13 0 -7 -30l7 -30l-57 -8q-72 23 -108 80l-36 56q9 -9 18 -4l9 5q-35 124 -85 159l-51 35q27 -11 51 -45 l25 -34q-63 32 -136.5 51.5t-85.5 5.5q-22 -12 -26.5 7t0.5 28q-61 -70 -64 -147l-3 -77q-8 47 16 105l25 57q-15 -33 -9.5 -75.5t12.5 -75.5q2 -12 -2 -33t-1 -29q3 -10 10 2l7 11l-10 -57q-17 -3 -23 -23zM135 418l-1 -11l16 5l6 -7q22 0 52 -10.5t57 -23.5t46 -23l19 -10 q-10 22 -34 54t-49 62l-44 51l-19 21q6 -36 -21 -72z" />
<glyph unicode="&#x3a9;" horiz-adv-x="750" d="M103 -37q-1 -12 -13 -16l-11 -4q19 7 13 16l-5 8q-15 12 -50 11l-35 -1q-39 10 -48 47l-10 37q-13 -3 -27 16l-14 18q5 -9 17 -5l13 4q-12 0 -17 17l-5 16q4 -13 21 -11l18 2q3 9 -6 19l-9 9q15 -8 25 -3l9 5q26 41 12 83l-14 41q15 64 19 147t3 157t-4 125l-3 51 q-39 44 -30 53l8 9q0 -9 4 -13l5 -5q14 3 24 -9l10 -12q0 15 -13 36l-12 21l49 -48q-7 19 7 28l13 9q8 -40 43 -52l35 -12q21 25 31 23l10 -3q-21 4 -28 -15l-6 -19l21 4q7 -34 39 -33h33q-15 -6 -9 -18l5 -13q13 6 22 -4l9 -10q-14 12 -19 5t-5.5 -20.5t1.5 -26.5l2 -13 q2 12 12 12l9 -1q-17 -2 -12 -16t12 -2q4 -30 50.5 -96t101.5 -133l100 -118l45 -51l29 -4q-12 -39 -5 -54l7 -16q-6 3 -1 30l5 26q0 -31 27 -68l26 -37l-4 -37q-13 0 -7 -30l7 -30l-57 -8q-72 23 -108 80l-36 56q9 -9 18 -4l9 5q-35 124 -85 159l-51 35q27 -11 51 -45 l25 -34q-63 32 -136.5 51.5t-85.5 5.5q-22 -12 -26.5 7t0.5 28q-61 -70 -64 -147l-3 -77q-8 47 16 105l25 57q-15 -33 -9.5 -75.5t12.5 -75.5q2 -12 -2 -33t-1 -29q3 -10 10 2l7 11l-10 -57q-17 -3 -23 -23zM135 418l-1 -11l16 5l6 -7q22 0 52 -10.5t57 -23.5t46 -23l19 -10 q-10 22 -34 54t-49 62l-44 51l-19 21q6 -36 -21 -72z" />
<glyph unicode="&#x394;" horiz-adv-x="750" d="M103 -37q-1 -12 -13 -16l-11 -4q19 7 13 16l-5 8q-15 12 -50 11l-35 -1q-39 10 -48 47l-10 37q-13 -3 -27 16l-14 18q5 -9 17 -5l13 4q-12 0 -17 17l-5 16q4 -13 21 -11l18 2q3 9 -6 19l-9 9q15 -8 25 -3l9 5q26 41 12 83l-14 41q15 64 19 147t3 157t-4 125l-3 51 q-39 44 -30 53l8 9q0 -9 4 -13l5 -5q14 3 24 -9l10 -12q0 15 -13 36l-12 21l49 -48q-7 19 7 28l13 9q8 -40 43 -52l35 -12q21 25 31 23l10 -3q-21 4 -28 -15l-6 -19l21 4q7 -34 39 -33h33q-15 -6 -9 -18l5 -13q13 6 22 -4l9 -10q-14 12 -19 5t-5.5 -20.5t1.5 -26.5l2 -13 q2 12 12 12l9 -1q-17 -2 -12 -16t12 -2q4 -30 50.5 -96t101.5 -133l100 -118l45 -51l29 -4q-12 -39 -5 -54l7 -16q-6 3 -1 30l5 26q0 -31 27 -68l26 -37l-4 -37q-13 0 -7 -30l7 -30l-57 -8q-72 23 -108 80l-36 56q9 -9 18 -4l9 5q-35 124 -85 159l-51 35q27 -11 51 -45 l25 -34q-63 32 -136.5 51.5t-85.5 5.5q-22 -12 -26.5 7t0.5 28q-61 -70 -64 -147l-3 -77q-8 47 16 105l25 57q-15 -33 -9.5 -75.5t12.5 -75.5q2 -12 -2 -33t-1 -29q3 -10 10 2l7 11l-10 -57q-17 -3 -23 -23zM135 418l-1 -11l16 5l6 -7q22 0 52 -10.5t57 -23.5t46 -23l19 -10 q-10 22 -34 54t-49 62l-44 51l-19 21q6 -36 -21 -72z" />
<glyph unicode="&#x192;" horiz-adv-x="750" d="M103 -37q-1 -12 -13 -16l-11 -4q19 7 13 16l-5 8q-15 12 -50 11l-35 -1q-39 10 -48 47l-10 37q-13 -3 -27 16l-14 18q5 -9 17 -5l13 4q-12 0 -17 17l-5 16q4 -13 21 -11l18 2q3 9 -6 19l-9 9q15 -8 25 -3l9 5q26 41 12 83l-14 41q15 64 19 147t3 157t-4 125l-3 51 q-39 44 -30 53l8 9q0 -9 4 -13l5 -5q14 3 24 -9l10 -12q0 15 -13 36l-12 21l49 -48q-7 19 7 28l13 9q8 -40 43 -52l35 -12q21 25 31 23l10 -3q-21 4 -28 -15l-6 -19l21 4q7 -34 39 -33h33q-15 -6 -9 -18l5 -13q13 6 22 -4l9 -10q-14 12 -19 5t-5.5 -20.5t1.5 -26.5l2 -13 q2 12 12 12l9 -1q-17 -2 -12 -16t12 -2q4 -30 50.5 -96t101.5 -133l100 -118l45 -51l29 -4q-12 -39 -5 -54l7 -16q-6 3 -1 30l5 26q0 -31 27 -68l26 -37l-4 -37q-13 0 -7 -30l7 -30l-57 -8q-72 23 -108 80l-36 56q9 -9 18 -4l9 5q-35 124 -85 159l-51 35q27 -11 51 -45 l25 -34q-63 32 -136.5 51.5t-85.5 5.5q-22 -12 -26.5 7t0.5 28q-61 -70 -64 -147l-3 -77q-8 47 16 105l25 57q-15 -33 -9.5 -75.5t12.5 -75.5q2 -12 -2 -33t-1 -29q3 -10 10 2l7 11l-10 -57q-17 -3 -23 -23zM135 418l-1 -11l16 5l6 -7q22 0 52 -10.5t57 -23.5t46 -23l19 -10 q-10 22 -34 54t-49 62l-44 51l-19 21q6 -36 -21 -72z" />
<glyph unicode="&#x178;" horiz-adv-x="750" d="M103 -37q-1 -12 -13 -16l-11 -4q19 7 13 16l-5 8q-15 12 -50 11l-35 -1q-39 10 -48 47l-10 37q-13 -3 -27 16l-14 18q5 -9 17 -5l13 4q-12 0 -17 17l-5 16q4 -13 21 -11l18 2q3 9 -6 19l-9 9q15 -8 25 -3l9 5q26 41 12 83l-14 41q15 64 19 147t3 157t-4 125l-3 51 q-39 44 -30 53l8 9q0 -9 4 -13l5 -5q14 3 24 -9l10 -12q0 15 -13 36l-12 21l49 -48q-7 19 7 28l13 9q8 -40 43 -52l35 -12q21 25 31 23l10 -3q-21 4 -28 -15l-6 -19l21 4q7 -34 39 -33h33q-15 -6 -9 -18l5 -13q13 6 22 -4l9 -10q-14 12 -19 5t-5.5 -20.5t1.5 -26.5l2 -13 q2 12 12 12l9 -1q-17 -2 -12 -16t12 -2q4 -30 50.5 -96t101.5 -133l100 -118l45 -51l29 -4q-12 -39 -5 -54l7 -16q-6 3 -1 30l5 26q0 -31 27 -68l26 -37l-4 -37q-13 0 -7 -30l7 -30l-57 -8q-72 23 -108 80l-36 56q9 -9 18 -4l9 5q-35 124 -85 159l-51 35q27 -11 51 -45 l25 -34q-63 32 -136.5 51.5t-85.5 5.5q-22 -12 -26.5 7t0.5 28q-61 -70 -64 -147l-3 -77q-8 47 16 105l25 57q-15 -33 -9.5 -75.5t12.5 -75.5q2 -12 -2 -33t-1 -29q3 -10 10 2l7 11l-10 -57q-17 -3 -23 -23zM135 418l-1 -11l16 5l6 -7q22 0 52 -10.5t57 -23.5t46 -23l19 -10 q-10 22 -34 54t-49 62l-44 51l-19 21q6 -36 -21 -72z" />
<glyph unicode="&#x131;" horiz-adv-x="750" d="M103 -37q-1 -12 -13 -16l-11 -4q19 7 13 16l-5 8q-15 12 -50 11l-35 -1q-39 10 -48 47l-10 37q-13 -3 -27 16l-14 18q5 -9 17 -5l13 4q-12 0 -17 17l-5 16q4 -13 21 -11l18 2q3 9 -6 19l-9 9q15 -8 25 -3l9 5q26 41 12 83l-14 41q15 64 19 147t3 157t-4 125l-3 51 q-39 44 -30 53l8 9q0 -9 4 -13l5 -5q14 3 24 -9l10 -12q0 15 -13 36l-12 21l49 -48q-7 19 7 28l13 9q8 -40 43 -52l35 -12q21 25 31 23l10 -3q-21 4 -28 -15l-6 -19l21 4q7 -34 39 -33h33q-15 -6 -9 -18l5 -13q13 6 22 -4l9 -10q-14 12 -19 5t-5.5 -20.5t1.5 -26.5l2 -13 q2 12 12 12l9 -1q-17 -2 -12 -16t12 -2q4 -30 50.5 -96t101.5 -133l100 -118l45 -51l29 -4q-12 -39 -5 -54l7 -16q-6 3 -1 30l5 26q0 -31 27 -68l26 -37l-4 -37q-13 0 -7 -30l7 -30l-57 -8q-72 23 -108 80l-36 56q9 -9 18 -4l9 5q-35 124 -85 159l-51 35q27 -11 51 -45 l25 -34q-63 32 -136.5 51.5t-85.5 5.5q-22 -12 -26.5 7t0.5 28q-61 -70 -64 -147l-3 -77q-8 47 16 105l25 57q-15 -33 -9.5 -75.5t12.5 -75.5q2 -12 -2 -33t-1 -29q3 -10 10 2l7 11l-10 -57q-17 -3 -23 -23zM135 418l-1 -11l16 5l6 -7q22 0 52 -10.5t57 -23.5t46 -23l19 -10 q-10 22 -34 54t-49 62l-44 51l-19 21q6 -36 -21 -72z" />
<glyph unicode="&#xff;" horiz-adv-x="750" d="M103 -37q-1 -12 -13 -16l-11 -4q19 7 13 16l-5 8q-15 12 -50 11l-35 -1q-39 10 -48 47l-10 37q-13 -3 -27 16l-14 18q5 -9 17 -5l13 4q-12 0 -17 17l-5 16q4 -13 21 -11l18 2q3 9 -6 19l-9 9q15 -8 25 -3l9 5q26 41 12 83l-14 41q15 64 19 147t3 157t-4 125l-3 51 q-39 44 -30 53l8 9q0 -9 4 -13l5 -5q14 3 24 -9l10 -12q0 15 -13 36l-12 21l49 -48q-7 19 7 28l13 9q8 -40 43 -52l35 -12q21 25 31 23l10 -3q-21 4 -28 -15l-6 -19l21 4q7 -34 39 -33h33q-15 -6 -9 -18l5 -13q13 6 22 -4l9 -10q-14 12 -19 5t-5.5 -20.5t1.5 -26.5l2 -13 q2 12 12 12l9 -1q-17 -2 -12 -16t12 -2q4 -30 50.5 -96t101.5 -133l100 -118l45 -51l29 -4q-12 -39 -5 -54l7 -16q-6 3 -1 30l5 26q0 -31 27 -68l26 -37l-4 -37q-13 0 -7 -30l7 -30l-57 -8q-72 23 -108 80l-36 56q9 -9 18 -4l9 5q-35 124 -85 159l-51 35q27 -11 51 -45 l25 -34q-63 32 -136.5 51.5t-85.5 5.5q-22 -12 -26.5 7t0.5 28q-61 -70 -64 -147l-3 -77q-8 47 16 105l25 57q-15 -33 -9.5 -75.5t12.5 -75.5q2 -12 -2 -33t-1 -29q3 -10 10 2l7 11l-10 -57q-17 -3 -23 -23zM135 418l-1 -11l16 5l6 -7q22 0 52 -10.5t57 -23.5t46 -23l19 -10 q-10 22 -34 54t-49 62l-44 51l-19 21q6 -36 -21 -72z" />
<glyph unicode="&#xaa;" d="M124 477q9 12 4 30l-4 18q-22 9 -21 37l1 29q9 -14 36 -33l54 -39q27 -19 48 -32l22 -13l11 -53l-21 -14q-5 -105 18.5 -161.5t53 -81.5t55.5 -28l26 -4q22 5 39 25.5t27.5 43t16.5 41.5l5 18q-2 -57 -27 -115l-25 -58l45 49l-12 -86q-18 -30 -46.5 -34.5t-55.5 3 t-46 18.5l-20 11q-52 -58 -106 -46l-55 11q-63 25 -100.5 75.5t-57 101.5t-25.5 90l-7 38q-12 92 12.5 128.5t58.5 43t65 -3.5zM43 293q6 -8 15 -35l10 -28q13 -27 36.5 -36t47 -9.5t40.5 3.5l18 4q-12 2 -23.5 26t-17 52.5t-3 51.5t18.5 25q-19 -7 -33 14l-13 21l-82 -2 q-27 -10 -21 -48z" />
<glyph unicode="&#xad;" horiz-adv-x="512" d="M9 431l23 -8q23 -8 55 -16.5t65 -14t54 -0.5l32 28q32 28 62 19l25 -13q26 -13 55 -33.5t51 -46t16 -49.5l20 -28q21 -29 -15 -41l-57 11q-57 11 -88 1l-35 -24q-35 -24 -81 -20l-21 2q-20 2 -49 13.5t-60.5 36t-52.5 69.5q21 -21 57 -27.5t34 -5.5q-13 4 -48 26.5 t-34 40.5l23 -19q22 -19 41 -19l-37 30q-38 29 -44 50l-24 41q-23 40 -11 51l17 -26q16 -27 27 -28z" />
<glyph unicode="&#xb2;" horiz-adv-x="446" d="M23 766l11 -12q11 -11 15 20l8 -2l-1 29l25 -35l-1 18l14 -12v12l31 -30l21 1q21 1 48.5 2.5t55 2t40.5 -1.5l22 -2q21 -3 46.5 -17.5t46 -45t18.5 -87.5l-4 -31q-4 -31 -49 -74l-28 -27q-28 -28 -62.5 -73t-65 -104t-34.5 -123l13 -1l-3 -12l15 -1l31 22q31 22 40 37 l-2 37l9 -6l-9 23l54 -25q55 -25 78 -121l-15 31q-15 30 -21 30l38 -81l-1 -84l-17 -31l-5 11l-1 -7q-2 -8 -6 -8q-5 0 -6 6l-1 5l-3 -8l-17 20l-1 -9q-2 -9 4 -13l-7 9q-7 8 -5 17l-3 -15l-19 22q-18 23 -19 31l-205 -59l-14 -4q-15 -3 -33 14l-11 38q-10 37 -19 38l3 20 l9.5 47.5t12.5 51.5t14 34l-14 -17q-13 -17 -12 -35q12 61 54.5 114t90 102.5t87 97t45.5 96.5l-19 21q-20 20 -82 -10l-41 -32l13 19l-26 -27l40 19l-81 -60l-26 -1q-26 -2 -40.5 27.5t-23 68t-11 77t-3.5 55.5q15 2 14 18z" />
<glyph unicode="&#xb3;" horiz-adv-x="418" d="M8 696l9 -8q9 -7 3 47l11 -8q11 -8 3 29l10 -12q11 -12 8 10l26 -12l50 22q50 21 92 13l48 -18q49 -18 87 -87l17 -68q18 -67 -30 -144l-24 -31q-24 -31 -63 -57l-7 -11l18 -2q19 -2 43.5 -9t47.5 -21t32 -38l5 -17q5 -16 2 -47t-21 -74t-64 -97l-21 -21q-22 -21 -36 -25 l24 20q23 21 29 35l-7 -1l-46 -30q-46 -31 -75 -32l37 14q37 15 70 43v5q-26 -22 -54 -35.5t-61 -25.5l-5 -4v11l-15 1q-15 1 -22 -2l-3 -1q-4 0 -4 6l-2 20l-10 10q-11 10 -19 9l35 -1q34 -1 77 35l31 27q30 26 42 69l9 27q9 28 -16 41l-40 34q-40 34 -103 10l-42 72l61 15 q61 15 136 111l15 27q14 27 8 48l-4 -12q-3 -13 -8 -17l4 39q5 40 -28 55l-28 7q-27 7 -75 -20l-21 -12q-20 -13 -34 -28l-28 -19q-28 -19 -39 21z" />
<glyph unicode="&#xb7;" horiz-adv-x="565" d="M138 512q9 13 4 32l-4 20q-24 9 -23 40l1 31q10 -15 38.5 -36.5t58 -41.5t53.5 -34l23 -14l13 -57l-23 -15q-6 -113 19.5 -173.5t57.5 -88t60 -30.5l28 -4q24 5 42 27.5t29.5 47t17.5 44.5l6 19q-2 -60 -29 -122l-27 -63l48 52l-13 -92q-20 -33 -50.5 -37.5t-59.5 3 t-50 19.5l-21 12q-28 -32 -59 -41.5t-56.5 -9t-41.5 7.5l-17 6q-68 27 -108.5 81.5t-62 109t-28.5 95.5l-7 42q-13 99 14 138t63.5 46t69.5 -4zM445 859q6 4 9 25l3 21q9 -3 7 -34l-2 -31q1 -15 -12 -44l-13 -28q10 6 19 23l8 18q5 -11 -9.5 -34.5t-20.5 -29.5 q-1 -1 18.5 13.5t26.5 32.5q0 -66 -37 -96l-37 -29q-27 -16 -55 -12l-28 5q-22 -3 -53 -27l-30 -23q-26 -3 -22 20l5 23q-12 13 -6 34.5t17.5 42t23.5 35.5l12 16q15 15 42 7l28 -8q26 6 66 43zM51 314q6 -8 16 -38l10 -29q14 -29 40 -38.5t51 -10.5t44 3l19 5 q-13 3 -25.5 28.5t-18.5 56t-3 55.5t20 27q-21 -8 -36 14l-14 23l-89 -2q-28 -11 -21 -53z" />
<glyph unicode="&#xb9;" horiz-adv-x="304" d="M36 127l14 74l117 547l-117 -547l117 547l-3 33l14 -11l5 -11h10l-4 17l12 -3l-5 8l10 -16l7 4l15 -16l-4 24q41 -24 54 -67l12 -43q-7 -6 -33 -107l-55 -221l-52 -217l-22 -99l-39 -23q15 26 2 16l-13 -11q0 27 -8 15l-8 -12q0 24 -8 16l-7 -9q14 68 1 90z" />
<glyph unicode="&#xba;" horiz-adv-x="494" d="M-16 300l-10 -14q-10 -15 -7 -25l-5 27q-4 27 -0.5 66t21 81.5t63.5 72.5l14 37q14 37 -13 66l32 -11q32 -10 71 -25.5t72.5 -34.5t36.5 -37l-28 -15q-28 -15 -26 -38l29 -8q28 -9 67 -30.5t79.5 -58.5t65.5 -94l11 -28q11 -28 12.5 -66.5t-16.5 -79t-76 -65.5 q-87 -28 -162.5 -8t-129.5 66.5t-81.5 107.5t-19.5 114zM114 230q0 6 10 17l11 11q-18 -27 -9 -54l10 -27q-4 15 5 23l9 9q-11 -39 6.5 -58.5t43 -27t48.5 -7.5l24 1q22 3 33.5 21t17 38t6.5 36l1 17q-7 -3 -18 -11l-10 -8l21 27q-18 89 -65 113l-46 24q15 -9 19 -19l4 -10 q-24 24 -51 23l-27 -1q-29 -2 -39 -23.5t-11 -47t3 -46.5z" />
<glyph unicode="&#xbc;" horiz-adv-x="1405" d="M900 279l18 1q18 0 48 63l20 35l44 76q23 43 41.5 81t14.5 45v2q-1 2 -9 2l9 22q10 23 7 33l7 -14l14 33q13 32 -8 14l1 40l11 10q10 10 -23 38l7 -3q6 -3 9 0l1 8q0 8 -7 14l27 -3q26 -4 41 -14l29 -2l13 13l10 -17l20 -2l24 -16q24 -16 42 -80l-25 -328l8 -11 q9 -11 30 -8l28 -25q28 -24 27 -119l-36 -20l-75 5l-6 -56l-2 14q-3 15 -6 12l-17 -115l-6 -8l-2 11l-6 -2q-6 -3 -6 -9l-19 8v12q0 12 -11 18l-2 108l-7 7l-68 -7q-69 -7 -144 -61l-63 61l5 29q5 29 3 37l-3 11q-2 12 -10 11zM1053 273q30 -4 61.5 -3.5t65.5 3.5l-7 181z M187 671l-14 26q-14 26 -25.5 58.5t-11 61t29.5 33.5q21 -2 61 -11t83.5 -36t84 -77t62.5 -133l-23 -17q-23 -16 -40 -52.5t-14 -96.5t54 -147q87 -139 155 -145t96.5 67t7 197t-112.5 247l45 -13l-30 83l80 -70l12 47l39 -99l-1 57q-1 13 11 -6.5t28.5 -62t35 -101t31 -123 t16 -128t-9.5 -115.5t-46 -86.5t-92 -40.5q-149 -3 -232.5 76.5t-132 191.5t-78 228.5t-69.5 186.5zM664 1008q6 4 8 25l3 21q10 -3 8 -34l-2 -32q1 -15 -12 -43l-13 -28q10 6 18 23l9 18q5 -11 -9.5 -34.5t-20.5 -29.5q-2 -1 18 13t26 33q0 -66 -37 -96l-37 -29 q-27 -16 -55 -11l-27 4q-22 -4 -53 -27l-30 -23q-26 -3 -22 20l5 23q-12 12 -6 33.5t17.5 42.5t23.5 37l12 15q15 14 42 7l27 -8q27 6 67 43zM36 127l14 74l117 547l-117 -547l117 547l-3 33l14 -11l5 -11h10l-4 17l12 -3l-5 8l10 -16l7 4l15 -16l-4 24q41 -24 54 -67 l12 -43q-7 -6 -33 -107l-55 -221l-52 -217l-22 -99l-39 -23q15 26 2 16l-13 -11q0 27 -8 15l-8 -12q0 24 -8 16l-7 -9q14 68 1 90z" />
<glyph unicode="&#xbd;" horiz-adv-x="1323" d="M900 766l11 -12q11 -11 15 20l8 -2l-1 29l25 -35l-1 18l14 -12v12l31 -30l21 1q21 1 48.5 2.5t55 2t40.5 -1.5l21 -2q22 -3 47.5 -17.5t46 -45t18.5 -87.5l-4 -31q-4 -31 -49 -74l-28 -27q-28 -28 -62.5 -73t-65 -104t-34.5 -123l13 -1l-3 -12l15 -1l31 22q31 22 40 37 l-2 37l9 -6l-9 23l55 -25q54 -25 77 -121l-15 31q-15 30 -21 30l38 -81l-1 -84l-17 -31l-5 11l-2 -7q-1 -8 -5 -8q-5 0 -6 6l-1 5l-3 -8l-17 20l-2 -9q-1 -9 5 -13l-7 9q-7 8 -5 17l-3 -15l-18 22q-19 23 -20 31l-205 -59l-15 -4q-14 -3 -32 14l-10 38q-11 37 -20 38l4 20 q3 21 8.5 47.5t12.5 51.5t14 34l-13 -17q-14 -17 -13 -35q12 61 54.5 114t90 102.5t87 97t45.5 96.5l-20 21q-19 20 -81 -10l-41 -32l13 19l-26 -27l40 19l-81 -60l-26 -1q-26 -2 -40.5 27.5t-23 68t-11 77t-3.5 55.5q15 2 14 18zM187 671l-14 26q-14 26 -25.5 58.5t-11 61 t29.5 33.5q21 -2 61 -11t83.5 -36t84 -77t62.5 -133l-23 -17q-23 -16 -40 -52.5t-14 -96.5t54 -147q87 -139 155 -145t96.5 67t7 197t-112.5 247l45 -13l-30 83l80 -70l12 47l39 -99l-1 57q-1 13 11 -6.5t28.5 -62t35 -101t31 -123t16 -128t-9.5 -115.5t-46 -86.5t-92 -40.5 q-149 -3 -232.5 76.5t-132 191.5t-78 228.5t-69.5 186.5zM664 1008q6 4 8 25l3 21q10 -3 8 -34l-2 -32q1 -15 -12 -43l-13 -28q10 6 18 23l9 18q5 -11 -9.5 -34.5t-20.5 -29.5q-2 -1 18 13t26 33q0 -66 -37 -96l-37 -29q-27 -16 -55 -11l-27 4q-22 -4 -53 -27l-30 -23 q-26 -3 -22 20l5 23q-12 12 -6 33.5t17.5 42.5t23.5 37l12 15q15 14 42 7l27 -8q27 6 67 43zM36 127l14 74l117 547l-117 -547l117 547l-3 33l14 -11l5 -11h10l-4 17l12 -3l-5 8l10 -16l7 4l15 -16l-4 24q41 -24 54 -67l12 -43q-7 -6 -33 -107l-55 -221l-52 -217l-22 -99 l-39 -23q15 26 2 16l-13 -11q0 27 -8 15l-8 -12q0 24 -8 16l-7 -9q14 68 1 90z" />
<glyph unicode="&#xbe;" horiz-adv-x="1519" d="M1014 279l18 1q18 0 48 63l20 35l44 76q23 43 41.5 81t14.5 45v2q-1 2 -9 2l9 22q10 23 7 33l7 -14l14 33q13 32 -8 14l1 40l11 10q10 10 -23 38l7 -3q6 -3 9 0l1 8q0 8 -7 14l27 -3q26 -4 41 -14l29 -2l13 13l10 -17l20 -2l24 -16q24 -16 42 -80l-25 -328l8 -11 q9 -11 30 -8l28 -25q28 -24 27 -119l-36 -20l-75 5l-6 -56l-2 14q-3 15 -6 12l-17 -115l-6 -8l-2 11l-6 -2q-6 -3 -6 -9l-19 8v12q0 12 -11 18l-2 108l-7 7l-68 -7q-69 -7 -144 -61l-63 61l5 29q5 29 3 37l-3 11q-2 12 -10 11zM1167 273q30 -4 61.5 -3.5t65.5 3.5l-7 181z M301 671l-14 26q-14 26 -25.5 58.5t-11 61t29.5 33.5q21 -2 61 -11t83.5 -36t84 -77t62.5 -133l-23 -17q-23 -16 -40 -52.5t-14 -96.5t54 -147q87 -139 155 -145t96.5 67t7 197t-112.5 247l45 -13l-30 83l80 -70l12 47l39 -99l-1 57q-1 13 11 -6.5t28.5 -62t35 -101t31 -123 t16 -128t-9.5 -115.5t-46 -86.5t-92 -40.5q-149 -3 -232.5 76.5t-132 191.5t-78 228.5t-69.5 186.5zM778 1008q6 4 8 25l3 21q10 -3 8 -34l-2 -32q1 -15 -12 -43l-13 -28q10 6 18 23l9 18q5 -11 -9.5 -34.5t-20.5 -29.5q-2 -1 18 13t26 33q0 -66 -37 -96l-37 -29 q-27 -16 -55 -11l-27 4q-22 -4 -53 -27l-30 -23q-26 -3 -22 20l5 23q-12 12 -6 33.5t17.5 42.5t23.5 37l12 15q15 14 42 7l27 -8q27 6 67 43zM8 696l9 -8q9 -7 3 47l11 -8q11 -8 3 29l10 -12q11 -12 8 10l26 -12l50 22q50 21 92 13l48 -18q49 -18 87 -87l17 -68 q18 -67 -30 -144l-24 -31q-24 -31 -63 -57l-7 -11l18 -2q19 -2 43.5 -9t47.5 -21t32 -38l5 -17q5 -16 2 -47t-21 -74t-64 -97l-21 -21q-22 -21 -36 -25l24 20q23 21 29 35l-7 -1l-46 -30q-46 -31 -75 -32l37 14q37 15 70 43v5q-26 -22 -54 -35.5t-61 -25.5l-5 -4v11l-15 1 q-15 1 -22 -2l-3 -1q-4 0 -4 6l-2 20l-10 10q-11 10 -19 9l35 -1q34 -1 77 35l31 27q30 26 42 69l9 27q9 28 -16 41l-40 34q-40 34 -103 10l-42 72l61 15q61 15 136 111l15 27q14 27 8 48l-4 -12q-3 -13 -8 -17l4 39q5 40 -28 55l-28 7q-27 7 -75 -20l-21 -12 q-20 -13 -34 -28l-28 -19q-28 -19 -39 21z" />
<glyph unicode="&#xc0;" horiz-adv-x="668" d="M290 1388q12 10 18 46l7 35q8 -1 9 -17.5t-0.5 -36.5t-3.5 -37l-3 -16q0 -24 -26 -78l-26 -53q19 14 35 47l16 34q7 -15 -20 -61t-38 -59q-3 -3 32 29.5t48 67.5q-5 -56 -27 -101t-47 -76.5t-45 -48.5l-20 -17q-48 -38 -93 -42l-46 -5q-19 -8 -44 -27t-47.5 -39.5 t-38.5 -36.5l-15 -15q-22 -9 -28.5 0.5t-5.5 23.5t5 27l5 14q-17 16 -4.5 54.5t34.5 78t43 69.5l22 31q27 31 72 30l44 -1q22 10 54.5 39.5t62 60.5t50.5 56zM103 -37q-1 -12 -13 -16l-11 -4q19 7 13 15l-5 9q-15 12 -50 11l-35 -1q-39 10 -48 47l-10 37q-13 -3 -27 15 l-14 19q5 -9 17 -5l13 4q-12 0 -17 16l-5 17q4 -13 21 -11l18 2q3 9 -6 18l-9 10q15 -8 25 -3l9 5q26 41 12 82l-14 42q15 64 19 147t3 157t-4 125l-3 51q-39 44 -30 53l8 9q0 -9 4 -14l5 -4q14 3 24 -9l10 -12q0 15 -13 36l-12 21l49 -48q-7 19 7 28l13 9q8 -40 43 -52 l35 -12q21 25 31 23l10 -3q-21 4 -28 -15l-6 -19l21 4q7 -34 39 -33h33q-15 -6 -9 -18l5 -13q13 6 22 -4l9 -10q-14 12 -19 5t-5.5 -20.5t1.5 -26.5l2 -13q2 12 11 12l10 -1q-17 -2 -12 -16t12 -2q4 -30 50.5 -96t101.5 -133l100 -118l45 -51l29 -4q-12 -39 -5 -55l7 -15 q-6 3 -1 29l5 27q0 -31 26 -68l27 -37l-4 -37q-13 0 -7 -30l7 -30l-57 -8q-72 23 -108 79l-36 57q9 -9 18 -4l9 5q-35 124 -85 159l-51 35q27 -11 51 -45l25 -34q-63 32 -136.5 51.5t-85.5 5.5q-22 -12 -26.5 7t0.5 28q-61 -70 -64 -147l-3 -77q-8 47 16 105l25 57 q-15 -33 -9.5 -75.5t12.5 -75.5q2 -12 -2 -33t-1 -29q3 -10 10 2l7 11l-10 -57q-17 -3 -23 -23zM135 418l-1 -11l16 5l6 -7q22 0 52 -10.5t57 -23.5t46 -23l19 -10q-10 22 -34 54t-49 62l-44 50l-19 22q6 -36 -22 -72z" />
<glyph unicode="&#xc8;" horiz-adv-x="467" d="M1 434q7 54 35 81t58 38t54 10.5t24 -1.5l-14 -99q-49 1 -55 -32l-6 -32q47 -21 93 -21h47q-21 54 -50 69l-29 16l14 99q82 -30 114 -75l32 -44q72 -114 62 -161l-9 -47q-17 -25 -27 -21l-9 4q-88 72 -155 70l-66 -1q11 -73 51 -103l40 -30l-8 8q-7 8 2 -3q8 -12 44 -8 l36 4q15 -3 29 11l14 15l-4 -26l27 2l1 -30l40 -2l-6 -20l19 -10l-36 -20h-42l1 -23l22 -12q28 21 58 21h30l13 -13q-22 7 -56 -6l-33 -12l-2 -13h-22l2 -9q-48 -14 -78 -8l-29 7l-2 24l-25 -11q-71 12 -95 56l-23 45l4 21l-20 9q-14 5 -26.5 34.5t-22 62.5t-14.5 60l-5 26 q-2 18 -17 23l-15 5l-5 31q-30 3 -32 28l-2 25q16 4 24 -2l8 -7q11 -13 27 -8zM275 798q6 5 9 25l3 21q9 -3 7 -34l-2 -31q1 -15 -12 -44l-13 -28q10 6 18 24l9 18q5 -11 -9.5 -35t-20.5 -30q-1 -1 18.5 13.5t25.5 33.5q0 -67 -37 -97l-36 -29q-27 -16 -55 -12l-28 5 q-22 -3 -53 -27l-30 -23q-26 -3 -22 20l5 24q-12 12 -6 33.5t17.5 42t23.5 35.5l12 16q15 15 42 7l27 -7q27 5 67 42z" />
<glyph unicode="&#xcc;" horiz-adv-x="496" d="M45 464l2 31q2 31 -43 48l-12 47q-13 47 -7 71l29 -28q30 -28 75 -20l25 -5q25 -5 56.5 -16.5t60.5 -31t37 -47.5v-27q0 -26 2.5 -57.5t7.5 -59t16 -30.5l-15 1q-15 1 -30 21l-13 -49q-13 -48 -3 -104t61 -100t179 -35q-17 7 -67 -2.5t-100 -30t-82.5 -46t-14.5 -51.5 q-18 41 -35.5 98t-30 117t-19.5 115.5t-3 92.5l-13 -30q-12 -29 -3 -58l-23 53q-24 53 -15 76l2 28q2 28 -24 29zM344 880q7 4 10 24l2 21q9 -3 7 -34l-2 -31q1 -15 -12 -44l-13 -28q11 6 19 24l8 18q5 -11 -9.5 -34.5t-20.5 -29.5q-1 -1 18.5 13t26.5 33q0 -66 -37 -96 l-37 -30q-27 -16 -55 -11l-28 5q-22 -4 -53 -27l-30 -23q-26 -3 -22 20l5 23q-12 12 -6 33.5t17.5 42.5t23.5 36l12 16q15 14 42 6l28 -7q26 6 66 43z" />
<glyph unicode="&#xd2;" horiz-adv-x="586" d="M518 1355q12 10 18 45l7 36q8 -1 9 -17.5t-0.5 -36.5t-3.5 -36l-3 -17q0 -24 -26 -77l-26 -54q19 14 35 48l16 33q7 -15 -20 -61t-38 -59q-3 -3 32 29.5t48 67.5q-5 -56 -27 -101t-47 -76.5t-45 -48.5l-20 -17q-48 -38 -93 -43l-46 -4q-19 -8 -44 -27t-47.5 -39.5 l-38.5 -35.5l-15 -16q-22 -9 -28.5 0.5t-5.5 23.5t5 28l5 13q-17 16 -4.5 54.5t34.5 78t43 70.5l22 30q27 31 72 30l44 -1q22 10 54.5 39.5t62 60.5l50.5 55zM149 699l9 37q8 37 -21 58l31 -24q30 -23 35 -41l10 26q10 26 -7 44l44 -27q45 -27 91 -69t73 -92.5t-9 -98.5 l-5 -22q-5 -23 39 -50q59 -47 89.5 -138.5t6.5 -172.5t-115 -124.5t-272 3.5q-152 54 -216.5 149.5t-57 198.5t79.5 197t195 146zM363 461q-146 -63 -204 -117t-58 -95t43.5 -68t101.5 -35t116 4.5t87 50t15 101.5t-101 159z" />
<glyph unicode="&#xd5;" horiz-adv-x="476" d="M-211 753q13 -8 74 -4.5t132 11.5t135 16.5t84 10.5q122 -3 154 -27t13 -54t-70 -57.5t-95 -37.5q20 -13 24 -97t1 -180t-8 -173l-6 -78q68 21 135 19l67 -2q25 -26 24 -40t-11.5 -20t-21.5 -7t-4 0q-72 0 -137.5 -17t-116 -38.5t-79.5 -39.5l-30 -18q-66 11 -92.5 44.5 t-32 69t0.5 63.5l6 28q-3 -18 28.5 -29t70 -18t71.5 -9l33 -3q27 -4 9 64t-50 150.5t-63 152.5l-32 70q-47 -40 -87 -46t-69.5 3t-45.5 23l-17 14q-40 69 -44 118t7 79.5t27 44.5zM132 1041q6 4 9 25l3 20q9 -3 7 -34l-2 -31q1 -15 -12 -43l-13 -29q10 6 19 24l8 18 q5 -11 -9.5 -34.5t-20.5 -29.5q-1 -2 18.5 12.5t26.5 33.5q0 -67 -37 -96l-37 -30q-27 -16 -55 -11l-28 4q-21 -3 -51 -26l-31 -23q-25 -4 -21 20l4 23q-11 12 -5 33.5t17.5 42t23.5 36.5l11 15q15 15 42 8l27 -8q26 6 66 43z" />
<glyph unicode="&#xd9;" horiz-adv-x="573" d="M174 1406q12 10 18 46l7 35q8 -1 9 -17.5t-0.5 -36.5t-3.5 -37l-3 -16q0 -24 -26 -78l-26 -53q19 14 35 47l16 34q7 -15 -20 -61t-38 -59q-3 -3 32 29.5t48 67.5q-5 -56 -27 -101t-47 -76.5t-45 -48.5l-20 -17q-48 -38 -93 -42l-46 -5q-19 -8 -44 -27t-47.5 -39.5 t-38.5 -36.5l-15 -15q-22 -9 -28.5 0.5t-5.5 23.5t5 27l5 14q-17 16 -4.5 54.5t34.5 78t43 69.5l22 31q27 31 72 30l44 -1q22 10 54.5 39.5t62 60.5t50.5 56zM-117 671l-14 26q-14 26 -25.5 58.5t-11 61t29.5 33.5q21 -2 61 -11t83.5 -36t84 -77t62.5 -133l-23 -17 q-23 -16 -40 -52.5t-14 -96.5t54 -147q87 -139 155 -145t96.5 67t7 197t-112.5 247l45 -13l-30 83l80 -70l12 47l39 -99l-1 57q-1 13 11 -6.5t28.5 -62t35 -101t31 -123t16 -128t-9.5 -115.5t-46 -86.5t-92 -40.5q-149 -3 -232.5 76.5t-132 191.5t-78 228.5t-69.5 186.5z " />
<glyph unicode="&#xdb;" horiz-adv-x="567" d="M-13 325l-11 -16q-11 -16 -8 -27l-5 30q-5 29 -1.5 71t23.5 88t73 79l16 40q16 40 -15 72l36 -11q36 -11 80.5 -28.5t82.5 -38.5t42 -40l-32 -16q-32 -16 -30 -41l32 -9q32 -9 76.5 -32t91 -63t74.5 -102l12 -30q13 -31 14.5 -72.5t-18.5 -85.5t-86 -71 q-99 -31 -185 -9.5t-147.5 71.5t-92.5 116.5t-22 124.5zM367 921q7 4 10 25l2 21q9 -3 7 -34l-2 -31q1 -15 -12 -43l-13 -29q11 6 19 24l8 17q5 -11 -9.5 -34.5t-20.5 -29.5q-1 -1 18.5 13.5t26.5 32.5q0 -66 -37 -95l-37 -30q-27 -16 -55 -11l-28 4q-22 -3 -52 -26l-31 -24 q-26 -3 -21 21l4 23q-12 12 -6 33.5t17.5 42t23.5 36.5l12 15q15 15 43 7l27 -8q26 6 66 43zM134 249q0 6 12 18l12 12q-21 -29 -9 -58l11 -30q-4 17 6 26l9 9q-12 -43 8 -64t49 -29t56 -7h26q25 3 38.5 22.5t19.5 41.5t7 40l1 18q-9 -4 -20 -12l-12 -9l24 29 q-21 96 -73 123l-53 26q17 -9 22 -20l4 -11q-27 26 -58 25l-31 -2q-32 -2 -43.5 -25.5t-13 -50.5t3.5 -49z" />
<glyph unicode="&#xe0;" d="M392 1167q12 10 18 45l7 36q8 -1 9 -17.5t-0.5 -36.5t-3.5 -36l-3 -17q0 -24 -26 -77l-26 -54q19 14 35 48l16 33q7 -15 -20 -61t-38 -59q-3 -3 32 29.5t48 67.5q-5 -56 -27 -101t-47 -76.5t-45 -48.5l-20 -17q-48 -38 -93 -43l-46 -4q-19 -8 -44 -27t-47.5 -39.5 l-38.5 -35.5l-15 -16q-22 -9 -28.5 0.5t-5.5 23.5t5 28l5 13q-17 16 -4.5 54.5t34.5 78t43 70.5l22 30q27 31 72 30l44 -1q22 10 54.5 39.5t62 60.5l50.5 55zM124 477q9 12 4 30l-4 18q-22 9 -21 37l1 29q9 -14 36 -33l54 -39q27 -19 48 -32l22 -13l11 -53l-21 -14 q-5 -105 18.5 -161.5t53 -81.5t55.5 -28l26 -4q22 5 39 25.5t27.5 43t16.5 41.5l5 18q-2 -57 -27 -115l-25 -58l45 49l-12 -86q-18 -30 -46.5 -34.5t-55.5 3t-46 18.5l-20 11q-52 -58 -106 -46l-55 11q-63 25 -100.5 75.5t-57 101.5t-25.5 90l-7 38q-12 92 12.5 128.5 t58.5 43t65 -3.5zM43 293q6 -8 15 -35l10 -28q13 -27 36.5 -36t47 -9.5t40.5 3.5l18 4q-12 2 -23.5 26t-17 52.5t-3 51.5t18.5 25q-19 -7 -33 14l-13 21l-82 -2q-27 -10 -21 -48z" />
<glyph unicode="&#xe8;" horiz-adv-x="467" d="M403 1167q12 10 19 45l6 36q8 -1 9 -17.5t-0.5 -36.5t-4.5 -36l-2 -17q0 -24 -26 -77l-26 -54q19 14 35 48l16 33q7 -15 -20 -61t-38 -59q-3 -3 32 29.5t48 67.5q-5 -56 -27 -101t-47 -76.5t-45 -48.5l-20 -17q-48 -38 -94 -43l-45 -4q-19 -8 -44 -27t-47.5 -39.5 t-37.5 -35.5l-16 -16q-22 -9 -28.5 0.5t-5.5 23.5t6 28l4 13q-17 16 -4.5 54.5t34.5 78t44 70.5l21 30q27 31 71 30l45 -1q22 10 54.5 39.5t62 60.5l50.5 55zM1 434q7 54 35 81t58 38t54 10.5t24 -1.5l-14 -99q-49 1 -55 -31l-6 -33q47 -21 93 -21h47q-21 54 -50 70l-29 15 l14 99q82 -30 114 -74l32 -45q72 -114 62 -161l-9 -47q-17 -25 -27 -21l-9 4q-88 72 -155 70l-66 -1q11 -73 51 -103l40 -30l-7 8q-8 8 1 -3q8 -12 44 -8l36 4q15 -3 29 11l14 15l-4 -26l27 2l1 -30l40 -2l-6 -20l19 -10l-36 -20h-42l1 -23l22 -12q28 21 58 21h30l13 -13 q-22 7 -55 -6l-34 -12l-2 -13h-22l2 -9q-48 -14 -78 -8l-29 7l-2 24l-25 -11q-71 12 -94 56l-24 45l4 21l-20 9q-14 5 -26.5 34.5t-22 62.5t-14.5 60l-5 26q-2 18 -17 23l-15 5l-5 31q-30 3 -32 28l-2 25q16 4 24 -2l8 -7q11 -13 27 -8z" />
<glyph unicode="&#xec;" horiz-adv-x="750" d="M290 1388q12 10 18 46l7 35q8 -1 9 -17.5t-0.5 -36.5t-3.5 -37l-3 -16q0 -24 -26 -78l-26 -53q19 14 35 47l16 34q7 -15 -20 -61t-38 -59q-3 -3 32 29.5t48 67.5q-5 -56 -27 -101t-47 -76.5t-45 -48.5l-20 -17q-48 -38 -93 -42l-46 -5q-19 -8 -44 -27t-47.5 -39.5 t-38.5 -36.5l-15 -15q-22 -9 -28.5 0.5t-5.5 23.5t5 27l5 14q-17 16 -4.5 54.5t34.5 78t43 69.5l22 31q27 31 72 30l44 -1q22 10 54.5 39.5t62 60.5t50.5 56zM103 -37q-1 -12 -13 -16l-11 -4q19 7 13 15l-5 9q-15 12 -50 11l-35 -1q-39 10 -48 47l-10 37q-13 -3 -27 15 l-14 19q5 -9 17 -5l13 4q-12 0 -17 16l-5 17q4 -13 21 -11l18 2q3 9 -6 18l-9 10q15 -8 25 -3l9 5q26 41 12 82l-14 42q15 64 19 147t3 157t-4 125l-3 51q-39 44 -30 53l8 9q0 -9 4 -14l5 -4q14 3 24 -9l10 -12q0 15 -13 36l-12 21l49 -48q-7 19 7 28l13 9q8 -40 43 -52 l35 -12q21 25 31 23l10 -3q-21 4 -28 -15l-6 -19l21 4q7 -34 39 -33h33q-15 -6 -9 -18l5 -13q13 6 22 -4l9 -10q-14 12 -19 5t-5.5 -20.5t1.5 -26.5l2 -13q2 12 11 12l10 -1q-17 -2 -12 -16t12 -2q4 -30 50.5 -96t101.5 -133l100 -118l45 -51l29 -4q-12 -39 -5 -55l7 -15 q-6 3 -1 29l5 27q0 -31 26 -68l27 -37l-4 -37q-13 0 -7 -30l7 -30l-57 -8q-72 23 -108 79l-36 57q9 -9 18 -4l9 5q-35 124 -85 159l-51 35q27 -11 51 -45l25 -34q-63 32 -136.5 51.5t-85.5 5.5q-22 -12 -26.5 7t0.5 28q-61 -70 -64 -147l-3 -77q-8 47 16 105l25 57 q-15 -33 -9.5 -75.5t12.5 -75.5q2 -12 -2 -33t-1 -29q3 -10 10 2l7 11l-10 -57q-17 -3 -23 -23zM135 418l-1 -11l16 5l6 -7q22 0 52 -10.5t57 -23.5t46 -23l19 -10q-10 22 -34 54t-49 62l-44 50l-19 22q6 -36 -22 -72z" />
<glyph unicode="&#xf2;" horiz-adv-x="494" d="M359 1167q12 10 19 45l6 36q8 -1 9 -17.5t-0.5 -36.5t-4.5 -36l-2 -17q0 -24 -26 -77l-26 -54q19 14 35 48l16 33q7 -15 -20 -61t-38 -59q-3 -3 32 29.5t48 67.5q-5 -56 -27 -101t-47 -76.5t-45 -48.5l-20 -17q-48 -38 -94 -43l-45 -4q-19 -8 -44 -27t-47.5 -39.5 t-37.5 -35.5l-16 -16q-22 -9 -28.5 0.5t-5.5 23.5t6 28l4 13q-17 16 -4.5 54.5t34.5 78t44 70.5l21 30q27 31 71 30l45 -1q22 10 54.5 39.5t62 60.5l50.5 55zM-16 300l-10 -14q-10 -15 -7 -25l-5 27q-4 27 -0.5 66t21 81.5t63.5 72.5l14 37q14 37 -13 66l32 -11 q32 -10 71 -25.5t72.5 -34.5t36.5 -37l-28 -15q-28 -15 -26 -38l29 -8q28 -9 67 -30.5t79.5 -58.5t65.5 -94l11 -28q11 -28 12.5 -66.5t-16.5 -79t-76 -65.5q-87 -28 -162.5 -8t-129.5 66.5t-81.5 107.5t-19.5 114zM114 230q0 6 10 17l11 11q-18 -27 -9 -54l10 -27 q-4 15 5 23l9 9q-11 -39 6.5 -58.5t43 -27t48.5 -7.5l24 1q22 3 33.5 21t17 38t6.5 36l1 17q-7 -3 -18 -11l-10 -8l21 27q-18 89 -65 113l-46 24q15 -9 19 -19l4 -10q-24 24 -51 23l-27 -1q-29 -2 -39 -23.5t-11 -47t3 -46.5z" />
<glyph unicode="&#xf9;" horiz-adv-x="528" d="M129 1167q12 10 19 45l6 36q8 -1 9 -17.5t-0.5 -36.5t-4.5 -36l-2 -17q0 -24 -26 -77l-26 -54q19 14 35 48l16 33q7 -15 -20 -61t-38 -59q-3 -3 32 29.5t48 67.5q-5 -56 -27 -101t-47 -76.5t-45 -48.5l-20 -17q-48 -38 -94 -43l-45 -4q-19 -8 -44 -27t-47.5 -39.5 t-37.5 -35.5l-16 -16q-22 -9 -28.5 0.5t-5.5 23.5t6 28l4 13q-17 16 -4.5 54.5t34.5 78t44 70.5l21 30q27 31 71 30l45 -1q22 10 54.5 39.5t62 60.5l50.5 55zM-103 542q-1 2 17 -5t51 -8l38 -20q38 -20 52 -41l26 -6q26 -7 50 -22q8 -6 -1.5 -11t-6.5 -12l5 -35 q5 -35 -13 -39l2 -119l15 -46q14 -46 58 -76l21 -16l2 18l5 -5q5 -5 18 -2l18 9q18 8 24 35l-13 122l8 34l-15 -40l-1 23q-1 22 -3 49t-5 50t-6 25l4 -24q4 -23 -2 -29l-11 40q-10 40 -43 73l-2 8q-2 7 0 15l1 1l-1 -6l7 -10q8 -10 23 -11l47 -3q47 -2 65 2l19 -14 q19 -15 16 -52l-2 -32q-2 -31 -3 -69.5t0 -72t7 -37.5v11q1 11 6 24l4 -17q3 -17 9.5 -38t15 -38.5t20.5 -17.5l23 -7q22 -6 37 12l-7 -12q-6 -11 -15 -14l7 -5q6 -5 12 4l6 13l12 7l-9 -18q-9 -18 -4 -27h5q5 0 9 5t-1 -11.5t-23 -6.5l2 -22q2 -22 -16 -22l-50 7l-11 6 q-11 5 -32 32l-27 -46q-27 -45 -62 -44l-61 9l-54 27q-55 26 -83 71l32 -7l-40 21q-40 21 -56 109l-6 32q-6 31 -1 49l-10 -37l-2 20q-2 19 -3.5 44.5t-2 50t3.5 33.5l-8 -12q-8 -12 -5 -16l-5 44q-5 44 -34 61l-7 68l13 -62l-17 60l-39 17z" />
<glyph unicode="&#x152;" horiz-adv-x="1098" d="M772 460l19 -24l85 16l-85 -16l85 16q-4 5 -12.5 7.5t-12.5 3.5q20 0 65 -2l46 -2l-4 18q48 -18 46 -55l-2 -36q-11 3 -37.5 -10t-54.5 -29t-50 -30l-21 -14q-21 -2 -27 3l-5 5q-7 -3 7 -44l13 -41l-32 48l47 -102q105 54 165 58l60 3q-18 7 -19 -2l-1 -9q16 0 19 -22 l4 -22q-16 6 -25 -4l-9 -10q9 5 21 0l12 -4q-15 2 -23 -5l-8 -7l36 -6l-36 -14q-23 -8 -54 -20l-58 -24q-27 -12 -41.5 -19t-1.5 -2q24 8 59 12l34 4q-83 -26 -122.5 -47t-54 -35.5t-12.5 -22.5l2 -9l-13 32q-18 15 -31 7l-13 -8q6 14 -6.5 30t-30.5 29.5t-33 22.5l-16 10 q13 2 10 20l-2 19q-16 2 -28 21l-11 18l-7 8q-6 7 1 -3q7 -11 25 -11h19q-15 6 -19 26l-5 21q6 -19 27 -31l20 -13l13 -2l1 18l17 5l-110 385q-6 4 -13 -5l-7 -10q-4 6 3 14l6 8q-18 -6 -22 -28l-3 -22l-19 -2l-17 8q7 21 -12 22h-19l6 15q-12 10 -22 5l-11 -4l10 24 q-9 3 -24 -6l-15 -8q17 3 12 18l-4 16q-21 -9 -30 -1l-10 8q9 -8 20 -1l12 8l1 23l-17 7l17 14q-47 -3 -57 12l-10 15q42 -24 58 -16l15 8l-9 25l42 -9q-24 10 -26 23l-3 13q9 -28 37 -31l27 -3q-25 14 -26 28l-1 14q17 -36 34 -35l18 1q1 21 2 27v5l13 -22q5 -7 33 -8 t59.5 1t57.5 5l26 3q99 3 125 44l25 42q79 -37 91 -80l11 -44l-8 -49q-14 -8 -31 -11l-18 -2l9 26q-44 16 -80 -2l-36 -19q3 10 34 24l31 14q-45 -14 -86 -35l-41 -20l21 -130l-33 96zM149 699l9 37q8 37 -21 58l31 -24q30 -23 35 -41l10 26q10 26 -7 44l44 -27 q45 -27 91 -69t73 -92.5t-9 -98.5l-5 -22q-5 -23 39 -50q59 -47 89.5 -138.5t6.5 -172.5t-115 -124.5t-272 3.5q-152 54 -216.5 149.5t-57 198.5t79.5 197t195 146zM363 461q-146 -63 -204 -117t-58 -95t43.5 -68t101.5 -35t116 4.5t87 50t15 101.5t-101 159z" />
<glyph unicode="&#x153;" horiz-adv-x="961" d="M495 434q7 54 35 81t58 38t54 10.5t24 -1.5l-14 -99q-49 1 -55 -31l-6 -33q47 -21 93 -21h47q-21 54 -50 70l-29 15l14 99q82 -30 114 -74l32 -45q72 -114 62 -161l-9 -47q-17 -25 -27 -21l-9 4q-88 72 -155 70l-66 -1q11 -73 51 -103l40 -30l-7 8q-8 8 1 -3q8 -12 44 -8 l36 4q15 -3 29 11l14 15l-4 -26l27 2l1 -30l40 -2l-6 -20l19 -10l-36 -20h-42l1 -23l22 -12q28 21 58 21h30l13 -13q-22 7 -55 -6l-34 -12l-2 -13h-22l2 -9q-48 -14 -78 -8l-29 7l-2 24l-25 -11q-71 12 -94 56l-24 45l4 21l-20 9q-14 5 -26.5 34.5t-22 62.5t-14.5 60l-5 26 q-2 18 -17 23l-15 5l-5 31q-30 3 -32 28l-2 25q16 4 24 -2l8 -7q11 -13 27 -8zM-16 300l-10 -14q-10 -15 -7 -25l-5 27q-4 27 -0.5 66t21 81.5t63.5 72.5l14 37q14 37 -13 66l32 -11q32 -10 71 -25.5t72.5 -34.5t36.5 -37l-28 -15q-28 -15 -26 -38l29 -8q28 -9 67 -30.5 t79.5 -58.5t65.5 -94l11 -28q11 -28 12.5 -66.5t-16.5 -79t-76 -65.5q-87 -28 -162.5 -8t-129.5 66.5t-81.5 107.5t-19.5 114zM114 230q0 6 10 17l11 11q-18 -27 -9 -54l10 -27q-4 15 5 23l9 9q-11 -39 6.5 -58.5t43 -27t48.5 -7.5l24 1q22 3 33.5 21t17 38t6.5 36l1 17 q-7 -3 -18 -11l-10 -8l21 27q-18 89 -65 113l-46 24q15 -9 19 -19l4 -10q-24 24 -51 23l-27 -1q-29 -2 -39 -23.5t-11 -47t3 -46.5z" />
<glyph unicode="&#x2013;" horiz-adv-x="375" d="M-39 195v290h377v-290h-377z" />
<glyph unicode="&#x2014;" horiz-adv-x="750" d="M-39 195v290h752v-290h-752z" />
<glyph unicode="&#x2018;" horiz-adv-x="527" d="M454 552q12 10 18 46l7 35q8 -1 9 -17.5t-0.5 -36.5t-3.5 -37l-3 -16q0 -24 -26 -78l-26 -53q19 14 35 47l16 34q7 -15 -20 -61t-38 -59q-3 -3 32 29.5t48 67.5q-5 -56 -27 -101t-47 -76.5t-45 -48.5l-20 -17q-48 -38 -93 -42l-46 -5q-19 -8 -44 -27t-47.5 -39.5 t-38.5 -36.5l-15 -15q-22 -9 -28.5 0.5t-5.5 23.5t5 27l5 14q-17 16 -4.5 54.5t34.5 78t43 69.5l22 31q27 31 72 30l44 -1q22 10 54.5 39.5t62 60.5t50.5 56z" />
<glyph unicode="&#x201d;" horiz-adv-x="586" d="M149 699l9 37q8 37 -21 58l31 -24q30 -23 35 -41l10 26q10 26 -7 44l45 -27q44 -27 90 -69t73 -92.5t-9 -98.5l-5 -23q-5 -22 39 -49q59 -47 89.5 -138.5t6.5 -172.5t-115 -124.5t-272 3.5q-152 54 -216.5 149.5t-57 198.5t79.5 197t195 146zM486 1041q7 4 9 24l3 21 q9 -3 7 -34l-2 -31q1 -15 -12 -44l-13 -28q11 6 19 24l8 18q6 -11 -9 -34.5t-21 -29.5q-1 -2 18.5 12.5t26.5 33.5q0 -67 -37 -97l-37 -29q-27 -16 -55 -12l-27 5q-23 -3 -53 -26l-30 -23q-26 -4 -22 19l4 24q-11 12 -5 33.5t17.5 42t22.5 35.5l12 16q15 15 42 7l28 -7 q27 6 66 43zM363 461q-146 -63 -204 -117t-58 -95t43.5 -68t101.5 -35t116 4.5t87 50t15 101.5t-101 159z" />
<glyph unicode="&#x2026;" horiz-adv-x="512" d="M186 460l19 -24l85 16l-85 -16l85 16q-4 5 -12.5 7.5t-12.5 3.5q20 0 66 -2l45 -2l-4 18q48 -18 46 -54l-2 -37q-11 3 -37.5 -10t-54.5 -29t-49 -30l-22 -14q-21 -2 -26 3l-6 5q-7 -3 7 -44l13 -41l-32 48l47 -102q105 54 165 58l60 3q-18 7 -19 -2l-1 -9q16 0 20 -22 l3 -22q-16 6 -25 -4l-9 -10q9 5 21 1l12 -5q-15 2 -23 -5l-8 -7l36 -6l-36 -14q-23 -8 -54 -20l-58 -24q-27 -12 -41.5 -19t-1.5 -2q24 8 59 12l34 4q-83 -26 -122.5 -47t-54 -35.5t-12.5 -22.5l2 -9l-13 32q-18 15 -31 7l-13 -8q6 14 -6.5 30t-30.5 29.5t-33 23.5l-16 9 q13 2 11 21l-3 18q-16 2 -28 21l-11 18l-7 8q-6 7 1 -3q7 -11 26 -11h18q-15 6 -19 26l-5 21q6 -19 27 -31l20 -13l13 -2l1 18l17 5l-110 385q-6 4 -13 -5l-7 -10q-4 6 3 14l6 8q-18 -6 -22 -28l-3 -22l-19 -2l-17 8q7 21 -12 22h-19l6 15q-12 10 -22 6l-11 -5l10 24 q-9 3 -24 -5l-15 -9q17 3 12 19l-4 15q-21 -9 -30 -1l-10 8q9 -8 20 0l12 7l1 23l-17 7l17 14q-47 -3 -57 12l-10 15q42 -24 58 -16l15 8l-9 25l42 -9q-24 10 -26 23l-3 13q9 -28 37 -31l27 -3q-25 14 -26 28l-1 14q17 -36 34 -35l18 1q1 21 1 27l1 5l13 -22q5 -7 33 -8 t59.5 1t57.5 5l26 3q99 3 124 44l26 42q79 -37 91 -81l11 -43l-8 -49q-14 -8 -31 -11l-18 -2l9 26q-44 16 -80 -2l-36 -19q3 10 34 24l31 14q-45 -14 -86 -35l-41 -20l21 -130l-33 96zM293 1020q6 4 9 25l2 20q9 -3 8 -34l-2 -31q0 -15 -13 -43l-13 -29q11 6 19 24l8 18 q6 -11 -9 -34.5t-21 -29.5q-1 -2 18.5 12.5t26.5 33.5q0 -67 -37 -96l-37 -30q-27 -16 -54 -11l-28 4q-23 -3 -53 -26l-30 -23q-26 -4 -22 20l4 23q-11 12 -5 33.5t17.5 42t23.5 36.5l11 15q15 15 43 8l27 -8q27 6 67 43z" />
<glyph unicode="&#x2039;" horiz-adv-x="508" d="M66 27l2 -3q1 -2 11 1l-1 31q0 32 -15 81q-9 7 -9 -16t-2 -18q-3 6 -8.5 42.5t-2.5 45.5l-1 1v3l-36 91q-18 44 -54 113q-3 7 -17 24.5t-26 12.5l9 41l-15 18l-3 21l24 -4l-31 39l66 -30l50 -2l36 -13q36 -14 55 -80l30 32q31 32 64 26l22 1q22 1 49 -23l20 -16 q20 -16 47.5 -41.5t55 -57t41.5 -63.5l1 -36q2 -35 5 -78.5t7.5 -81t10.5 -42.5q7 -38 33 -35l-28 -21v-28l-45 -2l-3 -7q-3 -7 -21 -1l-13 12l-28 26l-28 29q-14 14 -15 20l-1 16q-1 16 -4 27l14 -10l-5 125l28 -68l-1 47q0 46 -29 91l-39 47q-39 48 -71 60l-39 3l-14 -27 q-14 -26 -6 -125l15 32v-21q0 -21 3 -47t10.5 -50t22.5 -31q-4 -12 31.5 -41t33.5 -44l-12 -27q-12 -27 -37 -42q-25 -14 -21 -8l3 7l-30 29v-19l-9 23q-8 23 -21 26l-11 2q-10 2 -14 -7q-15 7 -34.5 4.5t-34.5 -6.5zM320 602q22 -11 39 -23t21 -41q2 -13 -3.5 -5.5 t-8.5 9.5q-21 4 -5.5 -7.5t12.5 -52.5q0 -5 -13.5 13.5t-28.5 28.5q-6 3 -15 11t-15 -1q-8 -14 12.5 -25.5t11.5 -9.5q-15 1 -29.5 14t-39.5 13q-42 -2 -72 -5.5t-72 1.5q-32 3 -55.5 28.5t-43.5 44.5q-15 15 -55 13t-58 -16q-6 -5 1 0.5t17 14.5t17 17t2 8q-3 -1 43 20 t97 -9q23 -15 42 -38t49 -26q9 -1 26 11l17 12l52 8q7 0 25.5 -6t15.5 -3l-21 17l18 -2q18 -2 17 -14z" />
<glyph unicode="&#x203a;" horiz-adv-x="597" d="M-112 671l-4 11q-4 10 -32 55q-14 22 -6 14l26 -27q18 -18 41 -36.5t38 -16.5l-11 9q-11 8 1 21l43 -27q42 -28 89 -7l12 -29q12 -29 31 -25l-12 -37l26 27l-12 -74l278 -336l-68 299l-47 85l38 -42l-32 136l2 41q2 42 10 66l2 -28q2 -29 20 -32l5 14q6 13 -14 41l26 -29 q25 -30 62 -60t77 -46t70 12l-1 -8q-2 -8 1 -17q0 -2 7 0l8 2q-13 -4 -13 -9q0 -9 20 -21q-50 -3 -68 -48t-20 -97.5t5 -97t7 -45.5l6 -4q-3 -12 -5 -27l-4 -31q-6 -41 -6.5 -85.5t14.5 -73.5l-3 19q-3 19 -4 43.5t1 48.5t11 34q-1 1 -2.5 -18.5t-0.5 -46.5t7 -54.5 t22 -43.5l5 -6q4 -7 -8 -18l-14 -16q-14 -17 -44 -12l-34 -2q-33 -1 -33 25l-7 22q-7 22 -20 31l-28 28l-60 66l-60 70q-28 34 -28 44l12 -41q12 -41 32 -92t45.5 -98t52.5 -59l2 -28q2 -28 -22 -49l-20 4q-20 4 -45.5 13t-49.5 24t-33 36l-24 38q-23 38 -56 49l16 3 q17 3 38 -3q-8 -5 -32 47l-54 122l-61 138q-31 67 -54 94l-24 -7l10 47l-26 36q-26 35 -48 35l13 10q14 10 -4 24l4 9q4 8 -10 27l-8 15zM317 861q22 -1 40.5 -4.5t30.5 -22.5q4 -9 -2.5 -5t-9.5 4q-19 -3 -2.5 -6.5t25.5 -33.5q0 -3 -16.5 5.5t-32.5 11.5q-6 0 -16 3.5 t-12 -5.5q-3 -12 18 -13.5t12 -3.5q-13 -3 -29.5 1.5t-37.5 -2.5q-36 -13 -61.5 -24.5t-62.5 -20.5q-29 -7 -57 3l-49 19q-18 6 -51.5 -7t-45.5 -28q-7 -11 11 15.5t9 22.5q-3 -2 31 26.5t87 22.5q24 -3 47.5 -13.5t50.5 -4.5q8 2 19 15t12 14l42 20q6 3 23.5 4t14.5 2 l-22 6q-1 0 15 4t19 -5z" />
<glyph unicode="&#xe000;" horiz-adv-x="545" d="M0 545h545v-545h-545v545z" />
<glyph unicode="&#xfb01;" horiz-adv-x="1155" d="M637 756l-6 8q-6 9 -40 24l-15 16q-16 16 -23 31q2 1 42 -23.5t70 -52.5l-25 25q-24 25 -37 41l15 -15q14 -14 38 -12q27 0 53 -2.5t48 -17.5h35q35 -1 54 6v-14q0 -15 -10 -16l28 4q29 3 24 15l-2 -15q-2 -15 -12 -15l10 -5q9 -6 15 2l-3 -32q-4 -33 -88 -51h3q3 0 9 12 q-79 -18 -134 18.5t-49 68.5zM704 464l2 31q2 31 -43 48l-13 47q-12 47 -6 71l30 -28q29 -28 74 -20l25 -5q25 -5 56.5 -16.5t60.5 -31t37 -47.5v-27q0 -26 2.5 -57.5t7.5 -59t16 -30.5l-15 1q-15 1 -30 21l-13 -49q-13 -48 -3 -104t61 -100t179 -35q-17 7 -67 -2.5 t-100 -30t-82.5 -46t-14.5 -51.5q-18 41 -35.5 98t-30 117t-19.5 115.5t-3 92.5l-12 -30q-13 -29 -4 -58l-24 53q-23 53 -14 76l2 28q2 28 -24 29zM-156 334l56 -10q56 -10 136 24q-12 20 10.5 117.5t71.5 185t121 121t159 -72.5q0 1 8 -24.5t23.5 -56.5t39.5 -55t58 -18 l-61 -38h-20q-21 0 -44 3.5t-41.5 10.5t-15.5 21l-11 -21q-12 -21 -22 -47t-13.5 -49.5t12.5 -29.5h62q62 0 92 15l-27 -27q-28 -27 -48 -34l58 -2q58 -2 180 76l-22 -13l-48 -27q-26 -15 -50.5 -27.5t-31.5 -12.5l2 -5q3 -6 18 -5l-26 -19q-26 -19 -41 -19l-33 -7 q-33 -6 -68 -33q-29 -62 -36 -136.5t-11 -147.5t-14 -139t-45 -112l18 14q18 15 27 36l-9 -38q-9 -39 -28 -88.5t-49.5 -94.5t-72.5 -57l-57 -23l35 4q34 4 41 7l-25 -18q-24 -17 -62.5 -40t-85.5 -45.5t-94 -32.5l-34 -5l-76 -11q-42 -6 -81 -10.5t-50 -3.5l41 8 q40 8 80 32l-40 -6q-39 -6 -97 -12t-123 -7.5t-115 7.5l66 21l-174 11l150 30l-37 38l113 14l-28 18l57 15l-72 35l105 19l-36 29l23 -2q22 -3 74 12q26 8 29.5 13.5t-3 8.5t-16.5 4l-10 1q95 -30 180 -0.5t165 145.5l3 -28q3 -27 -9 -41l27 57q28 56 58 134.5t52 163 t11 142.5l-45 -33q-44 -33 -48 -69h-29q-29 0 -78 48l17 -5q17 -5 40 -4l-44 21q-44 21 -47 55l10 -11q10 -11 37 -4l-35 36q-35 36 -33 63l18 -14q17 -14 34 -13z" />
<glyph unicode="&#xfb02;" horiz-adv-x="1011" d="M616 930l16 -14q15 -13 37 -29t47.5 -30.5t46.5 -15.5l19 -7q19 -7 44 -20t48.5 -31t32.5 -39l3 -23q3 -23 5.5 -53.5t2 -60.5t-6.5 -44q-7 -15 -8 -6.5t-1.5 27t-4 39.5t-15.5 31l10 -98q11 -97 27.5 -214.5t36.5 -217.5t38 -105l1 -60l-22 8l-16 -52l-17 41 q-16 41 -46 31l-10 35l-28 94l-38 134l-48 155l-50 159l-48 142q-22 64 -41 108t-32 56l17 -4q18 -5 24 -17l-12 19q-11 19 -29 25l27 7zM-156 334l56 -10q56 -10 136 24q-12 20 10.5 117.5t71.5 185t121 121t159 -72.5q0 1 8 -24.5t23.5 -56.5t39.5 -55t58 -18l-61 -38h-20 q-21 0 -44 3.5t-41.5 10.5t-15.5 21l-11 -21q-12 -21 -22 -47t-13.5 -49.5t12.5 -29.5h62q62 0 92 15l-27 -27q-28 -27 -48 -34l58 -2q58 -2 180 76l-22 -13l-48 -27q-26 -15 -50.5 -27.5t-31.5 -12.5l2 -5q3 -6 18 -5l-26 -19q-26 -19 -41 -19l-33 -7q-33 -6 -68 -33 q-29 -62 -36 -136.5t-11 -147.5t-14 -139t-45 -112l18 14q18 15 27 36l-9 -38q-9 -39 -28 -88.5t-49.5 -94.5t-72.5 -57l-57 -23l35 4q34 4 41 7l-25 -18q-24 -17 -62.5 -40t-85.5 -45.5t-94 -32.5l-34 -5l-76 -11q-42 -6 -81 -10.5t-50 -3.5l41 8q40 8 80 32l-40 -6 q-39 -6 -97 -12t-123 -7.5t-115 7.5l66 21l-174 11l150 30l-37 38l113 14l-28 18l57 15l-72 35l105 19l-36 29l23 -2q22 -3 74 12q26 8 29.5 13.5t-3 8.5t-16.5 4l-10 1q95 -30 180 -0.5t165 145.5l3 -28q3 -27 -9 -41l27 57q28 56 58 134.5t52 163t11 142.5l-45 -33 q-44 -33 -48 -69h-29q-29 0 -78 48l17 -5q17 -5 40 -4l-44 21q-44 21 -47 55l10 -11q10 -11 37 -4l-35 36q-35 36 -33 63l18 -14q17 -14 34 -13z" />
<glyph unicode="&#xfb03;" horiz-adv-x="1814" d="M1296 756l-6 8q-6 9 -40 24l-16 16q-15 16 -22 31q2 1 42 -23.5t70 -52.5l-24 25q-25 25 -38 41l14 -15q15 -14 39 -12q27 0 53 -2.5t48 -17.5h35q35 -1 54 6v-14q0 -15 -10 -16l29 4q28 3 23 15l-2 -15q-2 -15 -12 -15l9 -5q10 -6 16 2l-4 -32q-3 -33 -87 -51h3 q3 0 9 12q-79 -18 -134 18.5t-49 68.5zM1363 464l2 31q2 31 -43 48l-12 47q-13 47 -7 71l29 -28q30 -28 75 -20l25 -5q25 -5 56.5 -16.5t60.5 -31t37 -47.5v-27q0 -26 2.5 -57.5t7.5 -59t16 -30.5l-15 1q-15 1 -30 21l-13 -49q-13 -48 -3 -104t61 -100t179 -35 q-17 7 -67 -2.5t-100 -30t-82.5 -46t-14.5 -51.5q-18 41 -35.5 98t-30 117t-19.5 115.5t-3 92.5l-13 -30q-12 -29 -3 -58l-23 53q-24 53 -15 76l2 28q2 28 -24 29zM503 334l56 -10q56 -10 136 24q-12 20 10.5 117.5t71.5 185t121 121t159 -72.5q0 1 8 -24.5t23.5 -56.5 t39.5 -55t58 -18l-61 -38h-21q-20 0 -43 3.5t-41.5 10.5t-15.5 21l-12 -21q-11 -21 -21 -47t-13.5 -49.5t12.5 -29.5h62q62 0 92 15l-28 -27q-27 -27 -47 -34l58 -2q58 -2 180 76l-21 -13l-48 -27l-51.5 -27.5t-31.5 -12.5l3 -5q2 -6 17 -5l-26 -19q-26 -19 -41 -19l-33 -7 q-33 -6 -68 -33q-29 -62 -36 -136.5t-11 -147.5t-14 -139t-45 -112l18 14q18 15 27 36l-9 -38q-9 -39 -28 -88.5t-49.5 -94.5t-72.5 -57l-57 -23l34 4q35 4 42 7l-24 -18q-25 -17 -63.5 -40t-85.5 -45.5t-94 -32.5l-33 -5l-76 -11q-43 -6 -82 -10.5t-50 -3.5l40 8 q41 8 81 32l-39 -6q-40 -6 -98 -12t-123 -7.5t-115 7.5l66 21l-174 11l150 30l-37 38l113 14l-28 18l57 15l-72 35l105 19l-36 29l22 -2q23 -3 75 12q26 8 29.5 13.5t-3 8.5t-16.5 4l-10 1q95 -30 180 -0.5t165 145.5l3 -28q3 -27 -9 -41l28 57q27 56 57 134.5t52 163 t11 142.5l-44 -33q-45 -33 -49 -69h-29q-29 0 -78 48l17 -5q17 -5 40 -4l-44 21q-44 21 -47 55l10 -11q10 -11 37 -4l-35 36q-35 36 -33 63l17 -14q18 -14 35 -13zM-156 334l56 -10q56 -10 136 24q-12 20 10.5 117.5t71.5 185t121 121t159 -72.5q0 1 8 -24.5t23.5 -56.5 t39.5 -55t58 -18l-61 -38h-20q-21 0 -44 3.5t-41.5 10.5t-15.5 21l-11 -21q-12 -21 -22 -47t-13.5 -49.5t12.5 -29.5h62q62 0 92 15l-27 -27q-28 -27 -48 -34l58 -2q58 -2 180 76l-22 -13l-48 -27q-26 -15 -50.5 -27.5t-31.5 -12.5l2 -5q3 -6 18 -5l-26 -19q-26 -19 -41 -19 l-33 -7q-33 -6 -68 -33q-29 -62 -36 -136.5t-11 -147.5t-14 -139t-45 -112l18 14q18 15 27 36l-9 -38q-9 -39 -28 -88.5t-49.5 -94.5t-72.5 -57l-57 -23l35 4q34 4 41 7l-25 -18q-24 -17 -62.5 -40t-85.5 -45.5t-94 -32.5l-34 -5l-76 -11q-42 -6 -81 -10.5t-50 -3.5l41 8 q40 8 80 32l-40 -6q-39 -6 -97 -12t-123 -7.5t-115 7.5l66 21l-174 11l150 30l-37 38l113 14l-28 18l57 15l-72 35l105 19l-36 29l23 -2q22 -3 74 12q26 8 29.5 13.5t-3 8.5t-16.5 4l-10 1q95 -30 180 -0.5t165 145.5l3 -28q3 -27 -9 -41l27 57q28 56 58 134.5t52 163 t11 142.5l-45 -33q-44 -33 -48 -69h-29q-29 0 -78 48l17 -5q17 -5 40 -4l-44 21q-44 21 -47 55l10 -11q10 -11 37 -4l-35 36q-35 36 -33 63l18 -14q17 -14 34 -13z" />
<glyph unicode="&#xfb04;" horiz-adv-x="1670" d="M1275 930l15 -14q16 -13 38 -29t47.5 -30.5t46.5 -15.5l19 -7q19 -7 44 -20t48.5 -31t32.5 -39l3 -23q3 -23 5.5 -53.5t2 -60.5t-6.5 -44q-7 -15 -8 -6.5t-1.5 27t-4 39.5t-15.5 31l11 -98q10 -97 26.5 -214.5t36.5 -217.5t38 -105l1 -60l-22 8l-16 -52l-16 41 q-17 41 -47 31l-11 35l-26 94l-40 134l-46 155l-50 159l-48 142q-23 64 -42 108t-32 56l18 -4q17 -5 23 -17l-11 19q-12 19 -30 25l27 7zM503 334l56 -10q56 -10 136 24q-12 20 10.5 117.5t71.5 185t121 121t159 -72.5q0 1 8 -24.5t23.5 -56.5t39.5 -55t58 -18l-61 -38h-21 q-20 0 -43 3.5t-41.5 10.5t-15.5 21l-12 -21q-11 -21 -21 -47t-13.5 -49.5t12.5 -29.5h62q62 0 92 15l-28 -27q-27 -27 -47 -34l58 -2q58 -2 180 76l-21 -13l-48 -27l-51.5 -27.5t-31.5 -12.5l3 -5q2 -6 17 -5l-26 -19q-26 -19 -41 -19l-33 -7q-33 -6 -68 -33 q-29 -62 -36 -136.5t-11 -147.5t-14 -139t-45 -112l18 14q18 15 27 36l-9 -38q-9 -39 -28 -88.5t-49.5 -94.5t-72.5 -57l-57 -23l34 4q35 4 42 7l-24 -18q-25 -17 -63.5 -40t-85.5 -45.5t-94 -32.5l-33 -5l-76 -11q-43 -6 -82 -10.5t-50 -3.5l40 8q41 8 81 32l-39 -6 q-40 -6 -98 -12t-123 -7.5t-115 7.5l66 21l-174 11l150 30l-37 38l113 14l-28 18l57 15l-72 35l105 19l-36 29l22 -2q23 -3 75 12q26 8 29.5 13.5t-3 8.5t-16.5 4l-10 1q95 -30 180 -0.5t165 145.5l3 -28q3 -27 -9 -41l28 57q27 56 57 134.5t52 163t11 142.5l-44 -33 q-45 -33 -49 -69h-29q-29 0 -78 48l17 -5q17 -5 40 -4l-44 21q-44 21 -47 55l10 -11q10 -11 37 -4l-35 36q-35 36 -33 63l17 -14q18 -14 35 -13zM-156 334l56 -10q56 -10 136 24q-12 20 10.5 117.5t71.5 185t121 121t159 -72.5q0 1 8 -24.5t23.5 -56.5t39.5 -55t58 -18 l-61 -38h-20q-21 0 -44 3.5t-41.5 10.5t-15.5 21l-11 -21q-12 -21 -22 -47t-13.5 -49.5t12.5 -29.5h62q62 0 92 15l-27 -27q-28 -27 -48 -34l58 -2q58 -2 180 76l-22 -13l-48 -27q-26 -15 -50.5 -27.5t-31.5 -12.5l2 -5q3 -6 18 -5l-26 -19q-26 -19 -41 -19l-33 -7 q-33 -6 -68 -33q-29 -62 -36 -136.5t-11 -147.5t-14 -139t-45 -112l18 14q18 15 27 36l-9 -38q-9 -39 -28 -88.5t-49.5 -94.5t-72.5 -57l-57 -23l35 4q34 4 41 7l-25 -18q-24 -17 -62.5 -40t-85.5 -45.5t-94 -32.5l-34 -5l-76 -11q-42 -6 -81 -10.5t-50 -3.5l41 8 q40 8 80 32l-40 -6q-39 -6 -97 -12t-123 -7.5t-115 7.5l66 21l-174 11l150 30l-37 38l113 14l-28 18l57 15l-72 35l105 19l-36 29l23 -2q22 -3 74 12q26 8 29.5 13.5t-3 8.5t-16.5 4l-10 1q95 -30 180 -0.5t165 145.5l3 -28q3 -27 -9 -41l27 57q28 56 58 134.5t52 163 t11 142.5l-45 -33q-44 -33 -48 -69h-29q-29 0 -78 48l17 -5q17 -5 40 -4l-44 21q-44 21 -47 55l10 -11q10 -11 37 -4l-35 36q-35 36 -33 63l18 -14q17 -14 34 -13z" />
</font>
</defs>
</svg>
